<?xml version="1.0" encoding="utf-8" ?><svg version="1.1" xmlns = 'http://www.w3.org/2000/svg'><defs><font id='web' horiz-adv-x="1000">
<font-face font-family="web" descent="-436" cap-height="1516" units-per-em="2048" bbox="-184,-602,3095,2031" x-height="1092" ascent="1612" />
<missing-glyph horiz-adv-x="1024" d="" /><glyph horiz-adv-x="551" d="" unicode=" " />
<glyph horiz-adv-x="731" d="M 498 479 L 250 479 L 166 1516 L 580 1516 L 498 479 Z M 371 -16 C 339 -16 311 -11 287 -2 C 262 7 241 19 225 35 C 209 51 196 69 188 91 C 180 112 176 134 176 158 C 176 182 180 204 188 225 C 196 246 209 265 225 281 C 241 297 262 309 287 318 C 311 327 339 332 371 332 C 403 332 431 327 456 318 C 480 309 501 297 518 281 C 534 265 547 246 556 225 C 564 204 569 182 569 158 C 569 134 564 112 556 91 C 547 69 534 51 518 35 C 501 19 480 7 456 -2 C 431 -11 403 -16 371 -16 Z" unicode="!" />
<glyph horiz-adv-x="942" d="M 776 963 L 567 963 L 532 1364 L 532 1516 L 811 1516 L 811 1364 L 776 963 Z M 375 963 L 164 963 L 129 1364 L 129 1516 L 410 1516 L 410 1364 L 375 963 Z" unicode="&#x22;" />
<glyph horiz-adv-x="1563" d="M 680 891 L 623 625 L 852 625 L 907 891 L 680 891 Z M 492 0 L 197 0 L 276 381 L 51 381 L 51 625 L 328 625 L 383 891 L 139 891 L 139 1135 L 434 1135 L 514 1516 L 809 1516 L 729 1135 L 958 1135 L 1038 1516 L 1333 1516 L 1253 1135 L 1509 1135 L 1509 891 L 1202 891 L 1147 625 L 1421 625 L 1421 381 L 1096 381 L 1016 0 L 721 0 L 801 381 L 573 381 L 492 0 Z" unicode="#" />
<glyph horiz-adv-x="1399" d="M 612 934 L 612 1298 C 550 1290 505 1269 476 1236 C 446 1203 432 1164 432 1118 C 432 1068 447 1029 478 1002 C 508 975 553 952 612 934 Z M 793 600 L 793 211 C 858 219 907 239 940 270 C 972 301 989 345 989 401 C 989 452 972 493 940 523 C 908 553 859 579 793 600 Z M 602 -190 L 602 -18 C 539 -10 482 1 432 17 C 381 32 335 51 294 73 C 252 95 214 122 180 152 C 145 182 112 216 82 254 L 268 442 C 314 382 367 331 427 290 C 487 248 548 223 612 213 L 612 647 C 550 662 490 680 432 701 C 374 722 322 749 278 782 C 233 815 197 856 170 906 C 142 956 129 1017 129 1090 C 129 1154 140 1212 162 1265 C 184 1317 216 1363 257 1401 C 297 1439 347 1469 406 1492 C 464 1515 530 1530 602 1536 L 602 1677 L 799 1677 L 799 1530 C 858 1522 910 1510 955 1496 C 999 1482 1039 1464 1075 1444 C 1110 1424 1142 1401 1171 1375 C 1199 1349 1227 1322 1255 1292 L 1059 1104 C 1021 1144 981 1181 939 1215 C 897 1248 849 1272 793 1288 L 793 887 C 863 870 929 850 990 828 C 1051 805 1104 776 1149 742 C 1193 708 1228 665 1254 615 C 1279 565 1292 504 1292 432 C 1292 376 1282 322 1264 271 C 1245 219 1216 174 1176 134 C 1136 94 1084 60 1022 33 C 960 6 885 -10 799 -18 L 799 -190 L 602 -190 Z" unicode="$" />
<glyph horiz-adv-x="2269" d="M 500 549 C 436 549 378 560 327 584 C 275 608 232 641 197 684 C 161 727 134 779 116 840 C 97 901 88 969 88 1044 C 88 1119 97 1187 117 1249 C 136 1310 163 1362 199 1405 C 234 1448 277 1481 328 1505 C 379 1528 436 1540 500 1540 C 562 1540 619 1528 670 1505 C 720 1481 763 1448 798 1406 C 832 1363 859 1311 878 1250 C 897 1189 907 1121 907 1047 C 907 972 897 904 879 843 C 860 781 833 729 799 686 C 764 642 721 609 671 585 C 620 561 563 549 500 549 Z M 823 0 L 541 0 L 1446 1516 L 1729 1516 L 823 0 Z M 500 756 C 548 756 583 781 605 833 C 626 885 637 955 637 1044 C 637 1134 626 1204 604 1254 C 582 1304 548 1329 500 1329 C 448 1329 412 1303 390 1253 C 368 1203 358 1134 358 1047 C 358 955 369 884 391 833 C 413 781 450 756 500 756 Z M 1772 -20 C 1708 -20 1650 -8 1600 15 C 1549 39 1506 72 1471 116 C 1435 159 1408 211 1390 272 C 1371 333 1362 401 1362 475 C 1362 549 1371 617 1391 679 C 1410 741 1437 793 1473 837 C 1508 880 1551 913 1602 937 C 1653 961 1710 973 1774 973 C 1836 973 1893 961 1943 937 C 1993 913 2036 880 2071 837 C 2106 793 2133 741 2152 680 C 2171 619 2181 551 2181 477 C 2181 403 2171 335 2153 274 C 2134 212 2107 160 2072 117 C 2037 73 1994 40 1944 16 C 1893 -8 1836 -20 1772 -20 Z M 1774 188 C 1822 188 1857 214 1879 266 C 1900 318 1911 388 1911 477 C 1911 566 1900 635 1878 685 C 1856 735 1820 760 1772 760 C 1722 760 1686 734 1664 684 C 1642 633 1632 564 1632 477 C 1632 386 1643 315 1665 264 C 1687 213 1724 188 1774 188 Z" unicode="%" />
<glyph horiz-adv-x="1522" d="M 653 952 C 705 982 748 1016 782 1055 C 816 1094 834 1142 834 1200 C 834 1215 832 1230 828 1246 C 824 1261 817 1275 809 1287 C 800 1299 788 1309 774 1317 C 759 1325 741 1329 721 1329 C 684 1329 653 1316 627 1292 C 601 1267 588 1230 588 1180 C 588 1143 593 1106 604 1068 C 615 1030 631 992 653 952 Z M 606 201 C 644 201 680 206 715 216 C 749 226 782 240 813 260 C 780 292 746 327 712 366 C 678 405 642 448 606 494 C 587 517 569 541 551 565 C 533 589 516 612 500 635 C 459 607 427 576 403 541 C 379 505 367 466 367 422 C 367 352 389 297 433 259 C 477 220 534 201 606 201 Z M 604 -29 C 510 -29 427 -19 355 0 C 283 18 224 45 177 80 C 129 115 93 158 69 208 C 45 258 33 313 33 375 C 33 436 42 490 61 537 C 80 583 106 624 138 660 C 170 695 207 726 249 753 C 291 780 335 805 381 827 C 351 884 328 940 311 996 C 293 1052 285 1107 285 1161 C 285 1210 293 1258 310 1304 C 327 1350 353 1391 388 1427 C 423 1462 468 1490 522 1512 C 576 1533 641 1544 715 1544 C 783 1544 842 1534 892 1516 C 942 1497 983 1472 1015 1442 C 1047 1411 1070 1375 1085 1335 C 1100 1295 1108 1254 1108 1212 C 1108 1155 1098 1105 1079 1061 C 1059 1017 1034 978 1002 944 C 970 910 932 879 890 852 C 848 825 804 800 758 778 C 770 758 785 739 801 719 C 817 699 833 679 850 659 C 879 623 908 589 936 557 C 964 525 990 497 1016 473 C 1041 517 1062 566 1078 621 C 1094 675 1105 735 1112 799 L 1393 764 C 1382 687 1364 610 1338 532 C 1312 454 1279 382 1237 315 C 1277 293 1319 276 1361 265 C 1403 253 1449 248 1497 248 L 1522 -20 C 1422 -19 1333 -9 1254 9 C 1175 28 1101 57 1032 96 C 976 57 912 26 841 4 C 770 -17 691 -29 604 -29 Z" unicode="&#x26;" />
<glyph horiz-adv-x="541" d="M 375 963 L 164 963 L 129 1364 L 129 1516 L 410 1516 L 410 1364 L 375 963 Z" unicode="'" />
<glyph horiz-adv-x="827" d="M 776 -270 L 614 -420 C 531 -350 457 -277 392 -202 C 326 -127 271 -49 227 33 C 182 115 148 201 125 293 C 101 384 90 481 90 584 C 90 686 101 782 125 874 C 148 966 182 1052 227 1134 C 271 1216 326 1294 392 1370 C 457 1445 531 1517 614 1587 L 766 1427 C 716 1372 671 1313 630 1250 C 589 1186 554 1119 525 1049 C 496 979 474 905 458 827 C 442 749 434 668 434 584 C 434 498 442 416 458 337 C 474 257 497 182 527 111 C 557 40 593 -27 635 -91 C 677 -155 724 -215 776 -270 Z" unicode="(" />
<glyph horiz-adv-x="827" d="M 213 -420 L 51 -270 C 101 -215 148 -155 190 -91 C 232 -27 268 40 298 111 C 327 182 350 257 366 337 C 382 416 391 498 391 584 C 391 668 383 749 367 827 C 351 905 329 979 300 1049 C 271 1119 236 1186 195 1250 C 154 1313 109 1372 59 1427 L 213 1587 C 379 1447 507 1296 598 1134 C 689 972 735 788 735 584 C 735 379 689 195 598 33 C 507 -128 379 -280 213 -420 Z" unicode=")" />
<glyph horiz-adv-x="1040" d="M 520 924 L 375 618 L 203 721 L 393 997 L 55 975 L 55 1167 L 395 1143 L 203 1421 L 375 1524 L 520 1219 L 666 1524 L 840 1421 L 647 1143 L 985 1167 L 985 975 L 647 997 L 840 721 L 668 618 L 520 924 Z" unicode="*" />
<glyph horiz-adv-x="1323" d="M 793 178 L 530 178 L 530 588 L 137 588 L 137 848 L 530 848 L 530 1257 L 793 1257 L 793 848 L 1186 848 L 1186 588 L 793 588 L 793 178 Z" unicode="+" />
<glyph horiz-adv-x="578" d="M 272 -246 L 78 -246 L 133 317 L 485 317 L 272 -246 Z" unicode="," />
<glyph horiz-adv-x="731" d="M 635 532 L 96 532 L 96 754 L 635 754 L 635 532 Z" unicode="-" />
<glyph horiz-adv-x="578" d="M 289 -16 C 257 -16 229 -11 205 -2 C 180 7 159 19 143 35 C 127 51 114 69 106 91 C 98 112 94 134 94 158 C 94 182 98 204 106 225 C 114 246 127 265 143 281 C 159 297 180 309 205 318 C 229 327 257 332 289 332 C 321 332 349 327 374 318 C 398 309 419 297 436 281 C 452 265 465 246 474 225 C 482 204 487 182 487 158 C 487 134 482 112 474 91 C 465 69 452 51 436 35 C 419 19 398 7 374 -2 C 349 -11 321 -16 289 -16 Z" unicode="." />
<glyph horiz-adv-x="1313" d="M 385 0 L 47 0 L 928 1516 L 1266 1516 L 385 0 Z" unicode="/" />
<glyph horiz-adv-x="1425" d="M 713 -29 C 613 -29 524 -10 446 27 C 368 65 302 118 248 187 C 194 255 153 338 125 436 C 96 533 82 640 82 758 C 82 875 96 982 125 1080 C 153 1177 194 1260 248 1328 C 302 1396 368 1449 446 1487 C 524 1525 613 1544 713 1544 C 812 1544 901 1525 979 1487 C 1057 1449 1123 1396 1177 1328 C 1230 1260 1271 1177 1299 1080 C 1327 982 1341 875 1341 758 C 1341 640 1327 533 1299 436 C 1271 338 1230 255 1177 187 C 1123 118 1057 65 979 27 C 901 -10 812 -29 713 -29 Z M 713 231 C 809 231 883 275 935 365 C 986 455 1012 586 1012 758 C 1012 930 985 1059 933 1147 C 881 1234 807 1278 713 1278 C 615 1278 540 1234 490 1147 C 439 1059 414 930 414 758 C 414 586 440 455 492 365 C 544 275 617 231 713 231 Z" unicode="0" />
<glyph horiz-adv-x="938" d="M 702 0 L 381 0 L 381 1214 L 90 1145 L 49 1417 L 389 1516 L 702 1516 L 702 0 Z" unicode="1" />
<glyph horiz-adv-x="1257" d="M 1192 0 L 53 0 L 53 33 C 53 87 57 142 67 197 C 77 251 97 307 129 363 C 161 419 207 476 267 536 C 327 595 406 657 506 721 C 564 758 614 791 656 819 C 698 847 732 873 758 899 C 784 925 803 952 815 981 C 827 1009 834 1043 834 1081 C 834 1137 816 1181 782 1215 C 747 1249 698 1266 635 1266 C 575 1266 514 1246 453 1208 C 392 1170 339 1115 295 1044 L 74 1227 C 137 1323 215 1400 308 1458 C 400 1515 513 1544 645 1544 C 726 1544 798 1533 862 1513 C 926 1492 979 1462 1023 1424 C 1066 1386 1099 1339 1122 1285 C 1145 1231 1157 1170 1157 1104 C 1157 1062 1153 1020 1145 980 C 1137 940 1122 899 1098 859 C 1074 818 1040 776 996 734 C 952 692 893 648 821 602 C 766 567 716 534 671 502 C 626 470 588 440 556 412 C 524 384 498 357 480 332 C 461 306 451 282 449 260 L 1143 260 L 1192 0 Z" unicode="2" />
<glyph horiz-adv-x="1276" d="M 612 -29 C 487 -29 377 -7 281 35 C 185 77 104 138 37 217 L 213 422 C 239 390 268 363 300 340 C 331 316 363 297 396 282 C 429 266 463 255 497 247 C 531 239 565 236 598 236 C 682 236 747 254 791 290 C 835 326 858 378 858 446 C 858 529 827 587 766 620 C 704 653 614 670 496 670 L 438 670 L 399 913 L 502 913 C 571 913 627 918 670 929 C 712 939 745 953 768 971 C 791 989 807 1009 815 1032 C 823 1055 827 1079 827 1104 C 827 1154 810 1194 778 1225 C 746 1256 689 1272 608 1272 C 550 1272 491 1260 430 1237 C 369 1213 309 1173 250 1116 L 100 1348 C 131 1378 167 1405 209 1429 C 251 1453 295 1473 342 1490 C 389 1506 439 1519 491 1528 C 543 1537 595 1542 647 1542 C 811 1542 937 1508 1025 1440 C 1113 1372 1157 1277 1157 1155 C 1157 1111 1150 1069 1137 1031 C 1124 993 1105 958 1080 928 C 1055 898 1024 872 987 850 C 950 828 908 813 860 803 C 916 793 966 777 1010 755 C 1053 733 1089 705 1118 673 C 1147 640 1169 603 1184 561 C 1198 519 1206 474 1206 426 C 1206 355 1191 291 1163 235 C 1134 178 1094 130 1042 91 C 990 52 927 22 854 2 C 780 -18 700 -29 612 -29 Z" unicode="3" />
<glyph horiz-adv-x="1384" d="M 1102 0 L 780 0 L 780 297 L 45 297 L 45 539 L 735 1516 L 1102 1516 L 1102 559 L 1337 559 L 1370 297 L 1102 297 L 1102 0 Z M 776 1118 L 389 559 L 780 559 L 780 1118 L 776 1118 Z" unicode="4" />
<glyph horiz-adv-x="1247" d="M 600 -29 C 479 -29 373 -11 282 23 C 191 58 113 104 47 162 L 182 399 C 234 353 295 314 365 283 C 435 251 506 236 580 236 C 630 236 673 242 709 256 C 745 269 775 287 799 311 C 822 335 839 363 851 396 C 862 429 868 465 868 504 C 868 589 845 656 801 705 C 756 753 691 778 606 778 C 555 778 506 765 458 741 C 410 717 366 681 328 633 L 113 700 L 174 1516 L 1073 1516 L 1098 1264 L 430 1264 L 401 928 C 427 952 465 974 516 993 C 566 1012 630 1022 707 1022 C 787 1022 858 1009 920 984 C 982 959 1033 924 1074 880 C 1115 835 1146 781 1168 719 C 1189 657 1200 589 1200 516 C 1200 435 1186 361 1158 294 C 1130 227 1091 170 1040 122 C 988 74 925 37 851 11 C 776 -15 692 -29 600 -29 Z" unicode="5" />
<glyph horiz-adv-x="1339" d="M 700 -29 C 610 -29 527 -12 451 20 C 375 53 309 101 255 165 C 201 229 158 308 128 403 C 97 498 82 607 82 731 C 82 875 102 999 142 1103 C 182 1206 234 1290 300 1355 C 365 1420 440 1468 525 1498 C 609 1528 696 1544 784 1544 C 828 1544 870 1540 908 1533 C 946 1525 982 1516 1014 1505 C 1046 1493 1076 1480 1103 1465 C 1130 1450 1154 1435 1176 1421 L 1063 1180 C 1018 1213 974 1238 930 1255 C 886 1271 839 1280 788 1280 C 679 1280 591 1241 524 1163 C 456 1085 418 978 408 840 C 460 880 518 913 581 939 C 643 964 712 977 786 977 C 852 977 916 967 976 949 C 1036 930 1088 901 1132 863 C 1176 824 1211 774 1237 713 C 1263 652 1276 580 1276 496 C 1276 417 1262 345 1234 280 C 1206 215 1167 160 1117 115 C 1067 69 1006 34 935 9 C 863 -16 785 -29 700 -29 Z M 715 223 C 755 223 790 230 822 244 C 853 258 879 276 900 300 C 920 324 936 351 947 383 C 957 414 963 447 963 481 C 963 512 959 543 951 573 C 943 603 929 630 911 653 C 893 676 868 695 836 709 C 804 723 765 731 719 731 C 655 731 596 719 544 696 C 491 672 446 642 408 604 C 416 477 446 382 498 318 C 550 254 623 223 715 223 Z" unicode="6" />
<glyph horiz-adv-x="1104" d="M 492 -25 L 176 25 L 745 1247 L 49 1247 L 0 1516 L 1085 1516 L 1085 1270 L 492 -25 Z" unicode="7" />
<glyph horiz-adv-x="1307" d="M 653 -29 C 558 -29 473 -19 397 0 C 321 19 257 47 205 83 C 153 119 113 163 85 215 C 57 267 43 325 43 391 C 43 438 51 482 69 523 C 87 563 111 600 142 634 C 172 667 208 697 249 723 C 289 749 333 772 379 791 C 337 812 300 834 267 858 C 234 881 206 907 184 936 C 161 964 143 997 131 1034 C 119 1070 113 1113 113 1161 C 113 1209 124 1256 147 1302 C 169 1348 203 1388 248 1424 C 293 1460 349 1489 417 1511 C 485 1533 563 1544 653 1544 C 745 1544 825 1533 893 1511 C 961 1489 1017 1460 1061 1424 C 1105 1388 1137 1347 1159 1301 C 1181 1255 1192 1208 1192 1161 C 1192 1081 1168 1010 1122 948 C 1075 886 1011 837 930 801 C 978 779 1022 756 1063 732 C 1104 708 1139 680 1169 649 C 1198 617 1221 581 1237 539 C 1253 497 1262 447 1262 391 C 1262 326 1248 268 1220 216 C 1192 164 1152 119 1100 83 C 1048 47 984 19 908 0 C 832 -19 747 -29 653 -29 Z M 676 909 C 744 943 793 976 824 1009 C 854 1041 870 1082 870 1130 C 870 1150 866 1170 858 1192 C 850 1213 838 1232 821 1249 C 804 1266 782 1280 755 1292 C 727 1303 694 1309 655 1309 C 615 1309 582 1304 554 1294 C 526 1284 504 1270 486 1254 C 468 1238 456 1219 448 1199 C 440 1178 436 1157 436 1137 C 436 1079 457 1034 499 1002 C 541 970 600 939 676 909 Z M 653 199 C 696 199 735 204 769 215 C 803 226 832 241 856 260 C 879 279 897 301 909 327 C 921 353 928 380 928 410 C 928 468 903 516 855 554 C 807 592 731 632 629 674 C 551 636 490 596 446 554 C 401 512 379 464 379 410 C 379 381 385 354 397 328 C 409 302 427 280 451 261 C 474 242 503 227 537 216 C 571 204 609 199 653 199 Z" unicode="8" />
<glyph horiz-adv-x="1339" d="M 621 784 C 684 784 742 795 794 819 C 846 843 892 873 930 911 C 922 1037 892 1131 840 1192 C 787 1253 715 1284 625 1284 C 584 1284 548 1277 517 1264 C 485 1250 459 1232 439 1210 C 419 1188 403 1161 393 1131 C 382 1100 377 1068 377 1034 C 377 1002 380 971 388 941 C 396 911 409 884 427 861 C 445 838 470 819 502 805 C 534 791 573 784 621 784 Z M 590 -29 C 480 -29 391 -16 325 8 C 258 33 204 61 162 92 L 274 336 C 298 319 321 304 343 291 C 365 277 388 266 412 257 C 435 247 460 240 486 235 C 512 229 542 227 575 227 C 623 227 668 237 710 258 C 751 278 787 308 818 347 C 848 385 873 432 893 488 C 912 544 924 606 930 676 C 876 635 818 602 756 577 C 693 551 625 539 551 539 C 485 539 422 548 362 567 C 302 585 251 614 207 653 C 163 691 128 741 102 802 C 76 863 63 936 63 1020 C 63 1098 77 1170 105 1235 C 133 1299 172 1354 222 1400 C 272 1446 332 1481 404 1506 C 475 1531 553 1544 639 1544 C 729 1544 812 1527 888 1495 C 964 1462 1029 1414 1083 1350 C 1137 1286 1179 1206 1209 1111 C 1239 1016 1255 907 1255 784 C 1255 639 1235 515 1195 412 C 1155 308 1104 224 1042 159 C 979 94 908 46 828 16 C 748 -13 669 -29 590 -29 Z" unicode="9" />
<glyph horiz-adv-x="604" d="M 299 758 C 267 758 239 762 215 772 C 190 781 169 793 153 809 C 137 825 124 843 116 865 C 108 886 104 908 104 932 C 104 956 108 978 116 999 C 124 1020 137 1039 153 1055 C 169 1071 190 1083 215 1092 C 239 1101 267 1106 299 1106 C 331 1106 359 1101 384 1092 C 409 1083 430 1071 447 1055 C 463 1039 476 1020 485 999 C 493 978 498 956 498 932 C 498 908 493 886 485 865 C 476 843 463 825 447 809 C 430 793 409 781 384 772 C 359 762 331 758 299 758 Z M 299 -16 C 267 -16 239 -11 215 -2 C 190 7 169 19 153 35 C 137 51 124 69 116 91 C 108 112 104 134 104 158 C 104 182 108 204 116 225 C 124 246 137 265 153 281 C 169 297 190 309 215 318 C 239 327 267 332 299 332 C 331 332 359 327 384 318 C 409 309 430 297 447 281 C 463 265 476 246 485 225 C 493 204 498 182 498 158 C 498 134 493 112 485 91 C 476 69 463 51 447 35 C 430 19 409 7 384 -2 C 359 -11 331 -16 299 -16 Z" unicode=":" />
<glyph horiz-adv-x="604" d="M 299 758 C 267 758 239 762 215 772 C 190 781 169 793 153 809 C 137 825 124 843 116 865 C 108 886 104 908 104 932 C 104 956 108 978 116 999 C 124 1020 137 1039 153 1055 C 169 1071 190 1083 215 1092 C 239 1101 267 1106 299 1106 C 331 1106 359 1101 384 1092 C 409 1083 430 1071 447 1055 C 463 1039 476 1020 485 999 C 493 978 498 956 498 932 C 498 908 493 886 485 865 C 476 843 463 825 447 809 C 430 793 409 781 384 772 C 359 762 331 758 299 758 Z M 293 -246 L 98 -246 L 154 317 L 506 317 L 293 -246 Z" unicode=";" />
<glyph horiz-adv-x="1323" d="M 1206 369 L 1206 98 L 123 573 L 123 754 L 1206 1229 L 1206 958 L 475 664 L 1206 369 Z" unicode="&#x3C;" />
<glyph horiz-adv-x="1323" d="M 1178 788 L 143 788 L 143 1022 L 1178 1022 L 1178 788 Z M 1178 322 L 143 322 L 143 555 L 1178 555 L 1178 322 Z" unicode="=" />
<glyph horiz-adv-x="1323" d="M 1210 573 L 127 98 L 127 369 L 858 664 L 127 958 L 127 1229 L 1210 754 L 1210 573 Z" unicode="&#x3E;" />
<glyph horiz-adv-x="1217" d="M 702 475 L 432 475 C 429 502 427 527 426 550 C 424 572 424 597 424 623 C 424 661 429 696 441 727 C 452 758 467 786 487 811 C 506 836 529 859 556 879 C 582 899 611 917 641 934 C 669 950 693 965 714 979 C 734 993 751 1008 765 1024 C 778 1040 788 1057 795 1076 C 801 1095 805 1117 805 1143 C 805 1183 788 1217 754 1243 C 720 1269 673 1282 612 1282 C 576 1282 541 1276 507 1266 C 472 1256 439 1242 409 1226 C 378 1209 349 1189 323 1167 C 297 1145 274 1122 256 1098 L 68 1298 C 96 1332 130 1364 169 1394 C 207 1424 250 1450 298 1472 C 346 1494 399 1511 457 1524 C 515 1537 579 1544 647 1544 C 724 1544 793 1534 853 1516 C 913 1497 963 1471 1004 1438 C 1044 1404 1075 1365 1096 1319 C 1117 1273 1128 1223 1128 1169 C 1128 1121 1121 1079 1109 1043 C 1096 1007 1079 975 1057 947 C 1035 919 1010 895 981 874 C 951 852 920 833 887 815 C 840 791 804 769 779 750 C 753 730 735 709 724 685 C 712 661 706 633 704 600 C 702 567 702 525 702 475 Z M 565 -16 C 533 -16 505 -11 481 -2 C 457 7 436 19 420 35 C 404 51 391 69 383 91 C 375 112 371 134 371 158 C 371 182 375 204 383 225 C 391 246 404 265 420 281 C 436 297 457 309 481 318 C 505 327 533 332 565 332 C 597 332 625 327 650 318 C 675 309 696 297 713 281 C 729 265 742 246 751 225 C 759 204 764 182 764 158 C 764 134 759 112 751 91 C 742 69 729 51 713 35 C 696 19 675 7 650 -2 C 625 -11 597 -16 565 -16 Z" unicode="?" />
<glyph horiz-adv-x="1778" d="M 870 -29 C 750 -29 641 -9 544 30 C 446 69 364 123 297 192 C 229 261 177 344 141 440 C 104 536 86 641 86 754 C 86 866 105 971 144 1068 C 183 1165 238 1249 309 1319 C 379 1389 464 1444 564 1484 C 664 1524 773 1544 893 1544 C 1012 1544 1121 1525 1220 1487 C 1318 1449 1402 1396 1472 1328 C 1542 1260 1596 1180 1634 1086 C 1672 992 1692 889 1692 778 C 1692 710 1683 647 1665 589 C 1647 531 1620 482 1586 441 C 1552 400 1509 368 1459 345 C 1409 322 1352 311 1288 311 C 1207 311 1146 328 1104 362 C 1062 396 1033 440 1016 494 C 997 474 977 455 955 437 C 933 418 909 401 883 387 C 857 372 828 360 797 351 C 765 342 731 338 694 338 C 610 338 544 365 494 420 C 444 474 420 552 420 653 C 420 737 430 813 451 881 C 472 949 500 1006 536 1054 C 571 1101 612 1137 660 1163 C 708 1189 758 1202 811 1202 C 876 1202 926 1191 961 1171 C 995 1151 1025 1126 1049 1098 L 1063 1186 L 1313 1186 L 1212 575 C 1204 533 1208 501 1226 479 C 1244 457 1277 446 1325 446 C 1389 446 1441 474 1483 531 C 1525 587 1546 667 1546 770 C 1546 863 1530 949 1499 1027 C 1468 1105 1424 1171 1367 1227 C 1310 1282 1241 1325 1160 1356 C 1079 1387 989 1403 891 1403 C 791 1403 701 1387 621 1355 C 541 1323 473 1278 417 1221 C 361 1164 317 1096 287 1016 C 257 936 242 848 242 754 C 242 660 256 572 286 492 C 315 411 357 342 412 284 C 466 226 533 180 613 147 C 692 114 781 98 881 98 C 956 98 1026 106 1090 123 C 1154 140 1212 167 1266 203 L 1335 102 C 1276 60 1206 27 1126 5 C 1045 -17 960 -29 870 -29 Z M 803 528 C 832 528 861 535 890 551 C 919 567 945 586 969 610 L 1020 926 C 997 950 975 968 953 979 C 931 989 904 995 872 995 C 838 995 809 986 784 968 C 758 950 737 926 721 897 C 705 867 692 834 684 796 C 676 758 672 719 672 680 C 672 632 681 594 700 568 C 718 541 753 528 803 528 Z" unicode="@" />
<glyph horiz-adv-x="1460" d="M 342 0 L 35 0 L 571 1522 L 889 1522 L 1417 25 L 1096 -25 L 975 338 L 459 338 L 342 0 Z M 719 1096 L 541 580 L 897 580 L 723 1096 L 719 1096 Z" unicode="A" />
<glyph horiz-adv-x="1460" d="M 793 0 L 156 0 L 156 1516 L 762 1516 C 831 1516 898 1510 964 1500 C 1029 1490 1087 1471 1137 1443 C 1187 1415 1227 1377 1257 1329 C 1287 1280 1303 1217 1303 1141 C 1303 1087 1295 1040 1279 1000 C 1263 960 1242 926 1216 898 C 1189 870 1158 847 1123 830 C 1088 812 1052 800 1014 793 L 1014 788 C 1060 780 1103 767 1143 750 C 1183 733 1217 710 1247 681 C 1277 652 1300 616 1317 573 C 1334 529 1343 478 1343 418 C 1343 342 1327 277 1296 224 C 1265 170 1224 127 1173 94 C 1122 61 1063 37 997 22 C 931 7 863 0 793 0 Z M 483 1257 L 483 891 L 729 891 C 815 891 879 906 921 938 C 962 970 983 1015 983 1073 C 983 1132 963 1177 924 1209 C 885 1241 821 1257 733 1257 L 483 1257 Z M 483 655 L 483 254 L 752 254 C 843 254 910 271 953 307 C 996 343 1018 393 1018 457 C 1018 523 994 572 946 605 C 898 638 829 655 737 655 L 483 655 Z" unicode="B" />
<glyph horiz-adv-x="1473" d="M 782 -29 C 683 -29 591 -12 505 19 C 419 51 346 100 284 165 C 222 229 173 311 137 411 C 101 510 84 626 84 760 C 84 890 101 1005 137 1104 C 173 1202 221 1284 283 1349 C 344 1413 416 1462 499 1495 C 581 1527 669 1544 762 1544 C 914 1544 1039 1513 1136 1451 C 1233 1389 1310 1300 1366 1182 L 1085 1040 C 1072 1069 1056 1097 1036 1125 C 1016 1153 993 1177 967 1198 C 941 1219 910 1236 876 1249 C 842 1261 804 1268 762 1268 C 704 1268 653 1256 610 1232 C 566 1208 530 1175 502 1131 C 474 1087 453 1034 439 971 C 425 908 418 838 418 760 C 418 680 425 608 441 544 C 456 479 479 424 509 380 C 539 335 577 300 623 276 C 669 252 722 240 782 240 C 826 240 866 246 902 260 C 938 273 969 291 997 315 C 1025 339 1049 367 1069 400 C 1089 433 1105 469 1118 508 L 1405 408 C 1382 343 1353 284 1318 230 C 1283 176 1241 129 1191 91 C 1141 53 1082 23 1014 2 C 946 -18 869 -29 782 -29 Z" unicode="C" />
<glyph horiz-adv-x="1516" d="M 621 0 L 156 0 L 156 1516 L 621 1516 C 735 1516 842 1502 942 1476 C 1042 1450 1128 1407 1200 1348 C 1272 1289 1328 1212 1370 1116 C 1411 1020 1432 903 1432 766 C 1432 624 1411 504 1369 406 C 1327 308 1269 229 1197 169 C 1125 109 1039 66 940 40 C 840 13 734 0 621 0 Z M 487 1237 L 487 270 L 643 270 C 807 270 923 309 993 387 C 1063 465 1098 590 1098 762 C 1098 922 1062 1042 992 1120 C 922 1198 804 1237 639 1237 L 487 1237 Z" unicode="D" />
<glyph horiz-adv-x="1296" d="M 1225 0 L 156 0 L 156 1516 L 1188 1516 L 1188 1237 L 489 1237 L 489 911 L 1032 911 L 1081 647 L 489 647 L 489 270 L 1225 270 L 1225 0 Z" unicode="E" />
<glyph horiz-adv-x="1214" d="M 489 0 L 156 0 L 156 1516 L 1157 1516 L 1157 1237 L 489 1237 L 489 868 L 981 868 L 1030 604 L 489 604 L 489 0 Z" unicode="F" />
<glyph horiz-adv-x="1559" d="M 741 -29 C 628 -29 530 -9 447 31 C 364 71 296 126 243 196 C 189 266 149 349 123 447 C 97 544 84 650 84 764 C 84 882 100 989 132 1086 C 164 1182 209 1264 268 1332 C 327 1399 399 1451 484 1488 C 568 1525 663 1544 768 1544 C 824 1544 882 1537 941 1525 C 999 1512 1055 1491 1109 1463 C 1162 1435 1212 1397 1258 1351 C 1304 1305 1343 1248 1376 1182 L 1094 1055 C 1065 1118 1024 1169 972 1209 C 920 1248 857 1268 784 1268 C 750 1268 712 1262 670 1250 C 628 1238 588 1214 551 1179 C 514 1143 483 1093 458 1027 C 432 961 420 876 420 770 C 420 664 431 577 454 508 C 477 439 506 385 542 346 C 578 306 617 279 661 263 C 704 247 746 240 786 240 C 868 240 937 264 992 313 C 1047 362 1082 428 1098 512 L 858 512 L 809 760 L 1415 760 L 1415 0 L 1147 0 L 1147 168 L 1143 168 C 1112 112 1061 65 990 27 C 919 -10 836 -29 741 -29 Z" unicode="G" />
<glyph horiz-adv-x="1575" d="M 489 0 L 156 0 L 156 1516 L 489 1516 L 489 928 L 1085 928 L 1085 1516 L 1419 1516 L 1419 0 L 1085 0 L 1085 647 L 489 647 L 489 0 Z" unicode="H" />
<glyph horiz-adv-x="676" d="M 504 0 L 172 0 L 172 1516 L 504 1516 L 504 0 Z" unicode="I" />
<glyph horiz-adv-x="1096" d="M 463 -29 C 413 -29 367 -25 325 -17 C 283 -9 245 2 211 16 C 177 30 145 46 117 64 C 89 82 63 101 41 121 L 184 365 C 220 332 260 303 304 277 C 348 251 396 238 446 238 C 505 238 551 258 585 298 C 618 338 635 404 635 498 L 635 1516 L 969 1516 L 969 446 C 969 376 959 311 940 253 C 921 194 891 144 851 102 C 811 60 758 28 694 5 C 630 -17 553 -29 463 -29 Z" unicode="J" />
<glyph horiz-adv-x="1470" d="M 489 0 L 156 0 L 156 1516 L 489 1516 L 489 889 L 997 1516 L 1386 1516 L 872 924 L 1446 25 L 1098 -25 L 655 672 L 489 485 L 489 0 Z" unicode="K" />
<glyph horiz-adv-x="1200" d="M 1182 0 L 156 0 L 156 1516 L 489 1516 L 489 270 L 1133 270 L 1182 0 Z" unicode="L" />
<glyph horiz-adv-x="1860" d="M 455 0 L 156 0 L 156 1516 L 596 1516 L 934 401 L 938 401 L 1253 1516 L 1704 1516 L 1704 0 L 1382 0 L 1382 1034 L 1378 1034 C 1367 968 1354 909 1340 857 C 1326 805 1310 751 1294 696 L 1067 0 L 772 0 L 547 696 C 538 724 530 751 523 775 C 515 799 508 825 502 851 C 495 877 488 906 481 938 C 474 970 467 1007 459 1051 L 455 1051 L 455 0 Z" unicode="M" />
<glyph horiz-adv-x="1591" d="M 463 0 L 156 0 L 156 1516 L 489 1516 L 1124 549 L 1128 549 L 1128 1516 L 1436 1516 L 1436 0 L 1128 0 L 467 975 L 463 975 L 463 0 Z" unicode="N" />
<glyph horiz-adv-x="1597" d="M 799 -29 C 707 -29 618 -12 532 19 C 446 51 370 100 304 165 C 238 229 184 311 144 410 C 104 509 84 625 84 758 C 84 890 104 1006 144 1105 C 184 1203 238 1285 304 1350 C 370 1415 446 1464 532 1496 C 618 1528 707 1544 799 1544 C 889 1544 978 1528 1064 1496 C 1150 1464 1225 1415 1291 1350 C 1357 1285 1410 1203 1450 1105 C 1490 1006 1511 890 1511 758 C 1511 625 1490 509 1450 410 C 1410 311 1357 229 1291 165 C 1225 100 1150 51 1064 19 C 978 -12 889 -29 799 -29 Z M 799 240 C 857 240 909 252 957 276 C 1004 300 1044 335 1077 380 C 1109 424 1135 479 1153 543 C 1171 607 1180 678 1180 758 C 1180 836 1171 907 1153 971 C 1135 1034 1109 1087 1077 1131 C 1044 1175 1004 1208 957 1232 C 909 1256 857 1268 799 1268 C 740 1268 687 1256 640 1232 C 592 1208 552 1175 520 1131 C 487 1087 462 1034 444 971 C 426 907 418 836 418 758 C 418 678 426 607 444 543 C 462 479 487 424 520 380 C 552 335 592 300 640 276 C 687 252 740 240 799 240 Z" unicode="O" />
<glyph horiz-adv-x="1384" d="M 487 0 L 156 0 L 156 1516 L 707 1516 C 787 1516 865 1509 940 1496 C 1014 1482 1080 1458 1137 1423 C 1193 1387 1239 1338 1273 1274 C 1307 1210 1325 1129 1325 1030 C 1325 928 1306 846 1270 782 C 1233 718 1185 668 1127 632 C 1069 596 1002 571 927 558 C 852 545 777 539 702 539 L 487 539 L 487 0 Z M 487 1243 L 487 797 L 715 797 C 817 797 890 816 934 855 C 977 894 999 950 999 1022 C 999 1092 977 1146 935 1185 C 892 1223 819 1243 715 1243 L 487 1243 Z" unicode="P" />
<glyph horiz-adv-x="1597" d="M 1341 -406 L 1106 -406 C 1029 -406 960 -395 899 -375 C 838 -355 786 -327 744 -292 C 702 -256 669 -214 646 -165 C 622 -115 610 -62 608 -4 C 535 12 466 41 402 82 C 338 122 282 174 235 237 C 187 300 150 375 123 463 C 95 550 82 648 82 758 C 82 890 102 1006 142 1105 C 182 1203 236 1285 302 1350 C 368 1415 444 1464 530 1496 C 616 1528 705 1544 797 1544 C 887 1544 976 1528 1062 1496 C 1148 1464 1223 1415 1289 1350 C 1355 1285 1408 1203 1448 1105 C 1488 1006 1509 890 1509 758 C 1509 644 1494 542 1464 453 C 1434 363 1393 287 1342 223 C 1291 159 1231 107 1163 68 C 1095 28 1022 2 946 -12 C 956 -42 971 -66 991 -84 C 1011 -101 1034 -114 1061 -122 C 1088 -130 1119 -136 1153 -138 C 1187 -140 1224 -141 1262 -141 L 1391 -141 L 1341 -406 Z M 797 240 C 855 240 907 252 954 276 C 1001 300 1041 335 1074 380 C 1106 424 1131 479 1149 543 C 1167 607 1176 678 1176 758 C 1176 836 1167 907 1149 971 C 1131 1034 1106 1087 1074 1131 C 1041 1175 1001 1208 954 1232 C 907 1256 855 1268 797 1268 C 738 1268 685 1256 637 1232 C 589 1208 549 1175 517 1131 C 484 1087 459 1034 441 971 C 423 907 414 836 414 758 C 414 678 423 607 441 543 C 459 479 484 424 517 380 C 549 335 589 300 637 276 C 685 252 738 240 797 240 Z" unicode="Q" />
<glyph horiz-adv-x="1444" d="M 483 0 L 156 0 L 156 1516 L 725 1516 C 817 1516 901 1507 975 1489 C 1049 1471 1111 1444 1162 1407 C 1213 1369 1252 1321 1280 1261 C 1307 1201 1321 1130 1321 1047 C 1321 927 1293 833 1239 764 C 1184 694 1106 644 1006 614 L 1350 25 L 1026 -25 L 676 571 L 483 571 L 483 0 Z M 483 1243 L 483 829 L 711 829 C 806 829 877 844 924 876 C 971 908 995 962 995 1038 C 995 1112 971 1165 924 1196 C 877 1227 806 1243 711 1243 L 483 1243 Z" unicode="R" />
<glyph horiz-adv-x="1417" d="M 735 -29 C 663 -29 596 -21 532 -7 C 468 7 409 27 354 52 C 299 77 248 106 201 139 C 154 171 112 206 74 242 L 248 465 C 275 436 307 408 345 380 C 382 352 422 328 464 307 C 506 285 549 268 594 255 C 639 242 683 236 725 236 C 765 236 801 239 835 247 C 869 254 898 265 922 279 C 946 293 964 311 978 333 C 992 355 999 380 999 410 C 999 466 972 510 920 541 C 867 571 791 601 692 629 C 624 647 557 667 491 688 C 425 709 366 736 314 769 C 262 802 219 844 187 896 C 155 947 139 1012 139 1092 C 139 1162 152 1225 179 1281 C 206 1337 244 1385 292 1424 C 340 1462 397 1492 465 1513 C 532 1533 606 1544 686 1544 C 744 1544 800 1538 855 1526 C 910 1514 962 1498 1012 1478 C 1061 1458 1108 1434 1152 1408 C 1196 1381 1236 1353 1272 1325 L 1118 1087 C 1090 1110 1060 1133 1026 1155 C 992 1177 956 1197 919 1215 C 882 1232 844 1246 806 1256 C 767 1266 730 1272 694 1272 C 620 1272 564 1257 524 1229 C 484 1201 465 1164 465 1120 C 465 1090 472 1064 486 1042 C 500 1020 520 1001 546 985 C 572 969 605 954 644 941 C 682 928 726 915 776 901 C 842 883 908 863 974 841 C 1040 819 1098 790 1150 756 C 1202 722 1244 679 1276 627 C 1308 575 1325 510 1325 432 C 1325 371 1313 313 1289 257 C 1265 201 1228 152 1180 110 C 1132 68 1070 34 996 9 C 922 -16 835 -29 735 -29 Z" unicode="S" />
<glyph horiz-adv-x="1327" d="M 829 0 L 496 0 L 496 1237 L 45 1237 L 45 1516 L 1257 1516 L 1307 1237 L 829 1237 L 829 0 Z" unicode="T" />
<glyph horiz-adv-x="1485" d="M 743 -25 C 638 -25 547 -10 470 17 C 392 45 329 86 279 138 C 229 190 191 254 167 329 C 143 404 131 488 131 580 L 131 1516 L 465 1516 L 465 588 C 465 479 487 395 532 335 C 576 275 648 246 748 246 C 845 246 916 275 960 334 C 1004 393 1026 478 1026 588 L 1026 1516 L 1354 1516 L 1354 582 C 1354 489 1341 405 1317 330 C 1293 254 1256 190 1206 138 C 1156 86 1093 45 1016 17 C 938 -10 847 -25 743 -25 Z" unicode="U" />
<glyph horiz-adv-x="1430" d="M 872 -6 L 557 -6 L 43 1491 L 365 1540 L 719 432 L 723 432 L 1081 1516 L 1395 1516 L 872 -6 Z" unicode="V" />
<glyph horiz-adv-x="1958" d="M 735 0 L 446 0 L 49 1491 L 373 1540 L 539 825 C 553 770 566 717 578 666 C 590 615 602 558 612 494 L 616 494 C 625 556 636 612 648 664 C 660 716 672 769 686 823 L 840 1516 L 1147 1516 L 1311 819 C 1317 789 1324 761 1331 736 C 1337 711 1343 686 1349 662 C 1355 637 1360 611 1366 584 C 1372 557 1377 527 1382 494 L 1386 494 C 1391 528 1396 558 1401 584 C 1406 610 1411 635 1417 659 C 1422 683 1428 707 1434 732 C 1440 756 1446 784 1454 815 L 1608 1516 L 1915 1516 L 1520 0 L 1235 0 L 995 1055 L 991 1055 L 735 0 Z" unicode="W" />
<glyph horiz-adv-x="1485" d="M 418 0 L 66 0 L 551 801 L 123 1491 L 473 1540 L 756 1059 L 1014 1516 L 1360 1516 L 928 799 L 1405 25 L 1065 -25 L 731 532 L 418 0 Z" unicode="X" />
<glyph horiz-adv-x="1415" d="M 872 0 L 541 0 L 541 643 L 33 1491 L 348 1540 L 709 926 L 1057 1516 L 1397 1516 L 872 643 L 872 0 Z" unicode="Y" />
<glyph horiz-adv-x="1352" d="M 1296 0 L 61 0 L 61 229 L 852 1239 L 137 1239 L 88 1516 L 1272 1516 L 1272 1278 L 498 270 L 1247 270 L 1296 0 Z" unicode="Z" />
<glyph horiz-adv-x="909" d="M 850 -410 L 141 -410 L 141 1516 L 850 1516 L 850 1286 L 473 1286 L 473 -180 L 850 -180 L 850 -410 Z" unicode="[" />
<glyph horiz-adv-x="1251" d="M 1235 0 L 897 0 L 16 1516 L 354 1516 L 1235 0 Z" unicode="\" />
<glyph horiz-adv-x="909" d="M 766 -410 L 57 -410 L 57 -180 L 434 -180 L 434 1286 L 57 1286 L 57 1516 L 766 1516 L 766 -410 Z" unicode="]" />
<glyph horiz-adv-x="1323" d="M 100 668 L 578 1516 L 756 1516 L 1231 668 L 963 668 L 666 1184 L 371 668 L 100 668 Z" unicode="^" />
<glyph horiz-adv-x="1024" d="M 1024 -324 L 0 -324 L 0 -94 L 1024 -94 L 1024 -324 Z" unicode="_" />
<glyph horiz-adv-x="1024" d="M 504 1208 L 201 1563 L 530 1563 L 721 1208 L 504 1208 Z" unicode="`" />
<glyph horiz-adv-x="1182" d="M 496 231 C 552 231 601 239 642 257 C 683 275 717 298 745 326 L 745 528 C 615 515 521 492 463 460 C 404 427 375 386 375 336 C 375 301 386 275 408 257 C 430 239 460 231 496 231 Z M 365 -16 C 323 -16 283 -9 245 4 C 207 17 174 36 146 61 C 117 86 94 117 78 154 C 61 190 53 232 53 279 C 53 403 108 501 220 573 C 332 644 507 689 745 709 L 745 735 C 745 775 732 806 707 830 C 682 854 640 866 582 866 C 520 866 463 853 411 828 C 358 802 309 772 264 737 L 86 915 C 112 939 143 964 178 988 C 212 1012 252 1033 296 1052 C 340 1070 389 1085 445 1097 C 500 1108 561 1114 629 1114 C 783 1114 894 1077 963 1005 C 1032 932 1067 826 1067 686 L 1067 0 L 770 0 L 745 160 C 695 104 639 60 577 30 C 515 0 445 -16 365 -16 Z" unicode="a" />
<glyph horiz-adv-x="1278" d="M 786 -16 C 712 -16 649 -3 596 22 C 542 47 495 83 455 129 L 430 0 L 125 0 L 125 1491 L 455 1540 L 455 924 C 472 948 492 972 514 995 C 536 1018 561 1038 589 1056 C 616 1074 646 1088 680 1098 C 714 1108 751 1114 791 1114 C 852 1114 908 1102 960 1078 C 1012 1054 1056 1018 1093 971 C 1129 924 1158 865 1179 794 C 1199 723 1210 641 1210 547 C 1210 453 1199 370 1179 300 C 1158 229 1129 170 1092 124 C 1054 77 1009 42 957 19 C 905 -4 848 -16 786 -16 Z M 674 231 C 742 231 793 258 828 313 C 863 368 881 445 881 545 C 881 635 864 707 830 761 C 796 815 743 842 670 842 C 628 842 588 831 551 809 C 514 787 482 763 455 735 L 455 332 C 490 298 524 272 558 256 C 591 239 630 231 674 231 Z" unicode="b" />
<glyph horiz-adv-x="1137" d="M 602 -23 C 538 -23 474 -13 410 6 C 346 26 288 58 238 102 C 187 146 146 204 114 277 C 82 350 66 439 66 545 C 66 653 83 744 118 818 C 152 891 196 949 250 993 C 304 1036 363 1067 428 1086 C 493 1104 556 1114 616 1114 C 664 1114 712 1108 759 1097 C 805 1085 849 1068 890 1045 C 930 1021 967 991 1001 955 C 1034 918 1062 875 1085 825 L 846 702 C 820 762 789 805 753 832 C 717 858 671 872 616 872 C 548 872 494 844 454 788 C 414 732 395 651 395 543 C 395 494 399 449 407 408 C 415 367 428 332 446 303 C 464 273 487 250 515 234 C 543 217 578 209 618 209 C 675 209 724 226 765 261 C 806 295 840 344 868 406 L 1112 285 C 1086 229 1054 182 1017 143 C 980 104 940 72 896 48 C 852 23 805 5 755 -6 C 705 -17 654 -23 602 -23 Z" unicode="c" />
<glyph horiz-adv-x="1278" d="M 608 231 C 650 231 689 242 726 264 C 762 286 794 310 821 338 L 821 741 C 785 775 751 800 718 817 C 684 833 646 842 604 842 C 536 842 484 816 448 764 C 412 712 395 637 395 539 C 395 493 399 452 407 414 C 415 376 428 343 446 316 C 463 289 485 268 512 253 C 539 238 571 231 608 231 Z M 485 -16 C 423 -16 367 -4 315 17 C 263 39 219 73 183 119 C 146 164 117 221 97 291 C 76 361 66 443 66 537 C 66 630 76 713 97 785 C 117 857 146 918 184 966 C 221 1014 266 1051 318 1076 C 370 1101 427 1114 489 1114 C 562 1114 626 1100 681 1074 C 735 1047 782 1007 821 954 L 821 1491 L 1151 1540 L 1151 0 L 846 0 L 821 164 C 803 139 783 116 761 94 C 739 72 714 53 687 37 C 659 21 629 8 595 -1 C 561 -11 525 -16 485 -16 Z" unicode="d" />
<glyph horiz-adv-x="1182" d="M 623 -23 C 552 -23 483 -13 416 6 C 348 26 289 58 237 102 C 185 146 144 205 113 278 C 81 351 66 440 66 545 C 66 650 84 739 120 812 C 156 885 201 944 255 988 C 309 1032 369 1064 433 1084 C 497 1104 558 1114 614 1114 C 670 1114 727 1105 787 1088 C 847 1071 901 1040 949 995 C 997 950 1037 888 1069 809 C 1100 730 1116 629 1116 506 L 1116 457 L 393 457 C 401 367 429 302 475 264 C 521 226 579 207 647 207 C 711 207 772 219 831 244 C 890 268 938 297 975 330 L 1098 141 C 1034 87 963 46 884 18 C 804 -9 717 -23 623 -23 Z M 397 651 L 821 651 C 813 727 791 784 756 822 C 721 860 673 879 612 879 C 561 879 516 860 476 824 C 436 788 409 730 397 651 Z" unicode="e" />
<glyph horiz-adv-x="829" d="M 551 0 L 223 0 L 223 852 L 41 852 L 41 1092 L 223 1092 L 223 1167 C 223 1212 227 1256 237 1300 C 246 1343 264 1381 291 1414 C 318 1447 356 1474 406 1494 C 456 1514 521 1524 602 1524 C 618 1524 637 1523 657 1522 C 677 1521 696 1520 714 1518 C 732 1516 749 1515 763 1513 C 777 1511 786 1510 791 1509 L 809 1274 C 798 1278 782 1281 761 1284 C 739 1286 721 1288 705 1288 C 685 1288 665 1286 647 1284 C 628 1281 612 1275 598 1266 C 584 1257 572 1244 564 1227 C 555 1209 551 1186 551 1157 L 551 1092 L 788 1092 L 788 852 L 551 852 L 551 0 Z" unicode="f" />
<glyph horiz-adv-x="1260" d="M 578 516 C 638 516 684 534 716 572 C 748 609 764 655 764 711 C 764 738 760 763 752 787 C 744 811 732 831 716 849 C 700 866 681 880 658 890 C 635 900 608 905 578 905 C 548 905 521 900 498 890 C 474 880 455 866 439 849 C 423 831 411 811 403 787 C 395 763 391 738 391 711 C 391 655 407 609 440 572 C 472 534 518 516 578 516 Z M 555 -410 C 449 -410 359 -404 287 -393 C 214 -381 156 -365 112 -344 C 68 -323 37 -297 18 -267 C 0 -236 -10 -202 -10 -164 C -10 -137 -4 -112 5 -90 C 15 -68 29 -48 46 -30 C 63 -12 83 4 106 18 C 129 32 153 45 178 55 C 154 70 136 88 123 110 C 110 132 104 157 104 186 C 104 230 119 272 151 310 C 182 348 219 382 262 410 C 202 444 157 488 127 543 C 97 597 82 657 82 723 C 82 777 92 828 114 876 C 136 924 167 965 209 1000 C 251 1035 302 1063 363 1083 C 424 1103 494 1114 573 1114 C 653 1114 724 1103 786 1082 C 848 1060 899 1031 940 995 C 957 1010 976 1024 998 1037 C 1020 1050 1042 1062 1065 1072 C 1088 1082 1111 1090 1134 1096 C 1157 1102 1179 1106 1200 1108 L 1241 856 C 1219 856 1190 854 1154 852 C 1118 849 1078 842 1036 831 C 1042 817 1047 800 1051 782 C 1055 764 1057 744 1057 723 C 1057 668 1046 617 1025 569 C 1004 521 973 480 933 446 C 892 411 841 384 781 364 C 720 344 651 334 573 334 C 542 334 513 335 485 339 C 457 343 430 347 406 352 C 394 343 385 334 379 325 C 372 316 369 307 369 297 C 369 276 379 262 400 256 C 421 250 452 246 492 244 L 655 233 C 841 226 976 198 1058 150 C 1140 101 1182 26 1182 -76 C 1182 -132 1166 -181 1135 -223 C 1103 -265 1060 -299 1005 -327 C 949 -355 883 -375 806 -389 C 728 -403 645 -410 555 -410 Z M 608 -244 C 650 -244 688 -241 723 -236 C 758 -231 788 -224 813 -214 C 838 -204 858 -193 872 -179 C 886 -165 893 -149 893 -131 C 893 -114 889 -99 883 -87 C 877 -74 864 -63 844 -55 C 824 -46 794 -39 756 -33 C 717 -27 666 -23 602 -20 L 430 -12 C 418 -11 405 -10 393 -9 C 381 -7 369 -6 358 -6 C 337 -19 322 -34 312 -51 C 302 -68 297 -86 297 -104 C 297 -151 321 -186 369 -209 C 417 -232 497 -244 608 -244 Z" unicode="g" />
<glyph horiz-adv-x="1266" d="M 455 0 L 125 0 L 125 1491 L 455 1540 L 455 920 C 471 941 490 963 514 986 C 538 1009 565 1030 596 1049 C 626 1067 661 1083 701 1095 C 740 1107 783 1114 831 1114 C 877 1114 920 1108 960 1096 C 999 1084 1033 1065 1061 1040 C 1089 1014 1111 981 1127 941 C 1143 901 1151 853 1151 797 L 1151 0 L 821 0 L 821 692 C 821 741 811 778 791 804 C 771 829 738 842 694 842 C 649 842 607 831 568 811 C 528 791 491 765 455 733 L 455 0 Z" unicode="h" />
<glyph horiz-adv-x="602" d="M 299 1198 C 269 1198 242 1202 219 1211 C 196 1220 177 1232 162 1247 C 146 1262 135 1280 127 1300 C 119 1320 115 1341 115 1364 C 115 1410 130 1449 162 1481 C 193 1513 239 1530 299 1530 C 360 1530 407 1513 439 1481 C 471 1449 487 1410 487 1364 C 487 1341 483 1320 475 1300 C 467 1280 455 1262 439 1247 C 423 1232 404 1220 380 1211 C 356 1202 329 1198 299 1198 Z M 465 0 L 137 0 L 137 1092 L 465 1092 L 465 0 Z" unicode="i" />
<glyph horiz-adv-x="602" d="M 299 1198 C 269 1198 242 1202 219 1211 C 196 1220 177 1232 162 1247 C 146 1262 135 1280 127 1300 C 119 1320 115 1341 115 1364 C 115 1410 130 1449 162 1481 C 193 1513 239 1530 299 1530 C 360 1530 407 1513 439 1481 C 471 1449 487 1410 487 1364 C 487 1341 483 1320 475 1300 C 467 1280 455 1262 439 1247 C 423 1232 404 1220 380 1211 C 356 1202 329 1198 299 1198 Z M 111 -416 C 90 -416 70 -415 50 -414 C 30 -413 11 -412 -6 -411 C -23 -409 -38 -408 -52 -406 C -65 -404 -75 -403 -82 -401 L -100 -172 C -89 -174 -73 -177 -53 -180 C -32 -182 -13 -184 4 -184 C 48 -184 82 -172 104 -149 C 126 -125 137 -87 137 -35 L 137 1092 L 465 1092 L 465 -43 C 465 -88 461 -133 453 -178 C 445 -222 429 -262 405 -297 C 381 -332 345 -361 298 -383 C 251 -405 189 -416 111 -416 Z" unicode="j" />
<glyph horiz-adv-x="1198" d="M 455 0 L 125 0 L 125 1491 L 455 1540 L 455 684 L 795 1092 L 1149 1092 L 793 684 L 1176 25 L 862 -25 L 588 444 L 455 295 L 455 0 Z" unicode="k" />
<glyph horiz-adv-x="602" d="M 465 0 L 137 0 L 137 1491 L 465 1540 L 465 0 Z" unicode="l" />
<glyph horiz-adv-x="1909" d="M 455 0 L 125 0 L 125 1092 L 430 1092 L 455 920 C 471 941 490 963 514 986 C 537 1009 564 1030 594 1049 C 624 1067 657 1083 694 1095 C 730 1107 770 1114 813 1114 C 903 1114 972 1096 1019 1061 C 1065 1025 1096 978 1112 920 C 1128 940 1148 962 1172 985 C 1195 1008 1222 1029 1252 1048 C 1282 1067 1315 1083 1352 1095 C 1389 1107 1429 1114 1473 1114 C 1527 1114 1575 1105 1615 1089 C 1655 1072 1689 1049 1715 1020 C 1741 990 1760 955 1773 914 C 1785 873 1792 828 1792 780 L 1792 0 L 1462 0 L 1462 692 C 1462 741 1454 778 1438 804 C 1422 829 1391 842 1343 842 C 1303 842 1265 831 1230 811 C 1195 791 1160 765 1124 733 L 1124 0 L 795 0 L 795 692 C 795 741 787 778 771 804 C 755 829 724 842 676 842 C 635 842 597 831 562 811 C 526 791 491 765 455 733 L 455 0 Z" unicode="m" />
<glyph horiz-adv-x="1266" d="M 457 0 L 127 0 L 127 1092 L 432 1092 L 457 920 C 473 941 492 963 516 986 C 540 1009 567 1030 598 1049 C 629 1067 664 1083 704 1095 C 743 1107 786 1114 834 1114 C 880 1114 922 1108 961 1096 C 1000 1084 1033 1065 1061 1040 C 1089 1014 1111 981 1127 941 C 1143 901 1151 853 1151 797 L 1151 0 L 823 0 L 823 692 C 823 741 813 778 793 804 C 773 829 740 842 694 842 C 650 842 608 831 569 811 C 530 791 493 765 457 733 L 457 0 Z" unicode="n" />
<glyph horiz-adv-x="1247" d="M 625 -23 C 559 -23 492 -13 426 6 C 359 26 299 58 246 102 C 193 146 150 204 116 277 C 82 350 66 439 66 545 C 66 651 82 741 116 814 C 149 887 192 946 245 990 C 298 1034 358 1065 425 1085 C 491 1104 558 1114 625 1114 C 691 1114 757 1104 823 1085 C 889 1065 949 1034 1002 990 C 1055 946 1098 887 1132 814 C 1165 741 1182 651 1182 545 C 1182 439 1165 350 1132 277 C 1098 204 1055 146 1002 102 C 949 58 889 26 823 6 C 757 -13 691 -23 625 -23 Z M 625 209 C 663 209 697 217 726 233 C 754 249 778 272 797 301 C 815 330 829 365 838 407 C 847 448 852 493 852 543 C 852 588 847 631 839 671 C 831 711 817 745 799 775 C 781 805 757 828 729 846 C 700 863 665 872 625 872 C 585 872 551 864 522 848 C 493 832 469 809 451 781 C 432 752 418 717 409 677 C 399 636 395 591 395 543 C 395 497 399 454 407 414 C 415 373 429 337 447 307 C 465 277 488 253 518 235 C 547 217 583 209 625 209 Z" unicode="o" />
<glyph horiz-adv-x="1278" d="M 674 231 C 742 231 793 258 828 313 C 863 368 881 445 881 545 C 881 635 864 707 830 761 C 796 815 743 842 670 842 C 628 842 588 831 551 809 C 514 787 482 763 455 735 L 455 332 C 490 298 524 272 558 256 C 591 239 630 231 674 231 Z M 455 -385 L 125 -434 L 125 1092 L 430 1092 L 455 926 C 472 950 492 974 514 997 C 536 1019 561 1039 589 1057 C 616 1074 646 1088 680 1098 C 714 1108 751 1114 791 1114 C 852 1114 908 1102 960 1078 C 1012 1054 1056 1018 1093 971 C 1129 924 1158 865 1179 794 C 1199 723 1210 641 1210 547 C 1210 453 1199 370 1179 300 C 1158 229 1129 170 1092 124 C 1054 77 1009 42 957 19 C 905 -4 848 -16 786 -16 C 712 -16 649 -3 596 22 C 542 47 495 83 455 129 L 455 -385 Z" unicode="p" />
<glyph horiz-adv-x="1278" d="M 821 -434 L 821 156 C 803 133 783 111 761 91 C 739 70 714 52 687 36 C 659 20 629 8 595 -1 C 561 -11 525 -16 485 -16 C 423 -16 367 -4 315 17 C 263 39 219 73 183 119 C 146 164 117 221 97 291 C 76 361 66 443 66 537 C 66 630 76 713 97 785 C 117 857 146 918 184 966 C 221 1014 266 1051 318 1076 C 370 1101 427 1114 489 1114 C 562 1114 625 1101 679 1075 C 733 1049 780 1009 821 956 L 846 1092 L 1151 1092 L 1151 -385 L 821 -434 Z M 608 231 C 650 231 689 242 726 264 C 762 286 794 310 821 338 L 821 741 C 785 775 751 800 718 817 C 684 833 646 842 604 842 C 536 842 484 816 448 764 C 412 712 395 637 395 539 C 395 493 399 452 407 414 C 415 376 428 343 446 316 C 463 289 485 268 512 253 C 539 238 571 231 608 231 Z" unicode="q" />
<glyph horiz-adv-x="866" d="M 455 0 L 125 0 L 125 1092 L 430 1092 L 455 909 L 457 909 C 471 931 489 955 509 979 C 529 1003 554 1025 582 1045 C 610 1065 642 1081 680 1094 C 717 1107 760 1114 809 1114 L 817 1114 L 848 821 C 834 823 821 824 809 824 C 797 824 784 825 772 825 C 692 825 627 810 577 782 C 527 753 486 718 455 678 L 455 0 Z" unicode="r" />
<glyph horiz-adv-x="1094" d="M 555 -23 C 500 -23 448 -18 400 -10 C 352 -1 307 10 265 24 C 223 38 185 55 149 74 C 113 92 80 112 51 133 L 162 326 C 188 307 217 289 249 273 C 281 256 314 241 348 229 C 382 216 416 206 452 199 C 487 191 521 188 555 188 C 605 188 647 196 680 214 C 712 232 729 259 729 295 C 729 333 713 361 681 379 C 649 397 596 412 522 426 C 470 435 419 446 368 459 C 316 471 270 490 230 514 C 190 538 157 571 132 611 C 106 651 94 704 94 768 C 94 822 104 871 126 914 C 147 957 176 993 214 1023 C 252 1052 297 1074 349 1090 C 401 1106 457 1114 518 1114 C 618 1114 706 1102 781 1078 C 855 1054 925 1023 989 985 L 889 788 C 833 822 774 848 714 866 C 653 884 597 893 547 893 C 500 893 464 884 438 867 C 412 849 399 826 399 797 C 399 764 414 739 446 723 C 477 707 526 692 594 680 C 647 670 700 659 753 647 C 806 634 853 616 895 592 C 937 568 971 536 997 497 C 1023 458 1036 408 1036 346 C 1036 280 1022 223 996 177 C 969 130 934 92 890 62 C 846 32 794 11 736 -2 C 678 -16 617 -23 555 -23 Z" unicode="s" />
<glyph horiz-adv-x="874" d="M 584 -14 C 520 -14 464 -8 418 2 C 371 13 332 32 302 58 C 272 84 249 120 235 164 C 220 208 213 262 213 328 L 213 852 L 31 852 L 31 1092 L 213 1092 L 213 1442 L 541 1491 L 541 1092 L 821 1092 L 821 852 L 541 852 L 541 365 C 541 335 544 311 551 293 C 557 275 567 261 579 251 C 591 241 606 234 624 230 C 641 226 660 225 682 225 C 702 225 722 226 741 230 C 760 234 778 238 795 244 L 817 4 C 810 2 798 1 780 -1 C 762 -3 742 -5 720 -7 C 697 -9 673 -10 649 -12 C 625 -13 603 -14 584 -14 Z" unicode="t" />
<glyph horiz-adv-x="1266" d="M 434 -23 C 388 -23 345 -17 306 -5 C 266 7 233 25 205 51 C 177 77 155 110 139 150 C 123 190 115 239 115 295 L 115 1092 L 444 1092 L 444 391 C 444 342 454 305 474 279 C 494 253 527 240 573 240 C 617 240 658 250 697 271 C 736 292 774 318 811 350 L 811 1092 L 1141 1092 L 1141 0 L 836 0 L 811 170 C 794 149 774 127 751 104 C 727 81 700 60 669 42 C 638 23 603 7 564 -4 C 524 -16 481 -23 434 -23 Z" unicode="u" />
<glyph horiz-adv-x="1106" d="M 719 -2 L 387 -2 L 4 1067 L 328 1116 L 565 365 L 569 365 L 799 1092 L 1108 1092 L 719 -2 Z" unicode="v" />
<glyph horiz-adv-x="1587" d="M 627 0 L 324 0 L 12 1067 L 330 1116 L 430 700 C 436 671 443 644 449 619 C 455 594 460 569 466 543 C 472 517 478 490 484 462 C 490 434 496 402 502 367 L 506 367 C 512 402 518 434 524 464 C 530 493 536 521 542 547 C 548 573 554 599 560 625 C 566 651 574 679 582 709 L 676 1092 L 932 1092 L 1032 702 C 1040 673 1047 646 1054 621 C 1060 595 1066 570 1072 544 C 1078 518 1084 491 1090 463 C 1096 434 1102 402 1110 367 L 1114 367 C 1120 401 1127 433 1133 461 C 1139 489 1144 516 1150 542 C 1156 568 1162 593 1168 618 C 1174 643 1182 670 1190 698 L 1290 1092 L 1583 1092 L 1264 0 L 958 0 L 795 666 L 791 666 L 627 0 Z" unicode="w" />
<glyph horiz-adv-x="1122" d="M 354 0 L 23 0 L 397 563 L 66 1067 L 381 1116 L 584 791 L 762 1092 L 1094 1092 L 741 563 L 1094 25 L 782 -25 L 557 330 L 354 0 Z" unicode="x" />
<glyph horiz-adv-x="1147" d="M 297 -418 C 257 -418 220 -416 186 -414 C 152 -411 120 -407 92 -401 L 68 -127 C 92 -133 121 -139 155 -145 C 188 -151 224 -154 262 -154 C 298 -154 327 -146 349 -132 C 371 -117 388 -93 401 -59 L 422 -6 L 14 1067 L 338 1116 L 584 383 L 588 383 L 829 1092 L 1149 1092 L 690 -115 C 671 -161 650 -203 628 -241 C 605 -279 578 -311 548 -337 C 517 -363 481 -383 440 -397 C 399 -411 351 -418 297 -418 Z" unicode="y" />
<glyph horiz-adv-x="1085" d="M 1057 0 L 59 0 L 59 170 L 588 852 L 119 852 L 78 1092 L 995 1092 L 995 918 L 465 233 L 1016 233 L 1057 0 Z" unicode="z" />
<glyph horiz-adv-x="903" d="M 860 -410 L 569 -410 C 522 -410 480 -402 444 -387 C 408 -372 377 -351 353 -325 C 329 -298 310 -266 298 -229 C 285 -191 279 -150 279 -106 L 279 190 C 279 240 274 281 265 313 C 255 345 241 370 223 388 C 204 406 180 419 151 426 C 122 432 89 436 51 436 L 51 670 C 89 670 122 673 151 680 C 180 686 204 699 223 717 C 241 735 255 760 265 792 C 274 824 279 865 279 915 L 279 1212 C 279 1256 285 1297 298 1335 C 310 1372 329 1404 353 1431 C 377 1457 408 1478 444 1493 C 480 1508 522 1516 569 1516 L 860 1516 L 860 1286 L 770 1286 C 714 1286 674 1272 648 1244 C 622 1216 610 1176 610 1124 L 610 870 C 610 820 606 777 598 741 C 590 705 579 675 565 651 C 550 627 532 607 510 592 C 488 576 463 564 436 555 L 436 551 C 463 541 488 529 510 514 C 532 498 550 478 565 454 C 579 430 590 400 598 364 C 606 328 610 286 610 236 L 610 -18 C 610 -70 622 -110 648 -138 C 674 -166 714 -180 770 -180 L 860 -180 L 860 -410 Z" unicode="{" />
<glyph horiz-adv-x="819" d="M 571 -410 L 246 -410 L 246 1516 L 571 1516 L 571 -410 Z" unicode="|" />
<glyph horiz-adv-x="903" d="M 365 -410 L 43 -410 L 43 -180 L 133 -180 C 188 -180 228 -166 254 -138 C 280 -110 293 -70 293 -18 L 293 266 C 293 316 296 357 304 390 C 312 422 323 449 338 470 C 352 490 371 507 393 519 C 415 531 439 541 467 551 L 467 555 C 439 564 415 575 393 587 C 371 599 352 615 338 636 C 323 656 312 683 304 716 C 296 748 293 790 293 840 L 293 1124 C 293 1176 280 1216 255 1245 C 230 1273 190 1288 135 1288 L 45 1288 L 43 1516 L 365 1516 C 458 1516 525 1492 565 1446 C 605 1399 625 1331 625 1243 L 625 915 C 625 865 629 824 639 792 C 648 760 662 735 681 717 C 699 699 723 686 752 680 C 780 673 814 670 852 670 L 852 436 C 814 436 780 432 752 426 C 723 419 699 406 681 388 C 662 370 648 345 639 313 C 629 281 625 240 625 190 L 625 -137 C 625 -225 605 -293 565 -340 C 525 -386 458 -410 365 -410 Z" unicode="}" />
<glyph horiz-adv-x="1323" d="M 932 528 C 887 528 839 535 787 549 C 735 563 685 578 636 594 C 587 610 541 626 499 640 C 457 654 423 661 397 662 C 373 662 354 656 339 644 C 323 632 313 607 309 569 L 117 602 C 129 714 160 794 209 842 C 257 890 317 913 389 913 C 437 912 487 905 539 891 C 591 877 642 861 690 845 C 738 829 783 814 825 800 C 866 786 900 778 926 778 C 949 778 969 784 985 797 C 1001 809 1011 834 1016 872 L 1206 848 C 1193 735 1162 653 1113 602 C 1063 550 1003 526 932 528 Z" unicode="~" />
<glyph horiz-adv-x="551" d="" unicode="" />
<glyph horiz-adv-x="731" d="M 360 1532 C 391 1532 419 1527 444 1518 C 468 1508 489 1496 505 1480 C 521 1464 534 1446 542 1425 C 550 1403 555 1381 555 1358 C 555 1334 550 1311 542 1290 C 534 1269 521 1251 505 1235 C 489 1219 468 1206 444 1197 C 419 1188 391 1184 360 1184 C 328 1184 299 1188 275 1197 C 250 1206 229 1219 213 1235 C 196 1251 183 1269 175 1290 C 166 1311 162 1334 162 1358 C 162 1381 166 1403 175 1425 C 183 1446 196 1464 213 1480 C 229 1496 250 1508 275 1518 C 299 1527 328 1532 360 1532 Z M 233 1036 L 481 1036 L 565 0 L 152 0 L 233 1036 Z" unicode="" />
<glyph horiz-adv-x="1147" d="M 428 291 L 602 879 C 570 877 539 870 511 856 C 483 842 458 821 437 794 C 416 766 399 732 387 690 C 375 648 369 599 369 543 C 369 487 374 437 384 395 C 394 353 408 318 428 291 Z M 256 -264 L 344 35 C 305 55 269 80 235 111 C 201 141 171 177 146 219 C 121 261 101 309 87 363 C 73 417 66 478 66 545 C 66 649 83 738 118 811 C 152 883 196 942 249 987 C 302 1031 361 1064 426 1084 C 491 1104 554 1114 614 1114 C 622 1114 631 1113 639 1113 C 647 1113 654 1112 662 1112 L 719 1307 L 887 1307 L 819 1081 C 857 1067 892 1049 922 1028 C 952 1007 978 983 1000 957 C 1022 931 1041 902 1057 872 C 1073 842 1086 811 1098 780 L 844 688 C 832 724 818 755 800 781 C 782 806 761 826 739 842 L 553 207 C 561 206 569 205 579 204 C 588 203 597 203 606 203 C 628 203 651 206 675 213 C 699 220 721 231 743 247 C 765 263 785 283 804 309 C 823 335 839 366 852 403 L 1102 309 C 1084 267 1062 225 1034 185 C 1006 145 973 109 933 79 C 893 48 845 23 790 5 C 735 -13 672 -23 600 -23 C 582 -23 565 -22 548 -20 C 530 -18 514 -16 498 -14 L 424 -264 L 256 -264 Z" unicode="" />
<glyph horiz-adv-x="1411" d="M 465 684 L 184 684 L 184 862 L 356 862 C 334 900 316 941 301 984 C 286 1027 279 1073 279 1122 C 279 1181 289 1236 311 1288 C 333 1340 363 1384 403 1422 C 443 1460 491 1489 548 1511 C 604 1533 667 1544 737 1544 C 825 1544 899 1532 959 1508 C 1018 1484 1066 1454 1104 1416 C 1141 1378 1170 1335 1190 1287 C 1210 1238 1227 1189 1239 1139 L 952 1077 C 947 1105 940 1132 932 1158 C 923 1184 911 1206 896 1226 C 880 1245 861 1260 838 1272 C 814 1284 786 1290 752 1290 C 704 1290 666 1275 638 1246 C 610 1216 596 1176 596 1124 C 596 1077 606 1033 626 991 C 646 949 668 906 694 862 L 1059 862 L 1059 684 L 782 684 C 793 652 802 618 810 581 C 817 543 821 503 821 461 C 821 423 816 386 808 350 C 799 314 786 280 770 248 C 794 234 819 223 844 215 C 869 207 896 203 924 203 C 948 203 971 206 991 213 C 1011 219 1028 231 1042 247 C 1056 263 1067 286 1075 314 C 1083 342 1088 378 1090 422 L 1370 422 C 1367 366 1360 310 1348 256 C 1336 202 1317 154 1289 112 C 1261 70 1222 36 1173 10 C 1123 -16 1059 -29 981 -29 C 906 -29 841 -17 786 4 C 730 26 681 53 639 84 C 595 49 545 21 491 1 C 436 -18 378 -29 317 -29 C 279 -29 243 -24 208 -15 C 173 -5 142 8 115 28 C 88 48 66 73 50 104 C 33 134 25 171 25 213 C 25 256 33 294 49 328 C 65 361 87 389 114 411 C 141 433 172 450 207 462 C 242 473 278 479 315 479 C 357 479 396 472 433 459 C 469 445 505 428 539 408 C 539 414 538 421 538 427 C 538 433 538 440 538 446 C 535 496 527 538 514 574 C 501 610 485 646 465 684 Z M 481 219 C 453 244 427 265 401 282 C 375 298 349 307 322 307 C 294 307 272 299 256 283 C 240 267 233 246 233 221 C 233 196 241 176 257 160 C 273 144 295 137 324 137 C 358 137 388 144 415 159 C 441 174 463 194 481 219 Z" unicode="" />
<glyph horiz-adv-x="1323" d="M 661 522 C 721 522 770 542 808 583 C 846 623 865 677 865 745 C 865 812 846 866 808 906 C 770 946 721 966 661 966 C 600 966 551 946 513 906 C 475 866 457 812 457 745 C 457 677 475 623 513 583 C 551 542 600 522 661 522 Z M 661 342 C 629 342 598 345 569 351 C 539 357 512 367 487 379 L 290 182 L 99 373 L 294 568 C 281 594 271 621 264 651 C 256 680 253 711 253 744 C 253 776 256 806 263 836 C 269 865 279 892 291 918 L 99 1109 L 290 1300 L 486 1108 C 511 1120 538 1130 568 1136 C 597 1142 628 1146 661 1146 C 692 1146 722 1142 752 1136 C 782 1130 809 1121 835 1110 L 1026 1300 L 1218 1109 L 1030 921 C 1042 895 1052 868 1059 839 C 1065 810 1069 779 1069 747 C 1069 714 1065 683 1058 653 C 1051 623 1041 595 1029 570 L 1222 378 L 1031 186 L 837 380 C 810 367 782 357 753 351 C 723 345 693 342 661 342 Z" unicode="" />
<glyph horiz-adv-x="1401" d="M 866 0 L 532 0 L 532 188 L 166 188 L 166 367 L 532 367 L 532 506 L 166 506 L 166 682 L 526 682 L 29 1516 L 375 1516 L 702 956 L 1030 1516 L 1372 1516 L 870 682 L 1237 682 L 1237 506 L 866 506 L 866 367 L 1237 367 L 1237 188 L 866 188 L 866 0 Z" unicode="" />
<glyph horiz-adv-x="819" d="M 571 678 L 246 678 L 246 1516 L 571 1516 L 571 678 Z M 571 -410 L 246 -410 L 246 428 L 571 428 L 571 -410 Z" unicode="" />
<glyph horiz-adv-x="1194" d="M 725 340 C 753 359 776 381 792 405 C 808 429 817 453 817 479 C 817 503 813 525 806 545 C 799 564 786 583 767 603 C 748 622 721 643 687 665 C 653 687 609 714 555 745 C 539 753 524 762 509 770 C 494 778 480 786 467 795 C 438 775 415 754 399 730 C 383 706 375 681 375 655 C 375 630 378 608 385 589 C 392 569 405 550 424 531 C 443 511 470 490 504 468 C 538 446 583 419 637 389 C 653 381 669 372 683 364 C 697 356 711 348 725 340 Z M 592 -410 C 513 -410 447 -401 393 -384 C 339 -366 294 -344 259 -316 C 223 -288 196 -257 176 -223 C 156 -188 140 -153 129 -119 L 365 -14 C 383 -64 408 -106 441 -141 C 474 -175 520 -193 578 -193 C 606 -193 629 -189 647 -182 C 665 -174 680 -164 690 -152 C 700 -140 708 -126 712 -110 C 716 -94 719 -77 719 -61 C 719 -17 696 22 650 56 C 604 90 543 128 467 170 C 423 194 379 220 336 247 C 293 273 255 303 222 336 C 188 368 161 405 140 447 C 119 489 109 536 109 590 C 109 627 114 662 126 694 C 138 726 153 756 171 782 C 189 808 210 832 234 853 C 257 874 280 892 303 907 C 256 947 222 988 200 1031 C 178 1074 168 1124 168 1180 C 168 1230 177 1277 197 1321 C 216 1365 244 1404 280 1437 C 316 1469 362 1495 416 1515 C 470 1534 531 1544 600 1544 C 679 1544 746 1535 801 1518 C 856 1500 902 1478 938 1451 C 974 1423 1003 1392 1024 1357 C 1044 1322 1060 1287 1071 1253 L 838 1149 C 819 1199 791 1241 755 1275 C 719 1309 672 1327 614 1327 C 557 1327 518 1313 496 1287 C 474 1260 463 1230 463 1196 C 463 1174 469 1153 482 1134 C 495 1115 513 1097 536 1079 C 559 1061 587 1042 619 1024 C 651 1005 687 985 725 965 C 769 940 812 914 855 888 C 898 861 936 831 970 798 C 1003 765 1030 728 1051 687 C 1072 645 1083 598 1083 545 C 1083 507 1077 471 1065 439 C 1053 406 1038 376 1020 350 C 1001 324 980 300 957 279 C 933 257 910 239 887 225 C 933 185 965 144 985 102 C 1004 60 1014 11 1014 -45 C 1014 -95 1004 -142 986 -187 C 968 -231 941 -270 906 -303 C 871 -335 827 -361 774 -381 C 721 -400 660 -410 592 -410 Z" unicode="" />
<glyph horiz-adv-x="1085" d="M 760 1182 C 734 1182 712 1186 692 1195 C 672 1203 655 1215 642 1230 C 629 1245 619 1263 612 1283 C 605 1303 602 1325 602 1348 C 602 1392 615 1431 642 1463 C 669 1495 708 1511 760 1511 C 812 1511 852 1495 880 1463 C 908 1431 922 1392 922 1348 C 922 1325 918 1303 911 1283 C 904 1263 894 1245 880 1230 C 866 1215 850 1203 830 1195 C 810 1186 786 1182 760 1182 Z M 322 1182 C 296 1182 274 1186 254 1195 C 234 1203 217 1215 204 1230 C 191 1245 181 1263 174 1283 C 167 1303 164 1325 164 1348 C 164 1392 177 1431 204 1463 C 231 1495 270 1511 322 1511 C 374 1511 414 1495 442 1463 C 469 1431 483 1392 483 1348 C 483 1325 479 1303 472 1283 C 465 1263 455 1245 442 1230 C 428 1215 412 1203 392 1195 C 372 1186 348 1182 322 1182 Z" unicode="" />
<glyph horiz-adv-x="1776" d="M 885 -29 C 774 -29 671 -8 575 31 C 479 71 396 126 326 196 C 256 266 202 349 162 445 C 122 541 102 644 102 754 C 102 864 122 968 163 1065 C 203 1161 259 1245 329 1315 C 399 1385 483 1441 580 1482 C 676 1523 780 1544 891 1544 C 1001 1544 1103 1523 1199 1483 C 1295 1443 1377 1388 1447 1318 C 1517 1248 1572 1166 1612 1070 C 1652 974 1673 872 1673 762 C 1673 651 1652 547 1612 451 C 1571 354 1515 270 1445 200 C 1374 129 1290 73 1194 32 C 1098 -8 995 -29 885 -29 Z M 891 115 C 980 115 1063 131 1140 163 C 1216 195 1282 240 1338 297 C 1394 353 1437 421 1469 499 C 1500 577 1516 662 1516 754 C 1516 845 1500 930 1468 1010 C 1436 1089 1392 1157 1336 1215 C 1280 1273 1213 1318 1136 1351 C 1058 1384 975 1401 885 1401 C 795 1401 711 1384 635 1352 C 558 1320 492 1275 437 1219 C 381 1162 338 1094 307 1016 C 275 938 260 853 260 762 C 260 670 276 584 308 505 C 340 425 383 357 439 300 C 495 242 561 197 639 164 C 717 131 801 115 891 115 Z M 891 317 C 837 317 787 326 741 346 C 695 366 655 394 622 432 C 588 470 562 516 544 572 C 525 628 516 691 516 762 C 516 831 525 893 543 949 C 561 1004 587 1050 620 1088 C 653 1125 693 1154 741 1174 C 788 1194 840 1204 897 1204 C 978 1204 1046 1186 1100 1151 C 1154 1115 1193 1068 1217 1008 L 1047 920 C 1034 954 1016 981 993 1001 C 970 1021 939 1032 899 1032 C 846 1032 803 1007 770 958 C 737 908 721 843 721 762 C 721 678 737 613 769 565 C 801 517 845 494 899 494 C 935 494 965 503 990 522 C 1015 541 1034 569 1047 606 L 1227 537 C 1200 470 1160 417 1107 377 C 1053 337 981 317 891 317 Z" unicode="" />
<glyph horiz-adv-x="915" d="M 393 913 C 433 913 467 920 495 934 C 523 948 546 964 565 983 L 565 1124 C 470 1115 404 1098 367 1074 C 329 1049 311 1019 311 985 C 311 961 318 943 333 931 C 348 919 368 913 393 913 Z M 301 737 C 271 737 243 741 217 750 C 190 758 167 771 147 788 C 127 804 111 825 99 850 C 87 875 82 904 82 938 C 82 1025 121 1095 199 1149 C 277 1203 399 1236 565 1249 L 565 1268 C 565 1294 557 1316 541 1332 C 525 1348 499 1356 463 1356 C 418 1356 377 1348 339 1334 C 301 1319 266 1300 236 1276 L 115 1395 C 134 1412 156 1429 180 1446 C 204 1462 232 1477 263 1490 C 294 1502 329 1512 368 1520 C 406 1528 450 1532 498 1532 C 602 1532 678 1507 726 1457 C 773 1407 797 1332 797 1233 L 797 754 L 584 754 L 565 862 C 531 823 493 792 449 770 C 405 748 356 737 301 737 Z" unicode="" />
<glyph horiz-adv-x="1296" d="M 702 0 L 389 0 L 49 547 L 389 1092 L 702 1092 L 377 547 L 702 0 Z M 1237 0 L 924 0 L 582 547 L 924 1092 L 1237 1092 L 909 547 L 1237 0 Z" unicode="" />
<glyph horiz-adv-x="1319" d="M 1182 848 L 1182 180 L 922 180 L 922 592 L 137 592 L 137 848 L 1182 848 Z" unicode="" />
<glyph horiz-adv-x="731" d="M 635 532 L 96 532 L 96 754 L 635 754 L 635 532 Z" unicode="" />
<glyph horiz-adv-x="1083" d="M 539 600 C 472 600 410 612 353 636 C 295 660 246 694 204 736 C 162 778 130 827 106 885 C 82 943 70 1005 70 1071 C 70 1137 82 1200 106 1258 C 130 1316 164 1366 206 1409 C 248 1451 299 1485 357 1509 C 415 1533 478 1546 545 1546 C 611 1546 672 1533 730 1509 C 787 1485 836 1452 878 1410 C 920 1368 953 1318 977 1260 C 1001 1202 1014 1141 1014 1075 C 1014 1008 1001 946 977 888 C 953 830 919 779 877 737 C 834 694 784 660 726 636 C 668 612 605 600 539 600 Z M 545 690 C 597 690 647 699 693 719 C 739 738 778 764 811 798 C 844 832 870 872 889 919 C 908 965 918 1016 918 1071 C 918 1125 908 1176 889 1224 C 869 1271 843 1312 809 1346 C 775 1380 735 1408 689 1428 C 643 1448 593 1458 539 1458 C 486 1458 437 1448 391 1429 C 345 1409 305 1383 272 1349 C 239 1315 213 1274 194 1227 C 175 1180 166 1129 166 1075 C 166 1020 175 969 194 922 C 213 875 239 834 273 800 C 307 766 347 739 393 719 C 439 699 490 690 545 690 Z M 354 825 L 354 1341 L 555 1341 C 617 1341 665 1327 701 1299 C 736 1271 754 1228 754 1171 C 754 1131 745 1100 729 1077 C 713 1053 690 1035 662 1022 L 760 836 L 635 819 L 541 1008 L 479 1008 L 479 825 L 354 825 Z M 479 1100 L 547 1100 C 574 1100 595 1105 610 1115 C 625 1125 633 1141 633 1165 C 633 1187 625 1204 610 1215 C 595 1225 574 1231 547 1231 L 479 1231 L 479 1100 Z" unicode="" />
<glyph horiz-adv-x="1024" d="M 172 1196 L 172 1430 L 852 1430 L 852 1196 L 172 1196 Z" unicode="" />
<glyph horiz-adv-x="850" d="M 426 885 C 378 885 333 893 292 909 C 251 925 216 948 186 977 C 156 1006 133 1041 117 1081 C 100 1121 92 1164 92 1212 C 92 1259 100 1303 117 1343 C 133 1383 156 1418 186 1447 C 216 1476 251 1499 292 1515 C 333 1531 378 1540 426 1540 C 473 1540 517 1532 558 1516 C 598 1500 633 1477 663 1449 C 692 1420 715 1385 732 1345 C 749 1305 758 1261 758 1214 C 758 1166 749 1122 732 1082 C 715 1042 692 1007 663 978 C 633 949 598 926 558 910 C 517 893 473 885 426 885 Z M 426 1040 C 472 1040 509 1056 538 1088 C 567 1120 582 1162 582 1214 C 582 1266 567 1307 538 1338 C 509 1368 472 1384 426 1384 C 379 1384 341 1368 312 1338 C 282 1307 268 1266 268 1214 C 268 1162 282 1120 312 1088 C 341 1056 379 1040 426 1040 Z" unicode="" />
<glyph horiz-adv-x="1323" d="M 137 31 L 137 270 L 532 270 L 532 606 L 137 606 L 137 860 L 532 860 L 532 1272 L 791 1272 L 791 860 L 1186 860 L 1186 606 L 791 606 L 791 270 L 1186 270 L 1186 31 L 137 31 Z" unicode="" />
<glyph horiz-adv-x="979" d="M 115 541 L 115 594 C 115 629 117 664 123 700 C 128 736 140 772 160 809 C 180 845 209 882 247 920 C 285 958 336 996 401 1036 C 438 1058 469 1077 494 1093 C 519 1109 539 1123 554 1137 C 568 1150 579 1164 585 1178 C 591 1192 594 1210 594 1231 C 594 1258 585 1279 569 1294 C 552 1309 528 1317 498 1317 C 467 1317 433 1305 395 1282 C 357 1258 322 1221 291 1169 L 113 1298 C 161 1375 217 1434 280 1475 C 342 1515 417 1536 504 1536 C 618 1536 704 1508 761 1454 C 817 1400 846 1327 846 1237 C 846 1209 842 1182 836 1154 C 829 1126 816 1099 798 1072 C 780 1045 755 1018 723 991 C 691 963 650 936 600 909 C 538 875 494 845 468 819 C 442 793 426 771 420 752 L 836 752 L 866 541 L 115 541 Z" unicode="" />
<glyph horiz-adv-x="979" d="M 481 524 C 398 524 322 541 253 575 C 184 609 128 659 84 725 L 244 864 C 279 815 316 782 354 764 C 392 746 427 737 459 737 C 513 737 550 747 572 767 C 593 787 604 813 604 844 C 604 886 588 916 558 934 C 528 952 479 961 412 961 L 334 961 L 334 1143 L 416 1143 C 481 1143 526 1151 550 1169 C 574 1186 586 1209 586 1239 C 586 1263 577 1283 559 1297 C 541 1311 515 1319 481 1319 C 450 1319 416 1312 378 1299 C 340 1286 300 1260 258 1221 L 119 1382 C 173 1435 234 1474 301 1499 C 367 1523 434 1536 502 1536 C 612 1536 697 1512 756 1465 C 814 1417 844 1352 844 1270 C 844 1226 832 1185 810 1147 C 787 1109 750 1081 698 1063 C 761 1043 806 1014 833 974 C 860 934 874 888 874 838 C 874 787 864 742 846 703 C 827 663 801 630 767 604 C 733 578 691 558 643 544 C 594 530 540 524 481 524 Z" unicode="" />
<glyph horiz-adv-x="1024" d="M 303 1208 L 494 1563 L 825 1563 L 520 1208 L 303 1208 Z" unicode="" />
<glyph horiz-adv-x="1276" d="M 125 0 L 125 0 Z M 455 -410 L 125 -410 L 125 1092 L 455 1092 L 455 397 C 455 349 465 312 485 286 C 505 260 538 248 584 248 C 628 248 669 258 708 278 C 747 298 785 325 821 358 L 821 1092 L 1151 1092 L 1151 0 L 821 0 L 821 170 C 793 136 758 102 716 69 C 674 36 623 12 563 -2 C 542 -4 522 -5 504 -5 C 486 -4 469 0 455 6 L 455 -410 Z" unicode="" />
<glyph horiz-adv-x="1307" d="M 809 -410 L 586 -410 L 586 641 C 426 643 303 682 217 758 C 131 833 88 939 88 1075 C 88 1135 98 1192 119 1246 C 139 1300 169 1347 209 1387 C 248 1427 297 1458 356 1481 C 414 1504 481 1516 557 1516 L 1204 1516 L 1204 -410 L 983 -410 L 983 1270 L 809 1270 L 809 -410 Z" unicode="" />
<glyph horiz-adv-x="592" d="M 295 516 C 263 516 235 520 211 530 C 186 539 165 551 149 567 C 133 583 120 601 112 623 C 104 644 100 666 100 690 C 100 714 104 736 112 757 C 120 778 133 797 149 813 C 165 829 186 841 211 850 C 235 859 263 864 295 864 C 327 864 355 859 380 850 C 405 841 426 829 443 813 C 459 797 472 778 481 757 C 489 736 494 714 494 690 C 494 666 489 644 481 623 C 472 601 459 583 443 567 C 426 551 405 539 380 530 C 355 520 327 516 295 516 Z" unicode="" />
<glyph horiz-adv-x="1024" d="M 539 -414 C 477 -414 420 -407 368 -393 C 315 -379 271 -361 236 -338 L 295 -240 C 325 -260 360 -276 400 -286 C 440 -296 477 -301 512 -301 C 543 -301 568 -295 586 -284 C 604 -272 614 -255 614 -231 C 614 -212 607 -198 595 -189 C 583 -180 567 -176 549 -176 C 531 -176 516 -179 502 -185 C 488 -191 475 -199 461 -211 L 379 -170 L 432 0 L 567 0 L 545 -94 C 559 -85 576 -78 598 -72 C 620 -66 646 -63 676 -63 C 695 -63 714 -66 732 -72 C 750 -78 765 -88 779 -100 C 793 -112 804 -127 812 -145 C 820 -163 825 -183 825 -207 C 825 -239 817 -267 802 -293 C 787 -319 767 -340 741 -358 C 715 -376 685 -389 650 -399 C 615 -409 578 -414 539 -414 Z" unicode="" />
<glyph horiz-adv-x="791" d="M 569 537 L 305 537 L 305 1309 L 154 1268 L 121 1448 L 352 1516 L 569 1516 L 569 537 Z" unicode="" />
<glyph horiz-adv-x="954" d="M 477 737 C 431 737 384 743 337 757 C 290 771 248 793 211 824 C 173 855 143 896 119 947 C 95 998 84 1061 84 1135 C 84 1210 95 1273 119 1325 C 143 1376 173 1417 211 1448 C 248 1478 290 1500 337 1514 C 384 1527 431 1534 477 1534 C 523 1534 570 1527 617 1514 C 664 1500 706 1478 744 1448 C 781 1417 811 1376 835 1325 C 858 1273 870 1210 870 1135 C 870 1061 858 998 835 947 C 811 896 781 855 744 824 C 706 793 664 771 617 757 C 570 743 523 737 477 737 Z M 477 905 C 531 905 570 926 596 969 C 622 1012 635 1067 635 1135 C 635 1166 632 1195 626 1223 C 620 1251 611 1275 599 1295 C 586 1315 570 1332 550 1344 C 530 1356 505 1362 477 1362 C 423 1362 383 1341 357 1299 C 331 1257 319 1202 319 1135 C 319 1103 321 1074 327 1046 C 333 1018 342 993 354 973 C 366 952 383 935 403 923 C 423 911 447 905 477 905 Z" unicode="" />
<glyph horiz-adv-x="1296" d="M 375 0 L 61 0 L 387 547 L 61 1092 L 375 1092 L 715 547 L 375 0 Z M 907 0 L 594 0 L 922 547 L 594 1092 L 907 1092 L 1249 547 L 907 0 Z" unicode="" />
<glyph horiz-adv-x="2169" d="M 465 0 L 1370 1516 L 1653 1516 L 748 0 L 465 0 Z M 578 537 L 315 537 L 315 1262 L 170 1237 L 133 1448 L 399 1513 L 578 1513 L 578 537 Z M 1665 0 L 1665 203 L 1225 203 L 1225 369 L 1655 979 L 1927 979 L 1927 406 L 2081 406 L 2081 203 L 1927 203 L 1927 0 L 1665 0 Z M 1468 389 L 1681 389 L 1681 700 L 1468 389 Z" unicode="" />
<glyph horiz-adv-x="2234" d="M 465 0 L 1370 1516 L 1653 1516 L 748 0 L 465 0 Z M 578 537 L 315 537 L 315 1262 L 170 1237 L 133 1448 L 399 1513 L 578 1513 L 578 537 Z M 1374 0 L 1374 53 C 1374 88 1377 123 1383 159 C 1389 194 1401 230 1421 266 C 1441 302 1470 339 1508 377 C 1546 415 1597 455 1661 496 C 1692 515 1719 532 1743 548 C 1766 563 1785 578 1801 592 C 1816 606 1827 621 1835 637 C 1843 653 1847 671 1847 692 C 1847 720 1838 741 1821 755 C 1804 769 1781 776 1753 776 C 1723 776 1690 764 1652 741 C 1614 718 1580 681 1550 629 L 1372 758 C 1420 835 1476 894 1538 934 C 1600 974 1675 995 1763 995 C 1871 995 1955 968 2015 914 C 2075 860 2105 787 2105 696 C 2105 668 2101 641 2095 613 C 2088 585 2076 558 2058 531 C 2040 504 2016 477 1985 450 C 1953 422 1914 395 1866 369 C 1810 337 1767 307 1739 280 C 1710 253 1692 230 1686 211 L 2111 211 L 2111 0 L 1374 0 Z" unicode="" />
<glyph horiz-adv-x="2249" d="M 586 0 L 1491 1516 L 1774 1516 L 868 0 L 586 0 Z M 1745 0 L 1745 203 L 1305 203 L 1305 369 L 1735 979 L 2007 979 L 2007 406 L 2161 406 L 2161 203 L 2007 203 L 2007 0 L 1745 0 Z M 481 524 C 398 524 322 541 253 575 C 184 609 128 659 84 725 L 244 864 C 279 815 316 782 354 764 C 392 746 427 737 459 737 C 513 737 550 747 572 767 C 593 787 604 813 604 844 C 604 886 588 916 558 934 C 528 952 479 961 412 961 L 334 961 L 334 1143 L 416 1143 C 481 1143 526 1151 550 1169 C 574 1186 586 1209 586 1239 C 586 1263 577 1283 559 1297 C 541 1311 515 1319 481 1319 C 450 1319 416 1312 378 1299 C 340 1286 300 1260 258 1221 L 119 1382 C 173 1435 234 1474 301 1499 C 367 1523 434 1536 502 1536 C 612 1536 697 1512 756 1465 C 814 1417 844 1352 844 1270 C 844 1226 832 1185 810 1147 C 787 1109 750 1081 698 1063 C 761 1043 806 1014 833 974 C 860 934 874 888 874 838 C 874 787 864 742 846 703 C 827 663 801 630 767 604 C 733 578 691 558 643 544 C 594 530 540 524 481 524 Z M 1548 389 L 1761 389 L 1761 700 L 1548 389 Z" unicode="" />
<glyph horiz-adv-x="1217" d="M 651 1532 C 682 1532 710 1527 735 1518 C 759 1508 780 1496 796 1480 C 812 1464 825 1446 833 1425 C 841 1403 846 1381 846 1358 C 846 1334 841 1311 833 1290 C 825 1269 812 1251 796 1235 C 780 1219 759 1206 735 1197 C 710 1188 682 1184 651 1184 C 619 1184 590 1188 566 1197 C 541 1206 520 1219 504 1235 C 487 1251 474 1269 466 1290 C 457 1311 453 1334 453 1358 C 453 1381 457 1403 466 1425 C 474 1446 487 1464 504 1480 C 520 1496 541 1508 566 1518 C 590 1527 619 1532 651 1532 Z M 514 1040 L 784 1040 C 787 1012 789 987 791 965 C 792 942 793 918 793 893 C 793 854 787 819 776 788 C 764 756 749 728 729 703 C 709 678 686 656 660 636 C 633 616 605 598 575 582 C 547 566 522 550 502 536 C 481 522 464 507 451 491 C 438 475 428 457 422 438 C 415 419 412 397 412 373 C 412 332 428 298 462 272 C 495 246 542 233 604 233 C 640 233 675 238 710 248 C 744 258 777 272 808 289 C 838 306 867 326 893 348 C 919 370 942 394 961 418 L 1149 217 C 1119 183 1085 152 1047 122 C 1009 92 966 65 918 43 C 870 21 817 3 759 -9 C 701 -22 637 -29 569 -29 C 491 -29 423 -19 363 -1 C 303 17 252 43 212 77 C 171 110 140 150 119 196 C 98 242 88 292 88 346 C 88 393 94 435 107 471 C 119 507 137 540 159 568 C 181 596 206 620 236 642 C 265 663 296 682 330 700 C 376 724 411 745 437 765 C 462 785 480 806 492 830 C 503 854 509 882 511 915 C 513 948 514 990 514 1040 Z" unicode="" />
<glyph horiz-adv-x="1460" d="M 35 0 L 35 0 Z M 342 0 L 35 0 L 571 1522 L 889 1522 L 1417 25 L 1096 -25 L 975 338 L 459 338 L 342 0 Z M 719 1096 L 541 580 L 897 580 L 723 1096 L 719 1096 Z M 643 1603 L 340 1958 L 669 1958 L 860 1603 L 643 1603 Z" unicode="" />
<glyph horiz-adv-x="1460" d="M 35 0 L 35 0 Z M 342 0 L 35 0 L 571 1522 L 889 1522 L 1417 25 L 1096 -25 L 975 338 L 459 338 L 342 0 Z M 719 1096 L 541 580 L 897 580 L 723 1096 L 719 1096 Z M 598 1603 L 789 1958 L 1120 1958 L 815 1603 L 598 1603 Z" unicode="" />
<glyph horiz-adv-x="1460" d="M 35 0 L 35 0 Z M 342 0 L 35 0 L 571 1522 L 889 1522 L 1417 25 L 1096 -25 L 975 338 L 459 338 L 342 0 Z M 719 1096 L 541 580 L 897 580 L 723 1096 L 719 1096 Z M 357 1607 L 621 1958 L 840 1958 L 1104 1607 L 918 1607 L 727 1759 L 543 1607 L 357 1607 Z" unicode="" />
<glyph horiz-adv-x="1460" d="M 35 0 L 35 0 Z M 342 0 L 35 0 L 571 1522 L 889 1522 L 1417 25 L 1096 -25 L 975 338 L 459 338 L 342 0 Z M 719 1096 L 541 580 L 897 580 L 723 1096 L 719 1096 Z M 887 1583 C 849 1583 817 1589 790 1601 C 762 1613 737 1626 715 1640 C 693 1654 672 1668 652 1680 C 632 1692 610 1698 588 1698 C 561 1698 541 1688 527 1669 C 513 1649 506 1617 508 1573 L 330 1601 C 330 1703 352 1781 397 1834 C 441 1886 500 1913 574 1913 C 611 1913 643 1907 671 1895 C 698 1883 723 1869 745 1855 C 767 1841 789 1828 809 1816 C 829 1804 850 1798 873 1798 C 899 1798 920 1807 934 1826 C 948 1845 955 1877 953 1923 L 1129 1894 C 1129 1793 1107 1716 1063 1663 C 1019 1609 960 1583 887 1583 Z" unicode="" />
<glyph horiz-adv-x="1460" d="M 35 0 L 35 0 Z M 342 0 L 35 0 L 571 1522 L 889 1522 L 1417 25 L 1096 -25 L 975 338 L 459 338 L 342 0 Z M 719 1096 L 541 580 L 897 580 L 723 1096 L 719 1096 Z M 946 1577 C 920 1577 898 1581 878 1590 C 858 1598 841 1610 828 1625 C 815 1640 805 1658 798 1678 C 791 1698 788 1720 788 1743 C 788 1787 801 1826 828 1858 C 855 1890 894 1906 946 1906 C 998 1906 1038 1890 1066 1858 C 1094 1826 1108 1787 1108 1743 C 1108 1720 1104 1698 1097 1678 C 1090 1658 1080 1640 1066 1625 C 1052 1610 1036 1598 1016 1590 C 996 1581 972 1577 946 1577 Z M 508 1577 C 482 1577 460 1581 440 1590 C 420 1598 403 1610 390 1625 C 377 1640 367 1658 360 1678 C 353 1698 350 1720 350 1743 C 350 1787 363 1826 390 1858 C 417 1890 456 1906 508 1906 C 560 1906 600 1890 628 1858 C 655 1826 669 1787 669 1743 C 669 1720 665 1698 658 1678 C 651 1658 641 1640 628 1625 C 614 1610 598 1598 578 1590 C 558 1581 534 1577 508 1577 Z" unicode="" />
<glyph horiz-adv-x="1460" d="M 37 0 L 559 1485 C 542 1502 529 1523 520 1547 C 510 1571 506 1596 506 1624 C 506 1655 511 1684 523 1712 C 534 1739 550 1763 570 1783 C 590 1803 613 1818 641 1830 C 669 1841 699 1847 731 1847 C 762 1847 791 1841 819 1830 C 846 1818 870 1803 890 1783 C 910 1763 925 1739 937 1712 C 948 1684 954 1655 954 1624 C 954 1596 949 1571 940 1547 C 931 1523 918 1503 901 1487 L 1417 25 L 1096 -25 L 975 340 L 459 340 L 342 0 L 37 0 Z M 731 1526 C 757 1526 780 1535 798 1553 C 816 1571 825 1595 825 1624 C 825 1651 816 1674 798 1693 C 780 1712 757 1722 731 1722 C 703 1722 681 1712 663 1693 C 645 1674 637 1651 637 1624 C 637 1595 645 1571 663 1553 C 681 1535 703 1526 731 1526 Z M 541 580 L 897 580 L 723 1098 L 719 1098 L 541 580 Z" unicode="" />
<glyph horiz-adv-x="2200" d="M 1059 1235 L 745 678 L 1061 678 L 1061 1235 L 1059 1235 Z M 367 0 L 31 0 L 893 1516 L 2087 1516 L 2087 1237 L 1391 1237 L 1391 911 L 1870 911 L 1919 647 L 1391 647 L 1391 270 L 2124 270 L 2124 0 L 1061 0 L 1061 430 L 606 430 L 367 0 Z" unicode="" />
<glyph horiz-adv-x="1473" d="M 84 0 L 84 0 Z M 782 -29 C 683 -29 591 -12 505 19 C 419 51 346 100 284 165 C 222 229 173 311 137 411 C 101 510 84 626 84 760 C 84 890 101 1005 137 1104 C 173 1202 221 1284 283 1349 C 344 1413 416 1462 499 1495 C 581 1527 669 1544 762 1544 C 914 1544 1039 1513 1136 1451 C 1233 1389 1310 1300 1366 1182 L 1085 1040 C 1072 1069 1056 1097 1036 1125 C 1016 1153 993 1177 967 1198 C 941 1219 910 1236 876 1249 C 842 1261 804 1268 762 1268 C 704 1268 653 1256 610 1232 C 566 1208 530 1175 502 1131 C 474 1087 453 1034 439 971 C 425 908 418 838 418 760 C 418 680 425 608 441 544 C 456 479 479 424 509 380 C 539 335 577 300 623 276 C 669 252 722 240 782 240 C 826 240 866 246 902 260 C 938 273 969 291 997 315 C 1025 339 1049 367 1069 400 C 1089 433 1105 469 1118 508 L 1405 408 C 1382 343 1353 284 1318 230 C 1283 176 1241 129 1191 91 C 1141 53 1082 23 1014 2 C 946 -18 869 -29 782 -29 Z M 783 -414 C 721 -414 664 -407 612 -393 C 559 -379 515 -361 480 -338 L 539 -240 C 569 -260 604 -276 644 -286 C 684 -296 721 -301 756 -301 C 787 -301 812 -295 830 -284 C 848 -272 858 -255 858 -231 C 858 -212 851 -198 839 -189 C 827 -180 811 -176 793 -176 C 775 -176 760 -179 746 -185 C 732 -191 719 -199 705 -211 L 623 -170 L 676 0 L 811 0 L 789 -94 C 803 -85 820 -78 842 -72 C 864 -66 890 -63 920 -63 C 939 -63 958 -66 976 -72 C 994 -78 1009 -88 1023 -100 C 1037 -112 1048 -127 1056 -145 C 1064 -163 1069 -183 1069 -207 C 1069 -239 1061 -267 1046 -293 C 1031 -319 1011 -340 985 -358 C 959 -376 929 -389 894 -399 C 859 -409 822 -414 783 -414 Z" unicode="" />
<glyph horiz-adv-x="1296" d="M 156 0 L 156 0 Z M 1225 0 L 156 0 L 156 1516 L 1188 1516 L 1188 1237 L 489 1237 L 489 911 L 1032 911 L 1081 647 L 489 647 L 489 270 L 1225 270 L 1225 0 Z M 625 1603 L 322 1958 L 651 1958 L 842 1603 L 625 1603 Z" unicode="" />
<glyph horiz-adv-x="1296" d="M 156 0 L 156 0 Z M 483 1603 L 674 1958 L 1005 1958 L 700 1603 L 483 1603 Z M 1225 0 L 156 0 L 156 1516 L 1188 1516 L 1188 1237 L 489 1237 L 489 911 L 1032 911 L 1081 647 L 489 647 L 489 270 L 1225 270 L 1225 0 Z" unicode="" />
<glyph horiz-adv-x="1296" d="M 156 0 L 156 0 Z M 295 1607 L 559 1958 L 778 1958 L 1042 1607 L 856 1607 L 665 1759 L 481 1607 L 295 1607 Z M 1225 0 L 156 0 L 156 1516 L 1188 1516 L 1188 1237 L 489 1237 L 489 911 L 1032 911 L 1081 647 L 489 647 L 489 270 L 1225 270 L 1225 0 Z" unicode="" />
<glyph horiz-adv-x="1296" d="M 156 0 L 156 0 Z M 895 1577 C 869 1577 847 1581 827 1590 C 807 1598 790 1610 777 1625 C 764 1640 754 1658 747 1678 C 740 1698 737 1720 737 1743 C 737 1787 750 1826 777 1858 C 804 1890 843 1906 895 1906 C 947 1906 987 1890 1015 1858 C 1043 1826 1057 1787 1057 1743 C 1057 1720 1053 1698 1046 1678 C 1039 1658 1029 1640 1015 1625 C 1001 1610 985 1598 965 1590 C 945 1581 921 1577 895 1577 Z M 457 1577 C 431 1577 409 1581 389 1590 C 369 1598 352 1610 339 1625 C 326 1640 316 1658 309 1678 C 302 1698 299 1720 299 1743 C 299 1787 312 1826 339 1858 C 366 1890 405 1906 457 1906 C 509 1906 549 1890 577 1858 C 604 1826 618 1787 618 1743 C 618 1720 614 1698 607 1678 C 600 1658 590 1640 577 1625 C 563 1610 547 1598 527 1590 C 507 1581 483 1577 457 1577 Z M 1225 0 L 156 0 L 156 1516 L 1188 1516 L 1188 1237 L 489 1237 L 489 911 L 1032 911 L 1081 647 L 489 647 L 489 270 L 1225 270 L 1225 0 Z" unicode="" />
<glyph horiz-adv-x="676" d="M 0 0 L 0 0 Z M 504 0 L 172 0 L 172 1516 L 504 1516 L 504 0 Z M 258 1603 L -45 1958 L 284 1958 L 475 1603 L 258 1603 Z" unicode="" />
<glyph horiz-adv-x="676" d="M 172 0 L 172 0 Z M 504 0 L 172 0 L 172 1516 L 504 1516 L 504 0 Z M 209 1603 L 400 1958 L 731 1958 L 426 1603 L 209 1603 Z" unicode="" />
<glyph horiz-adv-x="676" d="M 0 0 L 0 0 Z M 504 0 L 172 0 L 172 1516 L 504 1516 L 504 0 Z M -34 1607 L 230 1958 L 449 1958 L 713 1607 L 527 1607 L 336 1759 L 152 1607 L -34 1607 Z" unicode="" />
<glyph horiz-adv-x="676" d="M 0 0 L 0 0 Z M 504 0 L 172 0 L 172 1516 L 504 1516 L 504 0 Z M 555 1577 C 529 1577 507 1581 487 1590 C 467 1598 450 1610 437 1625 C 424 1640 414 1658 407 1678 C 400 1698 397 1720 397 1743 C 397 1787 410 1826 437 1858 C 464 1890 503 1906 555 1906 C 607 1906 647 1890 675 1858 C 703 1826 717 1787 717 1743 C 717 1720 713 1698 706 1678 C 699 1658 689 1640 675 1625 C 661 1610 645 1598 625 1590 C 605 1581 581 1577 555 1577 Z M 117 1577 C 91 1577 69 1581 49 1590 C 29 1598 12 1610 0 1625 C -13 1640 -23 1658 -30 1678 C -37 1698 -41 1720 -41 1743 C -41 1787 -27 1826 0 1858 C 26 1890 65 1906 117 1906 C 169 1906 209 1890 237 1858 C 264 1826 278 1787 278 1743 C 278 1720 274 1698 267 1678 C 260 1658 250 1640 237 1625 C 223 1610 207 1598 187 1590 C 167 1581 143 1577 117 1577 Z" unicode="" />
<glyph horiz-adv-x="1516" d="M 621 0 L 156 0 L 156 649 L 20 649 L 20 899 L 156 899 L 156 1516 L 621 1516 C 735 1516 842 1502 942 1476 C 1042 1449 1128 1406 1200 1347 C 1272 1287 1328 1209 1370 1112 C 1411 1015 1432 897 1432 758 C 1432 620 1411 502 1369 406 C 1327 309 1269 231 1197 171 C 1125 111 1039 67 940 40 C 840 13 734 0 621 0 Z M 487 649 L 487 270 L 643 270 C 807 270 923 309 993 387 C 1063 465 1098 590 1098 762 C 1098 922 1062 1042 992 1120 C 922 1198 804 1237 639 1237 L 487 1237 L 487 899 L 795 899 L 795 649 L 487 649 Z" unicode="" />
<glyph horiz-adv-x="1591" d="M 156 0 L 156 0 Z M 463 0 L 156 0 L 156 1516 L 489 1516 L 1124 549 L 1128 549 L 1128 1516 L 1436 1516 L 1436 0 L 1128 0 L 467 975 L 463 975 L 463 0 Z M 960 1583 C 922 1583 890 1589 863 1601 C 835 1613 810 1626 788 1640 C 766 1654 745 1668 725 1680 C 705 1692 683 1698 661 1698 C 634 1698 614 1688 600 1669 C 586 1649 579 1617 581 1573 L 403 1601 C 403 1703 425 1781 470 1834 C 514 1886 573 1913 647 1913 C 684 1913 716 1907 744 1895 C 771 1883 796 1869 818 1855 C 840 1841 862 1828 882 1816 C 902 1804 923 1798 946 1798 C 972 1798 993 1807 1007 1826 C 1021 1845 1028 1877 1026 1923 L 1202 1894 C 1202 1793 1180 1716 1136 1663 C 1092 1609 1033 1583 960 1583 Z" unicode="" />
<glyph horiz-adv-x="1597" d="M 84 0 L 84 0 Z M 799 -29 C 707 -29 618 -12 532 19 C 446 51 370 100 304 165 C 238 229 184 311 144 410 C 104 509 84 625 84 758 C 84 890 104 1006 144 1105 C 184 1203 238 1285 304 1350 C 370 1415 446 1464 532 1496 C 618 1528 707 1544 799 1544 C 889 1544 978 1528 1064 1496 C 1150 1464 1225 1415 1291 1350 C 1357 1285 1410 1203 1450 1105 C 1490 1006 1511 890 1511 758 C 1511 625 1490 509 1450 410 C 1410 311 1357 229 1291 165 C 1225 100 1150 51 1064 19 C 978 -12 889 -29 799 -29 Z M 799 240 C 857 240 909 252 957 276 C 1004 300 1044 335 1077 380 C 1109 424 1135 479 1153 543 C 1171 607 1180 678 1180 758 C 1180 836 1171 907 1153 971 C 1135 1034 1109 1087 1077 1131 C 1044 1175 1004 1208 957 1232 C 909 1256 857 1268 799 1268 C 740 1268 687 1256 640 1232 C 592 1208 552 1175 520 1131 C 487 1087 462 1034 444 971 C 426 907 418 836 418 758 C 418 678 426 607 444 543 C 462 479 487 424 520 380 C 552 335 592 300 640 276 C 687 252 740 240 799 240 Z M 746 1603 L 443 1958 L 772 1958 L 963 1603 L 746 1603 Z" unicode="" />
<glyph horiz-adv-x="1597" d="M 84 0 L 84 0 Z M 629 1603 L 820 1958 L 1151 1958 L 846 1603 L 629 1603 Z M 799 -29 C 707 -29 618 -12 532 19 C 446 51 370 100 304 165 C 238 229 184 311 144 410 C 104 509 84 625 84 758 C 84 890 104 1006 144 1105 C 184 1203 238 1285 304 1350 C 370 1415 446 1464 532 1496 C 618 1528 707 1544 799 1544 C 889 1544 978 1528 1064 1496 C 1150 1464 1225 1415 1291 1350 C 1357 1285 1410 1203 1450 1105 C 1490 1006 1511 890 1511 758 C 1511 625 1490 509 1450 410 C 1410 311 1357 229 1291 165 C 1225 100 1150 51 1064 19 C 978 -12 889 -29 799 -29 Z M 799 240 C 857 240 909 252 957 276 C 1004 300 1044 335 1077 380 C 1109 424 1135 479 1153 543 C 1171 607 1180 678 1180 758 C 1180 836 1171 907 1153 971 C 1135 1034 1109 1087 1077 1131 C 1044 1175 1004 1208 957 1232 C 909 1256 857 1268 799 1268 C 740 1268 687 1256 640 1232 C 592 1208 552 1175 520 1131 C 487 1087 462 1034 444 971 C 426 907 418 836 418 758 C 418 678 426 607 444 543 C 462 479 487 424 520 380 C 552 335 592 300 640 276 C 687 252 740 240 799 240 Z" unicode="" />
<glyph horiz-adv-x="1597" d="M 84 0 L 84 0 Z M 424 1607 L 688 1958 L 907 1958 L 1171 1607 L 985 1607 L 794 1759 L 610 1607 L 424 1607 Z M 799 -29 C 707 -29 618 -12 532 19 C 446 51 370 100 304 165 C 238 229 184 311 144 410 C 104 509 84 625 84 758 C 84 890 104 1006 144 1105 C 184 1203 238 1285 304 1350 C 370 1415 446 1464 532 1496 C 618 1528 707 1544 799 1544 C 889 1544 978 1528 1064 1496 C 1150 1464 1225 1415 1291 1350 C 1357 1285 1410 1203 1450 1105 C 1490 1006 1511 890 1511 758 C 1511 625 1490 509 1450 410 C 1410 311 1357 229 1291 165 C 1225 100 1150 51 1064 19 C 978 -12 889 -29 799 -29 Z M 799 240 C 857 240 909 252 957 276 C 1004 300 1044 335 1077 380 C 1109 424 1135 479 1153 543 C 1171 607 1180 678 1180 758 C 1180 836 1171 907 1153 971 C 1135 1034 1109 1087 1077 1131 C 1044 1175 1004 1208 957 1232 C 909 1256 857 1268 799 1268 C 740 1268 687 1256 640 1232 C 592 1208 552 1175 520 1131 C 487 1087 462 1034 444 971 C 426 907 418 836 418 758 C 418 678 426 607 444 543 C 462 479 487 424 520 380 C 552 335 592 300 640 276 C 687 252 740 240 799 240 Z" unicode="" />
<glyph horiz-adv-x="1597" d="M 84 0 L 84 0 Z M 799 -29 C 707 -29 618 -12 532 19 C 446 51 370 100 304 165 C 238 229 184 311 144 410 C 104 509 84 625 84 758 C 84 890 104 1006 144 1105 C 184 1203 238 1285 304 1350 C 370 1415 446 1464 532 1496 C 618 1528 707 1544 799 1544 C 889 1544 978 1528 1064 1496 C 1150 1464 1225 1415 1291 1350 C 1357 1285 1410 1203 1450 1105 C 1490 1006 1511 890 1511 758 C 1511 625 1490 509 1450 410 C 1410 311 1357 229 1291 165 C 1225 100 1150 51 1064 19 C 978 -12 889 -29 799 -29 Z M 799 240 C 857 240 909 252 957 276 C 1004 300 1044 335 1077 380 C 1109 424 1135 479 1153 543 C 1171 607 1180 678 1180 758 C 1180 836 1171 907 1153 971 C 1135 1034 1109 1087 1077 1131 C 1044 1175 1004 1208 957 1232 C 909 1256 857 1268 799 1268 C 740 1268 687 1256 640 1232 C 592 1208 552 1175 520 1131 C 487 1087 462 1034 444 971 C 426 907 418 836 418 758 C 418 678 426 607 444 543 C 462 479 487 424 520 380 C 552 335 592 300 640 276 C 687 252 740 240 799 240 Z M 952 1583 C 914 1583 882 1589 855 1601 C 827 1613 802 1626 780 1640 C 758 1654 737 1668 717 1680 C 697 1692 675 1698 653 1698 C 626 1698 606 1688 592 1669 C 578 1649 571 1617 573 1573 L 395 1601 C 395 1703 417 1781 462 1834 C 506 1886 565 1913 639 1913 C 676 1913 708 1907 736 1895 C 763 1883 788 1869 810 1855 C 832 1841 854 1828 874 1816 C 894 1804 915 1798 938 1798 C 964 1798 985 1807 999 1826 C 1013 1845 1020 1877 1018 1923 L 1194 1894 C 1194 1793 1172 1716 1128 1663 C 1084 1609 1025 1583 952 1583 Z" unicode="" />
<glyph horiz-adv-x="1597" d="M 84 0 L 84 0 Z M 1014 1577 C 988 1577 966 1581 946 1590 C 926 1598 909 1610 896 1625 C 883 1640 873 1658 866 1678 C 859 1698 856 1720 856 1743 C 856 1787 869 1826 896 1858 C 923 1890 962 1906 1014 1906 C 1066 1906 1106 1890 1134 1858 C 1162 1826 1176 1787 1176 1743 C 1176 1720 1172 1698 1165 1678 C 1158 1658 1148 1640 1134 1625 C 1120 1610 1104 1598 1084 1590 C 1064 1581 1040 1577 1014 1577 Z M 576 1577 C 550 1577 528 1581 508 1590 C 488 1598 471 1610 458 1625 C 445 1640 435 1658 428 1678 C 421 1698 418 1720 418 1743 C 418 1787 431 1826 458 1858 C 485 1890 524 1906 576 1906 C 628 1906 668 1890 696 1858 C 723 1826 737 1787 737 1743 C 737 1720 733 1698 726 1678 C 719 1658 709 1640 696 1625 C 682 1610 666 1598 646 1590 C 626 1581 602 1577 576 1577 Z M 799 -29 C 707 -29 618 -12 532 19 C 446 51 370 100 304 165 C 238 229 184 311 144 410 C 104 509 84 625 84 758 C 84 890 104 1006 144 1105 C 184 1203 238 1285 304 1350 C 370 1415 446 1464 532 1496 C 618 1528 707 1544 799 1544 C 889 1544 978 1528 1064 1496 C 1150 1464 1225 1415 1291 1350 C 1357 1285 1410 1203 1450 1105 C 1490 1006 1511 890 1511 758 C 1511 625 1490 509 1450 410 C 1410 311 1357 229 1291 165 C 1225 100 1150 51 1064 19 C 978 -12 889 -29 799 -29 Z M 799 240 C 857 240 909 252 957 276 C 1004 300 1044 335 1077 380 C 1109 424 1135 479 1153 543 C 1171 607 1180 678 1180 758 C 1180 836 1171 907 1153 971 C 1135 1034 1109 1087 1077 1131 C 1044 1175 1004 1208 957 1232 C 909 1256 857 1268 799 1268 C 740 1268 687 1256 640 1232 C 592 1208 552 1175 520 1131 C 487 1087 462 1034 444 971 C 426 907 418 836 418 758 C 418 678 426 607 444 543 C 462 479 487 424 520 380 C 552 335 592 300 640 276 C 687 252 740 240 799 240 Z" unicode="" />
<glyph horiz-adv-x="1323" d="M 662 471 L 336 145 L 145 338 L 467 662 L 145 981 L 336 1174 L 659 852 L 979 1174 L 1171 981 L 852 662 L 1176 342 L 985 150 L 662 471 Z" unicode="" />
<glyph horiz-adv-x="1597" d="M 453 496 L 1034 1186 C 1003 1213 968 1234 928 1249 C 888 1264 845 1272 799 1272 C 739 1272 686 1260 638 1236 C 590 1212 549 1178 515 1134 C 481 1090 455 1036 437 972 C 419 908 410 837 410 758 C 410 708 413 660 420 616 C 427 572 438 532 453 496 Z M 1143 1020 L 559 328 C 589 298 625 275 666 259 C 706 243 751 236 799 236 C 857 236 911 248 959 272 C 1007 296 1047 331 1081 377 C 1114 422 1140 477 1158 542 C 1176 606 1186 678 1186 758 C 1186 808 1182 855 1175 899 C 1167 943 1157 983 1143 1020 Z M 1524 1450 L 1364 1266 C 1410 1202 1446 1128 1472 1044 C 1498 959 1511 864 1511 758 C 1511 625 1490 509 1450 410 C 1410 311 1357 229 1291 165 C 1225 100 1150 51 1064 19 C 978 -12 889 -29 799 -29 C 723 -29 649 -18 576 4 C 503 26 436 59 375 104 L 231 -61 L 72 66 L 231 248 C 185 311 149 385 123 470 C 97 555 84 651 84 758 C 84 890 104 1006 144 1105 C 184 1203 238 1285 304 1350 C 370 1415 446 1464 532 1496 C 618 1528 707 1544 799 1544 C 874 1544 948 1533 1021 1511 C 1094 1489 1161 1455 1221 1411 L 1366 1577 L 1524 1450 Z" unicode="" />
<glyph horiz-adv-x="1485" d="M 131 0 L 131 0 Z M 743 -25 C 638 -25 547 -10 470 17 C 392 45 329 86 279 138 C 229 190 191 254 167 329 C 143 404 131 488 131 580 L 131 1516 L 465 1516 L 465 588 C 465 479 487 395 532 335 C 576 275 648 246 748 246 C 845 246 916 275 960 334 C 1004 393 1026 478 1026 588 L 1026 1516 L 1354 1516 L 1354 582 C 1354 489 1341 405 1317 330 C 1293 254 1256 190 1206 138 C 1156 86 1093 45 1016 17 C 938 -10 847 -25 743 -25 Z M 692 1603 L 389 1958 L 718 1958 L 909 1603 L 692 1603 Z" unicode="" />
<glyph horiz-adv-x="1485" d="M 131 0 L 131 0 Z M 553 1603 L 744 1958 L 1075 1958 L 770 1603 L 553 1603 Z M 743 -25 C 638 -25 547 -10 470 17 C 392 45 329 86 279 138 C 229 190 191 254 167 329 C 143 404 131 488 131 580 L 131 1516 L 465 1516 L 465 588 C 465 479 487 395 532 335 C 576 275 648 246 748 246 C 845 246 916 275 960 334 C 1004 393 1026 478 1026 588 L 1026 1516 L 1354 1516 L 1354 582 C 1354 489 1341 405 1317 330 C 1293 254 1256 190 1206 138 C 1156 86 1093 45 1016 17 C 938 -10 847 -25 743 -25 Z" unicode="" />
<glyph horiz-adv-x="1485" d="M 131 0 L 131 0 Z M 367 1607 L 631 1958 L 850 1958 L 1114 1607 L 928 1607 L 737 1759 L 553 1607 L 367 1607 Z M 743 -25 C 638 -25 547 -10 470 17 C 392 45 329 86 279 138 C 229 190 191 254 167 329 C 143 404 131 488 131 580 L 131 1516 L 465 1516 L 465 588 C 465 479 487 395 532 335 C 576 275 648 246 748 246 C 845 246 916 275 960 334 C 1004 393 1026 478 1026 588 L 1026 1516 L 1354 1516 L 1354 582 C 1354 489 1341 405 1317 330 C 1293 254 1256 190 1206 138 C 1156 86 1093 45 1016 17 C 938 -10 847 -25 743 -25 Z" unicode="" />
<glyph horiz-adv-x="1485" d="M 131 0 L 131 0 Z M 959 1577 C 933 1577 911 1581 891 1590 C 871 1598 854 1610 841 1625 C 828 1640 818 1658 811 1678 C 804 1698 801 1720 801 1743 C 801 1787 814 1826 841 1858 C 868 1890 907 1906 959 1906 C 1011 1906 1051 1890 1079 1858 C 1107 1826 1121 1787 1121 1743 C 1121 1720 1117 1698 1110 1678 C 1103 1658 1093 1640 1079 1625 C 1065 1610 1049 1598 1029 1590 C 1009 1581 985 1577 959 1577 Z M 521 1577 C 495 1577 473 1581 453 1590 C 433 1598 416 1610 403 1625 C 390 1640 380 1658 373 1678 C 366 1698 363 1720 363 1743 C 363 1787 376 1826 403 1858 C 430 1890 469 1906 521 1906 C 573 1906 613 1890 641 1858 C 668 1826 682 1787 682 1743 C 682 1720 678 1698 671 1678 C 664 1658 654 1640 641 1625 C 627 1610 611 1598 591 1590 C 571 1581 547 1577 521 1577 Z M 743 -25 C 638 -25 547 -10 470 17 C 392 45 329 86 279 138 C 229 190 191 254 167 329 C 143 404 131 488 131 580 L 131 1516 L 465 1516 L 465 588 C 465 479 487 395 532 335 C 576 275 648 246 748 246 C 845 246 916 275 960 334 C 1004 393 1026 478 1026 588 L 1026 1516 L 1354 1516 L 1354 582 C 1354 489 1341 405 1317 330 C 1293 254 1256 190 1206 138 C 1156 86 1093 45 1016 17 C 938 -10 847 -25 743 -25 Z" unicode="" />
<glyph horiz-adv-x="1415" d="M 33 0 L 33 0 Z M 872 0 L 541 0 L 541 643 L 33 1491 L 348 1540 L 709 926 L 1057 1516 L 1397 1516 L 872 643 L 872 0 Z M 512 1609 L 703 1964 L 1034 1964 L 729 1609 L 512 1609 Z" unicode="" />
<glyph horiz-adv-x="1389" d="M 489 0 L 156 0 L 156 1516 L 489 1516 L 489 1286 L 700 1286 C 780 1286 858 1279 934 1265 C 1010 1251 1076 1225 1134 1189 C 1191 1152 1237 1102 1272 1038 C 1307 974 1325 892 1325 793 C 1325 692 1306 609 1269 544 C 1231 479 1183 428 1124 392 C 1064 355 997 330 922 316 C 846 302 771 295 696 295 L 489 295 L 489 0 Z M 489 1008 L 489 559 L 702 559 C 804 559 877 578 921 618 C 965 657 987 712 987 784 C 987 854 965 909 922 949 C 879 988 806 1008 702 1008 L 489 1008 Z" unicode="" />
<glyph horiz-adv-x="1399" d="M 907 -23 C 823 -23 749 -12 685 8 C 620 29 571 51 537 74 L 633 279 C 664 263 701 248 745 234 C 789 220 833 213 877 213 C 931 213 973 231 1003 267 C 1033 303 1049 350 1049 406 C 1049 458 1037 500 1014 533 C 990 565 959 591 919 610 C 879 629 833 643 779 651 C 725 659 667 664 606 666 L 606 885 C 663 885 710 891 748 902 C 785 913 814 928 836 947 C 858 966 873 989 882 1015 C 890 1041 895 1069 895 1100 C 895 1122 890 1144 882 1165 C 873 1186 860 1204 843 1220 C 825 1236 804 1248 778 1258 C 752 1267 722 1272 688 1272 C 612 1272 553 1251 512 1210 C 471 1168 451 1101 451 1008 L 451 0 L 125 0 L 125 999 C 125 1089 138 1166 165 1232 C 191 1298 229 1351 278 1393 C 326 1435 385 1466 453 1486 C 521 1506 597 1516 680 1516 C 758 1516 830 1507 894 1490 C 958 1472 1013 1447 1058 1415 C 1103 1382 1138 1341 1163 1293 C 1187 1245 1200 1190 1200 1128 C 1200 1084 1193 1045 1179 1011 C 1165 976 1146 946 1122 920 C 1098 894 1071 872 1039 854 C 1007 836 974 821 940 811 C 989 805 1038 793 1088 775 C 1137 757 1181 732 1220 700 C 1259 668 1291 629 1315 583 C 1339 536 1352 482 1352 420 C 1352 348 1341 284 1320 229 C 1298 173 1268 127 1230 90 C 1191 52 1144 24 1089 5 C 1034 -13 973 -23 907 -23 Z" unicode="" />
<glyph horiz-adv-x="1182" d="M 53 0 L 53 0 Z M 496 231 C 552 231 601 239 642 257 C 683 275 717 298 745 326 L 745 528 C 615 515 521 492 463 460 C 404 427 375 386 375 336 C 375 301 386 275 408 257 C 430 239 460 231 496 231 Z M 365 -16 C 323 -16 283 -9 245 4 C 207 17 174 36 146 61 C 117 86 94 117 78 154 C 61 190 53 232 53 279 C 53 403 108 501 220 573 C 332 644 507 689 745 709 L 745 735 C 745 775 732 806 707 830 C 682 854 640 866 582 866 C 520 866 463 853 411 828 C 358 802 309 772 264 737 L 86 915 C 112 939 143 964 178 988 C 212 1012 252 1033 296 1052 C 340 1070 389 1085 445 1097 C 500 1108 561 1114 629 1114 C 783 1114 894 1077 963 1005 C 1032 932 1067 826 1067 686 L 1067 0 L 770 0 L 745 160 C 695 104 639 60 577 30 C 515 0 445 -16 365 -16 Z M 549 1208 L 246 1563 L 575 1563 L 766 1208 L 549 1208 Z" unicode="" />
<glyph horiz-adv-x="1182" d="M 53 0 L 53 0 Z M 496 231 C 552 231 601 239 642 257 C 683 275 717 298 745 326 L 745 528 C 615 515 521 492 463 460 C 404 427 375 386 375 336 C 375 301 386 275 408 257 C 430 239 460 231 496 231 Z M 365 -16 C 323 -16 283 -9 245 4 C 207 17 174 36 146 61 C 117 86 94 117 78 154 C 61 190 53 232 53 279 C 53 403 108 501 220 573 C 332 644 507 689 745 709 L 745 735 C 745 775 732 806 707 830 C 682 854 640 866 582 866 C 520 866 463 853 411 828 C 358 802 309 772 264 737 L 86 915 C 112 939 143 964 178 988 C 212 1012 252 1033 296 1052 C 340 1070 389 1085 445 1097 C 500 1108 561 1114 629 1114 C 783 1114 894 1077 963 1005 C 1032 932 1067 826 1067 686 L 1067 0 L 770 0 L 745 160 C 695 104 639 60 577 30 C 515 0 445 -16 365 -16 Z M 426 1208 L 617 1563 L 948 1563 L 643 1208 L 426 1208 Z" unicode="" />
<glyph horiz-adv-x="1182" d="M 53 0 L 53 0 Z M 496 231 C 552 231 601 239 642 257 C 683 275 717 298 745 326 L 745 528 C 615 515 521 492 463 460 C 404 427 375 386 375 336 C 375 301 386 275 408 257 C 430 239 460 231 496 231 Z M 365 -16 C 323 -16 283 -9 245 4 C 207 17 174 36 146 61 C 117 86 94 117 78 154 C 61 190 53 232 53 279 C 53 403 108 501 220 573 C 332 644 507 689 745 709 L 745 735 C 745 775 732 806 707 830 C 682 854 640 866 582 866 C 520 866 463 853 411 828 C 358 802 309 772 264 737 L 86 915 C 112 939 143 964 178 988 C 212 1012 252 1033 296 1052 C 340 1070 389 1085 445 1097 C 500 1108 561 1114 629 1114 C 783 1114 894 1077 963 1005 C 1032 932 1067 826 1067 686 L 1067 0 L 770 0 L 745 160 C 695 104 639 60 577 30 C 515 0 445 -16 365 -16 Z M 220 1212 L 484 1563 L 703 1563 L 967 1212 L 781 1212 L 590 1364 L 406 1212 L 220 1212 Z" unicode="" />
<glyph horiz-adv-x="1182" d="M 53 0 L 53 0 Z M 496 231 C 552 231 601 239 642 257 C 683 275 717 298 745 326 L 745 528 C 615 515 521 492 463 460 C 404 427 375 386 375 336 C 375 301 386 275 408 257 C 430 239 460 231 496 231 Z M 365 -16 C 323 -16 283 -9 245 4 C 207 17 174 36 146 61 C 117 86 94 117 78 154 C 61 190 53 232 53 279 C 53 403 108 501 220 573 C 332 644 507 689 745 709 L 745 735 C 745 775 732 806 707 830 C 682 854 640 866 582 866 C 520 866 463 853 411 828 C 358 802 309 772 264 737 L 86 915 C 112 939 143 964 178 988 C 212 1012 252 1033 296 1052 C 340 1070 389 1085 445 1097 C 500 1108 561 1114 629 1114 C 783 1114 894 1077 963 1005 C 1032 932 1067 826 1067 686 L 1067 0 L 770 0 L 745 160 C 695 104 639 60 577 30 C 515 0 445 -16 365 -16 Z M 749 1188 C 711 1188 679 1194 652 1206 C 624 1218 599 1231 577 1245 C 555 1259 534 1273 514 1285 C 494 1297 472 1303 450 1303 C 423 1303 403 1293 389 1274 C 375 1254 368 1222 370 1178 L 192 1206 C 192 1308 214 1386 259 1439 C 303 1491 362 1518 436 1518 C 473 1518 505 1512 533 1500 C 560 1488 585 1474 607 1460 C 629 1446 651 1433 671 1421 C 691 1409 712 1403 735 1403 C 761 1403 782 1412 796 1431 C 810 1450 817 1482 815 1528 L 991 1499 C 991 1398 969 1321 925 1268 C 881 1214 822 1188 749 1188 Z" unicode="" />
<glyph horiz-adv-x="1182" d="M 53 0 L 53 0 Z M 496 231 C 552 231 601 239 642 257 C 683 275 717 298 745 326 L 745 528 C 615 515 521 492 463 460 C 404 427 375 386 375 336 C 375 301 386 275 408 257 C 430 239 460 231 496 231 Z M 365 -16 C 323 -16 283 -9 245 4 C 207 17 174 36 146 61 C 117 86 94 117 78 154 C 61 190 53 232 53 279 C 53 403 108 501 220 573 C 332 644 507 689 745 709 L 745 735 C 745 775 732 806 707 830 C 682 854 640 866 582 866 C 520 866 463 853 411 828 C 358 802 309 772 264 737 L 86 915 C 112 939 143 964 178 988 C 212 1012 252 1033 296 1052 C 340 1070 389 1085 445 1097 C 500 1108 561 1114 629 1114 C 783 1114 894 1077 963 1005 C 1032 932 1067 826 1067 686 L 1067 0 L 770 0 L 745 160 C 695 104 639 60 577 30 C 515 0 445 -16 365 -16 Z M 813 1182 C 787 1182 765 1186 745 1195 C 725 1203 708 1215 695 1230 C 682 1245 672 1263 665 1283 C 658 1303 655 1325 655 1348 C 655 1392 668 1431 695 1463 C 722 1495 761 1511 813 1511 C 865 1511 905 1495 933 1463 C 961 1431 975 1392 975 1348 C 975 1325 971 1303 964 1283 C 957 1263 947 1245 933 1230 C 919 1215 903 1203 883 1195 C 863 1186 839 1182 813 1182 Z M 375 1182 C 349 1182 327 1186 307 1195 C 287 1203 270 1215 257 1230 C 244 1245 234 1263 227 1283 C 220 1303 217 1325 217 1348 C 217 1392 230 1431 257 1463 C 284 1495 323 1511 375 1511 C 427 1511 467 1495 495 1463 C 522 1431 536 1392 536 1348 C 536 1325 532 1303 525 1283 C 518 1263 508 1245 495 1230 C 481 1215 465 1203 445 1195 C 425 1186 401 1182 375 1182 Z" unicode="" />
<glyph horiz-adv-x="1182" d="M 53 0 L 53 0 Z M 496 231 C 552 231 601 239 642 257 C 683 275 717 298 745 326 L 745 528 C 615 515 521 492 463 460 C 404 427 375 386 375 336 C 375 301 386 275 408 257 C 430 239 460 231 496 231 Z M 365 -16 C 323 -16 283 -9 245 4 C 207 17 174 36 146 61 C 117 86 94 117 78 154 C 61 190 53 232 53 279 C 53 403 108 501 220 573 C 332 644 507 689 745 709 L 745 735 C 745 775 732 806 707 830 C 682 854 640 866 582 866 C 520 866 463 853 411 828 C 358 802 309 772 264 737 L 86 915 C 112 939 143 964 178 988 C 212 1012 252 1033 296 1052 C 340 1070 389 1085 445 1097 C 500 1108 561 1114 629 1114 C 783 1114 894 1077 963 1005 C 1032 932 1067 826 1067 686 L 1067 0 L 770 0 L 745 160 C 695 104 639 60 577 30 C 515 0 445 -16 365 -16 Z M 598 1190 C 566 1190 536 1195 509 1207 C 481 1218 458 1234 438 1254 C 418 1274 403 1297 392 1325 C 380 1353 375 1383 375 1415 C 375 1446 380 1475 392 1502 C 403 1529 418 1552 438 1572 C 458 1592 481 1607 509 1619 C 536 1630 566 1636 598 1636 C 630 1636 659 1630 687 1619 C 715 1607 739 1592 759 1572 C 779 1552 794 1529 806 1502 C 817 1475 823 1446 823 1415 C 823 1383 817 1353 806 1325 C 794 1297 779 1274 759 1254 C 739 1234 715 1218 687 1207 C 659 1195 630 1190 598 1190 Z M 598 1315 C 625 1315 647 1324 665 1343 C 683 1361 692 1385 692 1415 C 692 1442 683 1465 665 1483 C 647 1501 625 1511 598 1511 C 570 1511 548 1501 530 1483 C 512 1465 504 1442 504 1415 C 504 1385 512 1361 530 1343 C 548 1324 570 1315 598 1315 Z" unicode="" />
<glyph horiz-adv-x="1835" d="M 362 -23 C 320 -23 281 -16 244 -4 C 206 7 173 26 145 50 C 117 74 94 103 78 139 C 61 175 53 216 53 262 C 53 387 108 488 220 565 C 332 641 507 689 745 709 L 745 735 C 745 775 733 806 711 830 C 688 854 650 866 596 866 C 531 866 471 853 416 828 C 360 803 310 773 264 737 L 86 915 C 113 940 144 965 180 989 C 216 1013 256 1034 301 1052 C 346 1070 397 1085 454 1097 C 511 1108 575 1114 645 1114 C 724 1114 789 1101 841 1075 C 893 1049 930 1017 954 977 C 972 997 994 1016 1018 1033 C 1042 1050 1068 1065 1096 1077 C 1124 1089 1152 1098 1182 1104 C 1211 1110 1240 1114 1268 1114 C 1326 1114 1385 1105 1445 1088 C 1505 1071 1558 1040 1606 995 C 1654 950 1693 888 1723 809 C 1753 730 1769 629 1769 506 L 1769 457 L 1049 457 C 1055 367 1082 303 1129 265 C 1175 227 1233 209 1303 209 C 1366 209 1426 222 1483 248 C 1540 274 1587 304 1624 338 L 1751 141 C 1689 87 1618 46 1538 18 C 1458 -9 1371 -23 1278 -23 C 1231 -23 1185 -18 1141 -10 C 1097 -2 1055 10 1017 28 C 978 46 942 69 909 98 C 876 126 848 161 825 201 C 757 121 684 64 606 29 C 528 -5 446 -23 362 -23 Z M 1053 651 L 1475 651 C 1467 727 1446 784 1411 821 C 1375 858 1327 877 1266 877 C 1214 877 1169 859 1130 823 C 1090 787 1065 730 1053 651 Z M 496 225 C 548 225 595 234 639 253 C 683 271 726 302 768 344 C 763 361 759 380 755 401 C 751 421 748 443 748 467 C 746 477 745 488 745 500 C 744 512 744 523 745 535 C 675 527 616 517 568 504 C 520 491 482 476 454 459 C 426 441 405 422 393 400 C 381 378 375 354 375 330 C 375 295 386 269 408 251 C 430 233 460 225 496 225 Z" unicode="" />
<glyph horiz-adv-x="1151" d="M 66 0 L 66 0 Z M 602 -23 C 538 -23 474 -13 410 6 C 346 26 288 58 238 102 C 187 146 146 204 114 277 C 82 350 66 439 66 545 C 66 653 83 744 118 818 C 152 891 196 949 250 993 C 304 1036 363 1067 428 1086 C 493 1104 556 1114 616 1114 C 664 1114 712 1108 759 1097 C 805 1085 849 1068 890 1045 C 930 1021 967 991 1001 955 C 1034 918 1062 875 1085 825 L 846 702 C 820 762 789 805 753 832 C 717 858 671 872 616 872 C 548 872 494 844 454 788 C 414 732 395 651 395 543 C 395 494 399 449 407 408 C 415 367 428 332 446 303 C 464 273 487 250 515 234 C 543 217 578 209 618 209 C 675 209 724 226 765 261 C 806 295 840 344 868 406 L 1112 285 C 1086 229 1054 182 1017 143 C 980 104 940 72 896 48 C 852 23 805 5 755 -6 C 705 -17 654 -23 602 -23 Z M 607 -414 C 545 -414 488 -407 436 -393 C 383 -379 339 -361 304 -338 L 363 -240 C 393 -260 428 -276 468 -286 C 508 -296 545 -301 580 -301 C 611 -301 636 -295 654 -284 C 672 -272 682 -255 682 -231 C 682 -212 675 -198 663 -189 C 651 -180 635 -176 617 -176 C 599 -176 584 -179 570 -185 C 556 -191 543 -199 529 -211 L 447 -170 L 500 0 L 635 0 L 613 -94 C 627 -85 644 -78 666 -72 C 688 -66 714 -63 744 -63 C 763 -63 782 -66 800 -72 C 818 -78 833 -88 847 -100 C 861 -112 872 -127 880 -145 C 888 -163 893 -183 893 -207 C 893 -239 885 -267 870 -293 C 855 -319 835 -340 809 -358 C 783 -376 753 -389 718 -399 C 683 -409 646 -414 607 -414 Z" unicode="" />
<glyph horiz-adv-x="1182" d="M 66 0 L 66 0 Z M 623 -23 C 552 -23 483 -13 416 6 C 348 26 289 58 237 102 C 185 146 144 205 113 278 C 81 351 66 440 66 545 C 66 650 84 739 120 812 C 156 885 201 944 255 988 C 309 1032 369 1064 433 1084 C 497 1104 558 1114 614 1114 C 670 1114 727 1105 787 1088 C 847 1071 901 1040 949 995 C 997 950 1037 888 1069 809 C 1100 730 1116 629 1116 506 L 1116 457 L 393 457 C 401 367 429 302 475 264 C 521 226 579 207 647 207 C 711 207 772 219 831 244 C 890 268 938 297 975 330 L 1098 141 C 1034 87 963 46 884 18 C 804 -9 717 -23 623 -23 Z M 397 651 L 821 651 C 813 727 791 784 756 822 C 721 860 673 879 612 879 C 561 879 516 860 476 824 C 436 788 409 730 397 651 Z M 539 1208 L 236 1563 L 565 1563 L 756 1208 L 539 1208 Z" unicode="" />
<glyph horiz-adv-x="1182" d="M 66 0 L 66 0 Z M 426 1208 L 617 1563 L 948 1563 L 643 1208 L 426 1208 Z M 623 -23 C 552 -23 483 -13 416 6 C 348 26 289 58 237 102 C 185 146 144 205 113 278 C 81 351 66 440 66 545 C 66 650 84 739 120 812 C 156 885 201 944 255 988 C 309 1032 369 1064 433 1084 C 497 1104 558 1114 614 1114 C 670 1114 727 1105 787 1088 C 847 1071 901 1040 949 995 C 997 950 1037 888 1069 809 C 1100 730 1116 629 1116 506 L 1116 457 L 393 457 C 401 367 429 302 475 264 C 521 226 579 207 647 207 C 711 207 772 219 831 244 C 890 268 938 297 975 330 L 1098 141 C 1034 87 963 46 884 18 C 804 -9 717 -23 623 -23 Z M 397 651 L 821 651 C 813 727 791 784 756 822 C 721 860 673 879 612 879 C 561 879 516 860 476 824 C 436 788 409 730 397 651 Z" unicode="" />
<glyph horiz-adv-x="1182" d="M 66 0 L 66 0 Z M 220 1212 L 484 1563 L 703 1563 L 967 1212 L 781 1212 L 590 1364 L 406 1212 L 220 1212 Z M 623 -23 C 552 -23 483 -13 416 6 C 348 26 289 58 237 102 C 185 146 144 205 113 278 C 81 351 66 440 66 545 C 66 650 84 739 120 812 C 156 885 201 944 255 988 C 309 1032 369 1064 433 1084 C 497 1104 558 1114 614 1114 C 670 1114 727 1105 787 1088 C 847 1071 901 1040 949 995 C 997 950 1037 888 1069 809 C 1100 730 1116 629 1116 506 L 1116 457 L 393 457 C 401 367 429 302 475 264 C 521 226 579 207 647 207 C 711 207 772 219 831 244 C 890 268 938 297 975 330 L 1098 141 C 1034 87 963 46 884 18 C 804 -9 717 -23 623 -23 Z M 397 651 L 821 651 C 813 727 791 784 756 822 C 721 860 673 879 612 879 C 561 879 516 860 476 824 C 436 788 409 730 397 651 Z" unicode="" />
<glyph horiz-adv-x="1182" d="M 66 0 L 66 0 Z M 809 1182 C 783 1182 761 1186 741 1195 C 721 1203 704 1215 691 1230 C 678 1245 668 1263 661 1283 C 654 1303 651 1325 651 1348 C 651 1392 664 1431 691 1463 C 718 1495 757 1511 809 1511 C 861 1511 901 1495 929 1463 C 957 1431 971 1392 971 1348 C 971 1325 967 1303 960 1283 C 953 1263 943 1245 929 1230 C 915 1215 899 1203 879 1195 C 859 1186 835 1182 809 1182 Z M 371 1182 C 345 1182 323 1186 303 1195 C 283 1203 266 1215 253 1230 C 240 1245 230 1263 223 1283 C 216 1303 213 1325 213 1348 C 213 1392 226 1431 253 1463 C 280 1495 319 1511 371 1511 C 423 1511 463 1495 491 1463 C 518 1431 532 1392 532 1348 C 532 1325 528 1303 521 1283 C 514 1263 504 1245 491 1230 C 477 1215 461 1203 441 1195 C 421 1186 397 1182 371 1182 Z M 623 -23 C 552 -23 483 -13 416 6 C 348 26 289 58 237 102 C 185 146 144 205 113 278 C 81 351 66 440 66 545 C 66 650 84 739 120 812 C 156 885 201 944 255 988 C 309 1032 369 1064 433 1084 C 497 1104 558 1114 614 1114 C 670 1114 727 1105 787 1088 C 847 1071 901 1040 949 995 C 997 950 1037 888 1069 809 C 1100 730 1116 629 1116 506 L 1116 457 L 393 457 C 401 367 429 302 475 264 C 521 226 579 207 647 207 C 711 207 772 219 831 244 C 890 268 938 297 975 330 L 1098 141 C 1034 87 963 46 884 18 C 804 -9 717 -23 623 -23 Z M 397 651 L 821 651 C 813 727 791 784 756 822 C 721 860 673 879 612 879 C 561 879 516 860 476 824 C 436 788 409 730 397 651 Z" unicode="" />
<glyph horiz-adv-x="602" d="M 0 0 L 0 0 Z M 465 0 L 137 0 L 137 1092 L 465 1092 L 465 0 Z M 207 1208 L -96 1563 L 233 1563 L 424 1208 L 207 1208 Z" unicode="" />
<glyph horiz-adv-x="602" d="M 137 0 L 137 0 Z M 182 1208 L 373 1563 L 704 1563 L 399 1208 L 182 1208 Z M 465 0 L 137 0 L 137 1092 L 465 1092 L 465 0 Z" unicode="" />
<glyph horiz-adv-x="602" d="M 0 0 L 0 0 Z M -71 1212 L 193 1563 L 412 1563 L 676 1212 L 490 1212 L 299 1364 L 115 1212 L -71 1212 Z M 465 0 L 137 0 L 137 1092 L 465 1092 L 465 0 Z" unicode="" />
<glyph horiz-adv-x="602" d="M 0 0 L 0 0 Z M 518 1182 C 492 1182 470 1186 450 1195 C 430 1203 413 1215 400 1230 C 387 1245 377 1263 370 1283 C 363 1303 360 1325 360 1348 C 360 1392 373 1431 400 1463 C 427 1495 466 1511 518 1511 C 570 1511 610 1495 638 1463 C 666 1431 680 1392 680 1348 C 680 1325 676 1303 669 1283 C 662 1263 652 1245 638 1230 C 624 1215 608 1203 588 1195 C 568 1186 544 1182 518 1182 Z M 80 1182 C 54 1182 32 1186 12 1195 C -8 1203 -24 1215 -37 1230 C -50 1245 -60 1263 -67 1283 C -74 1303 -78 1325 -78 1348 C -78 1392 -64 1431 -37 1463 C -10 1495 28 1511 80 1511 C 132 1511 172 1495 200 1463 C 227 1431 241 1392 241 1348 C 241 1325 237 1303 230 1283 C 223 1263 213 1245 200 1230 C 186 1215 170 1203 150 1195 C 130 1186 106 1182 80 1182 Z M 465 0 L 137 0 L 137 1092 L 465 1092 L 465 0 Z" unicode="" />
<glyph horiz-adv-x="1245" d="M 623 -23 C 543 -23 469 -11 401 11 C 333 34 274 67 226 111 C 177 155 139 208 111 272 C 83 336 70 408 70 489 C 70 573 82 648 108 712 C 134 776 168 829 211 871 C 254 913 304 945 362 967 C 419 988 479 999 543 999 C 565 999 589 996 616 992 C 643 987 670 979 697 969 C 724 959 751 945 777 929 C 803 913 826 893 846 870 C 835 917 820 963 802 1008 C 783 1052 760 1095 733 1135 L 578 1059 L 483 1229 L 612 1290 C 592 1309 573 1328 553 1346 C 533 1364 511 1381 489 1399 L 645 1575 C 681 1551 715 1527 749 1501 C 782 1475 813 1447 842 1419 L 1008 1503 L 1100 1333 L 967 1264 C 1036 1164 1088 1052 1123 930 C 1158 807 1176 677 1176 539 C 1176 450 1162 371 1134 301 C 1106 231 1068 172 1020 124 C 971 76 913 40 845 15 C 777 -10 703 -23 623 -23 Z M 623 209 C 691 209 745 233 786 282 C 827 331 848 402 848 496 C 848 584 827 653 786 703 C 745 753 691 778 623 778 C 554 778 499 753 458 705 C 417 657 397 586 397 494 C 397 404 417 334 458 284 C 498 234 553 209 623 209 Z" unicode="" />
<glyph horiz-adv-x="1266" d="M 129 0 L 129 0 Z M 459 0 L 129 0 L 129 1092 L 434 1092 L 459 920 C 475 941 494 963 518 986 C 542 1009 569 1030 600 1049 C 631 1067 666 1083 706 1095 C 745 1107 788 1114 836 1114 C 882 1114 924 1108 963 1096 C 1002 1084 1035 1065 1063 1040 C 1091 1014 1113 981 1129 941 C 1145 901 1153 853 1153 797 L 1153 0 L 825 0 L 825 692 C 825 741 815 778 795 804 C 775 829 742 842 696 842 C 652 842 610 831 571 811 C 532 791 495 765 459 733 L 459 0 Z M 792 1188 C 754 1188 722 1194 695 1206 C 667 1218 642 1231 620 1245 C 598 1259 577 1273 557 1285 C 537 1297 515 1303 493 1303 C 466 1303 446 1293 432 1274 C 418 1254 411 1222 413 1178 L 235 1206 C 235 1308 257 1386 302 1439 C 346 1491 405 1518 479 1518 C 516 1518 548 1512 576 1500 C 603 1488 628 1474 650 1460 C 672 1446 694 1433 714 1421 C 734 1409 755 1403 778 1403 C 804 1403 825 1412 839 1431 C 853 1450 860 1482 858 1528 L 1034 1499 C 1034 1398 1012 1321 968 1268 C 924 1214 865 1188 792 1188 Z" unicode="" />
<glyph horiz-adv-x="1247" d="M 66 0 L 66 0 Z M 625 -23 C 559 -23 492 -13 426 6 C 359 26 299 58 246 102 C 193 146 150 204 116 277 C 82 350 66 439 66 545 C 66 651 82 741 116 814 C 149 887 192 946 245 990 C 298 1034 358 1065 425 1085 C 491 1104 558 1114 625 1114 C 691 1114 757 1104 823 1085 C 889 1065 949 1034 1002 990 C 1055 946 1098 887 1132 814 C 1165 741 1182 651 1182 545 C 1182 439 1165 350 1132 277 C 1098 204 1055 146 1002 102 C 949 58 889 26 823 6 C 757 -13 691 -23 625 -23 Z M 625 209 C 663 209 697 217 726 233 C 754 249 778 272 797 301 C 815 330 829 365 838 407 C 847 448 852 493 852 543 C 852 588 847 631 839 671 C 831 711 817 745 799 775 C 781 805 757 828 729 846 C 700 863 665 872 625 872 C 585 872 551 864 522 848 C 493 832 469 809 451 781 C 432 752 418 717 409 677 C 399 636 395 591 395 543 C 395 497 399 454 407 414 C 415 373 429 337 447 307 C 465 277 488 253 518 235 C 547 217 583 209 625 209 Z M 572 1208 L 269 1563 L 598 1563 L 789 1208 L 572 1208 Z" unicode="" />
<glyph horiz-adv-x="1247" d="M 66 0 L 66 0 Z M 457 1208 L 648 1563 L 979 1563 L 674 1208 L 457 1208 Z M 625 -23 C 559 -23 492 -13 426 6 C 359 26 299 58 246 102 C 193 146 150 204 116 277 C 82 350 66 439 66 545 C 66 651 82 741 116 814 C 149 887 192 946 245 990 C 298 1034 358 1065 425 1085 C 491 1104 558 1114 625 1114 C 691 1114 757 1104 823 1085 C 889 1065 949 1034 1002 990 C 1055 946 1098 887 1132 814 C 1165 741 1182 651 1182 545 C 1182 439 1165 350 1132 277 C 1098 204 1055 146 1002 102 C 949 58 889 26 823 6 C 757 -13 691 -23 625 -23 Z M 625 209 C 663 209 697 217 726 233 C 754 249 778 272 797 301 C 815 330 829 365 838 407 C 847 448 852 493 852 543 C 852 588 847 631 839 671 C 831 711 817 745 799 775 C 781 805 757 828 729 846 C 700 863 665 872 625 872 C 585 872 551 864 522 848 C 493 832 469 809 451 781 C 432 752 418 717 409 677 C 399 636 395 591 395 543 C 395 497 399 454 407 414 C 415 373 429 337 447 307 C 465 277 488 253 518 235 C 547 217 583 209 625 209 Z" unicode="" />
<glyph horiz-adv-x="1247" d="M 66 0 L 66 0 Z M 250 1212 L 514 1563 L 733 1563 L 997 1212 L 811 1212 L 620 1364 L 436 1212 L 250 1212 Z M 625 -23 C 559 -23 492 -13 426 6 C 359 26 299 58 246 102 C 193 146 150 204 116 277 C 82 350 66 439 66 545 C 66 651 82 741 116 814 C 149 887 192 946 245 990 C 298 1034 358 1065 425 1085 C 491 1104 558 1114 625 1114 C 691 1114 757 1104 823 1085 C 889 1065 949 1034 1002 990 C 1055 946 1098 887 1132 814 C 1165 741 1182 651 1182 545 C 1182 439 1165 350 1132 277 C 1098 204 1055 146 1002 102 C 949 58 889 26 823 6 C 757 -13 691 -23 625 -23 Z M 625 209 C 663 209 697 217 726 233 C 754 249 778 272 797 301 C 815 330 829 365 838 407 C 847 448 852 493 852 543 C 852 588 847 631 839 671 C 831 711 817 745 799 775 C 781 805 757 828 729 846 C 700 863 665 872 625 872 C 585 872 551 864 522 848 C 493 832 469 809 451 781 C 432 752 418 717 409 677 C 399 636 395 591 395 543 C 395 497 399 454 407 414 C 415 373 429 337 447 307 C 465 277 488 253 518 235 C 547 217 583 209 625 209 Z" unicode="" />
<glyph horiz-adv-x="1247" d="M 66 0 L 66 0 Z M 625 -23 C 559 -23 492 -13 426 6 C 359 26 299 58 246 102 C 193 146 150 204 116 277 C 82 350 66 439 66 545 C 66 651 82 741 116 814 C 149 887 192 946 245 990 C 298 1034 358 1065 425 1085 C 491 1104 558 1114 625 1114 C 691 1114 757 1104 823 1085 C 889 1065 949 1034 1002 990 C 1055 946 1098 887 1132 814 C 1165 741 1182 651 1182 545 C 1182 439 1165 350 1132 277 C 1098 204 1055 146 1002 102 C 949 58 889 26 823 6 C 757 -13 691 -23 625 -23 Z M 625 209 C 663 209 697 217 726 233 C 754 249 778 272 797 301 C 815 330 829 365 838 407 C 847 448 852 493 852 543 C 852 588 847 631 839 671 C 831 711 817 745 799 775 C 781 805 757 828 729 846 C 700 863 665 872 625 872 C 585 872 551 864 522 848 C 493 832 469 809 451 781 C 432 752 418 717 409 677 C 399 636 395 591 395 543 C 395 497 399 454 407 414 C 415 373 429 337 447 307 C 465 277 488 253 518 235 C 547 217 583 209 625 209 Z M 780 1188 C 742 1188 710 1194 683 1206 C 655 1218 630 1231 608 1245 C 586 1259 565 1273 545 1285 C 525 1297 503 1303 481 1303 C 454 1303 434 1293 420 1274 C 406 1254 399 1222 401 1178 L 223 1206 C 223 1308 245 1386 290 1439 C 334 1491 393 1518 467 1518 C 504 1518 536 1512 564 1500 C 591 1488 616 1474 638 1460 C 660 1446 682 1433 702 1421 C 722 1409 743 1403 766 1403 C 792 1403 813 1412 827 1431 C 841 1450 848 1482 846 1528 L 1022 1499 C 1022 1398 1000 1321 956 1268 C 912 1214 853 1188 780 1188 Z" unicode="" />
<glyph horiz-adv-x="1247" d="M 66 0 L 66 0 Z M 840 1182 C 814 1182 792 1186 772 1195 C 752 1203 735 1215 722 1230 C 709 1245 699 1263 692 1283 C 685 1303 682 1325 682 1348 C 682 1392 695 1431 722 1463 C 749 1495 788 1511 840 1511 C 892 1511 932 1495 960 1463 C 988 1431 1002 1392 1002 1348 C 1002 1325 998 1303 991 1283 C 984 1263 974 1245 960 1230 C 946 1215 930 1203 910 1195 C 890 1186 866 1182 840 1182 Z M 402 1182 C 376 1182 354 1186 334 1195 C 314 1203 297 1215 284 1230 C 271 1245 261 1263 254 1283 C 247 1303 244 1325 244 1348 C 244 1392 257 1431 284 1463 C 311 1495 350 1511 402 1511 C 454 1511 494 1495 522 1463 C 549 1431 563 1392 563 1348 C 563 1325 559 1303 552 1283 C 545 1263 535 1245 522 1230 C 508 1215 492 1203 472 1195 C 452 1186 428 1182 402 1182 Z M 625 -23 C 559 -23 492 -13 426 6 C 359 26 299 58 246 102 C 193 146 150 204 116 277 C 82 350 66 439 66 545 C 66 651 82 741 116 814 C 149 887 192 946 245 990 C 298 1034 358 1065 425 1085 C 491 1104 558 1114 625 1114 C 691 1114 757 1104 823 1085 C 889 1065 949 1034 1002 990 C 1055 946 1098 887 1132 814 C 1165 741 1182 651 1182 545 C 1182 439 1165 350 1132 277 C 1098 204 1055 146 1002 102 C 949 58 889 26 823 6 C 757 -13 691 -23 625 -23 Z M 625 209 C 663 209 697 217 726 233 C 754 249 778 272 797 301 C 815 330 829 365 838 407 C 847 448 852 493 852 543 C 852 588 847 631 839 671 C 831 711 817 745 799 775 C 781 805 757 828 729 846 C 700 863 665 872 625 872 C 585 872 551 864 522 848 C 493 832 469 809 451 781 C 432 752 418 717 409 677 C 399 636 395 591 395 543 C 395 497 399 454 407 414 C 415 373 429 337 447 307 C 465 277 488 253 518 235 C 547 217 583 209 625 209 Z" unicode="" />
<glyph horiz-adv-x="1323" d="M 657 965 C 606 965 567 979 540 1008 C 513 1037 500 1071 500 1110 C 500 1150 513 1183 540 1211 C 567 1239 606 1253 657 1253 C 708 1253 747 1239 775 1211 C 803 1183 817 1150 817 1110 C 817 1071 803 1037 775 1008 C 747 979 708 965 657 965 Z M 1186 588 L 137 588 L 137 848 L 1186 848 L 1186 588 Z M 657 172 C 606 172 567 186 540 216 C 513 245 500 279 500 317 C 500 357 513 391 540 419 C 567 447 606 461 657 461 C 708 461 747 447 775 419 C 803 391 817 357 817 317 C 817 279 803 245 775 216 C 747 186 708 172 657 172 Z" unicode="" />
<glyph horiz-adv-x="1247" d="M 401 410 L 768 825 C 750 842 729 855 705 865 C 681 874 654 879 625 879 C 585 879 550 870 520 854 C 490 837 465 814 445 785 C 425 755 411 720 401 679 C 391 637 387 592 387 543 C 387 519 388 496 390 474 C 392 452 396 430 401 410 Z M 850 664 L 483 254 C 501 238 522 226 545 218 C 568 209 595 205 625 205 C 664 205 698 213 728 229 C 758 245 782 268 802 298 C 821 328 835 363 845 405 C 855 447 860 493 860 543 C 860 564 859 585 857 605 C 855 625 852 645 850 664 Z M 1196 1036 L 1079 907 C 1111 864 1136 812 1154 752 C 1172 692 1182 623 1182 545 C 1182 439 1165 350 1132 277 C 1098 204 1055 146 1002 102 C 949 58 889 26 823 6 C 757 -13 691 -23 625 -23 C 571 -23 518 -16 464 -4 C 410 7 359 27 311 55 L 180 -86 L 51 39 L 176 174 C 142 218 116 270 96 332 C 76 393 66 464 66 545 C 66 651 82 741 116 814 C 149 887 192 946 245 990 C 298 1034 358 1065 425 1085 C 491 1104 558 1114 625 1114 C 679 1114 735 1107 791 1094 C 847 1080 899 1058 948 1028 L 1067 1159 L 1196 1036 Z" unicode="" />
<glyph horiz-adv-x="1266" d="M 115 0 L 115 0 Z M 434 -23 C 388 -23 345 -17 306 -5 C 266 7 233 25 205 51 C 177 77 155 110 139 150 C 123 190 115 239 115 295 L 115 1092 L 444 1092 L 444 391 C 444 342 454 305 474 279 C 494 253 527 240 573 240 C 617 240 658 250 697 271 C 736 292 774 318 811 350 L 811 1092 L 1141 1092 L 1141 0 L 836 0 L 811 170 C 794 149 774 127 751 104 C 727 81 700 60 669 42 C 638 23 603 7 564 -4 C 524 -16 481 -23 434 -23 Z M 582 1208 L 279 1563 L 608 1563 L 799 1208 L 582 1208 Z" unicode="" />
<glyph horiz-adv-x="1266" d="M 115 0 L 115 0 Z M 448 1208 L 639 1563 L 970 1563 L 665 1208 L 448 1208 Z M 434 -23 C 388 -23 345 -17 306 -5 C 266 7 233 25 205 51 C 177 77 155 110 139 150 C 123 190 115 239 115 295 L 115 1092 L 444 1092 L 444 391 C 444 342 454 305 474 279 C 494 253 527 240 573 240 C 617 240 658 250 697 271 C 736 292 774 318 811 350 L 811 1092 L 1141 1092 L 1141 0 L 836 0 L 811 170 C 794 149 774 127 751 104 C 727 81 700 60 669 42 C 638 23 603 7 564 -4 C 524 -16 481 -23 434 -23 Z" unicode="" />
<glyph horiz-adv-x="1266" d="M 115 0 L 115 0 Z M 252 1212 L 516 1563 L 735 1563 L 999 1212 L 813 1212 L 622 1364 L 438 1212 L 252 1212 Z M 434 -23 C 388 -23 345 -17 306 -5 C 266 7 233 25 205 51 C 177 77 155 110 139 150 C 123 190 115 239 115 295 L 115 1092 L 444 1092 L 444 391 C 444 342 454 305 474 279 C 494 253 527 240 573 240 C 617 240 658 250 697 271 C 736 292 774 318 811 350 L 811 1092 L 1141 1092 L 1141 0 L 836 0 L 811 170 C 794 149 774 127 751 104 C 727 81 700 60 669 42 C 638 23 603 7 564 -4 C 524 -16 481 -23 434 -23 Z" unicode="" />
<glyph horiz-adv-x="1266" d="M 115 0 L 115 0 Z M 844 1182 C 818 1182 796 1186 776 1195 C 756 1203 739 1215 726 1230 C 713 1245 703 1263 696 1283 C 689 1303 686 1325 686 1348 C 686 1392 699 1431 726 1463 C 753 1495 792 1511 844 1511 C 896 1511 936 1495 964 1463 C 992 1431 1006 1392 1006 1348 C 1006 1325 1002 1303 995 1283 C 988 1263 978 1245 964 1230 C 950 1215 934 1203 914 1195 C 894 1186 870 1182 844 1182 Z M 406 1182 C 380 1182 358 1186 338 1195 C 318 1203 301 1215 288 1230 C 275 1245 265 1263 258 1283 C 251 1303 248 1325 248 1348 C 248 1392 261 1431 288 1463 C 315 1495 354 1511 406 1511 C 458 1511 498 1495 526 1463 C 553 1431 567 1392 567 1348 C 567 1325 563 1303 556 1283 C 549 1263 539 1245 526 1230 C 512 1215 496 1203 476 1195 C 456 1186 432 1182 406 1182 Z M 434 -23 C 388 -23 345 -17 306 -5 C 266 7 233 25 205 51 C 177 77 155 110 139 150 C 123 190 115 239 115 295 L 115 1092 L 444 1092 L 444 391 C 444 342 454 305 474 279 C 494 253 527 240 573 240 C 617 240 658 250 697 271 C 736 292 774 318 811 350 L 811 1092 L 1141 1092 L 1141 0 L 836 0 L 811 170 C 794 149 774 127 751 104 C 727 81 700 60 669 42 C 638 23 603 7 564 -4 C 524 -16 481 -23 434 -23 Z" unicode="" />
<glyph horiz-adv-x="1147" d="M 14 0 L 14 0 Z M 297 -418 C 257 -418 220 -416 186 -414 C 152 -411 120 -407 92 -401 L 68 -127 C 92 -133 121 -139 155 -145 C 188 -151 224 -154 262 -154 C 298 -154 327 -146 349 -132 C 371 -117 388 -93 401 -59 L 422 -6 L 14 1067 L 338 1116 L 584 383 L 588 383 L 829 1092 L 1149 1092 L 690 -115 C 671 -161 650 -203 628 -241 C 605 -279 578 -311 548 -337 C 517 -363 481 -383 440 -397 C 399 -411 351 -418 297 -418 Z M 379 1208 L 570 1563 L 901 1563 L 596 1208 L 379 1208 Z" unicode="" />
<glyph horiz-adv-x="1278" d="M 674 231 C 742 231 793 258 828 313 C 863 368 881 445 881 545 C 881 635 864 707 830 761 C 796 815 743 842 670 842 C 628 842 588 831 551 809 C 514 787 482 763 455 735 L 455 332 C 490 298 524 272 558 256 C 591 239 630 231 674 231 Z M 455 -385 L 125 -434 L 125 1491 L 455 1540 L 455 926 C 472 950 492 974 514 997 C 536 1019 561 1039 589 1057 C 616 1074 646 1088 680 1098 C 714 1108 751 1114 791 1114 C 852 1114 908 1102 960 1078 C 1012 1054 1056 1018 1093 971 C 1129 924 1158 865 1179 794 C 1199 723 1210 641 1210 547 C 1210 453 1199 370 1179 300 C 1158 229 1129 170 1092 124 C 1054 77 1009 42 957 19 C 905 -4 848 -16 786 -16 C 712 -16 649 -3 596 22 C 542 47 495 83 455 129 L 455 -385 Z" unicode="" />
<glyph horiz-adv-x="1147" d="M 14 0 L 14 0 Z M 297 -418 C 257 -418 220 -416 186 -414 C 152 -411 120 -407 92 -401 L 68 -127 C 92 -133 121 -139 155 -145 C 188 -151 224 -154 262 -154 C 298 -154 327 -146 349 -132 C 371 -117 388 -93 401 -59 L 422 -6 L 14 1067 L 338 1116 L 584 383 L 588 383 L 829 1092 L 1149 1092 L 690 -115 C 671 -161 650 -203 628 -241 C 605 -279 578 -311 548 -337 C 517 -363 481 -383 440 -397 C 399 -411 351 -418 297 -418 Z M 803 1182 C 777 1182 755 1186 735 1195 C 715 1203 698 1215 685 1230 C 672 1245 662 1263 655 1283 C 648 1303 645 1325 645 1348 C 645 1392 658 1431 685 1463 C 712 1495 751 1511 803 1511 C 855 1511 895 1495 923 1463 C 951 1431 965 1392 965 1348 C 965 1325 961 1303 954 1283 C 947 1263 937 1245 923 1230 C 909 1215 893 1203 873 1195 C 853 1186 829 1182 803 1182 Z M 365 1182 C 339 1182 317 1186 297 1195 C 277 1203 260 1215 247 1230 C 234 1245 224 1263 217 1283 C 210 1303 207 1325 207 1348 C 207 1392 220 1431 247 1463 C 274 1495 313 1511 365 1511 C 417 1511 457 1495 485 1463 C 512 1431 526 1392 526 1348 C 526 1325 522 1303 515 1283 C 508 1263 498 1245 485 1230 C 471 1215 455 1203 435 1195 C 415 1186 391 1182 365 1182 Z" unicode="" />
<glyph horiz-adv-x="1460" d="" unicode="" />
<glyph horiz-adv-x="1182" d="" unicode="" />
<glyph horiz-adv-x="1460" d="" unicode="" />
<glyph horiz-adv-x="1182" d="" unicode="" />
<glyph horiz-adv-x="1460" d="" unicode="" />
<glyph horiz-adv-x="1182" d="" unicode="" />
<glyph horiz-adv-x="1493" d="" unicode="" />
<glyph horiz-adv-x="1137" d="" unicode="" />
<glyph horiz-adv-x="1493" d="" unicode="" />
<glyph horiz-adv-x="1137" d="" unicode="" />
<glyph horiz-adv-x="1493" d="" unicode="" />
<glyph horiz-adv-x="1137" d="" unicode="" />
<glyph horiz-adv-x="1493" d="" unicode="" />
<glyph horiz-adv-x="1137" d="" unicode="" />
<glyph horiz-adv-x="1516" d="" unicode="" />
<glyph horiz-adv-x="1278" d="" unicode="" />
<glyph horiz-adv-x="1516" d="" unicode="" />
<glyph horiz-adv-x="1278" d="" unicode="" />
<glyph horiz-adv-x="1296" d="" unicode="" />
<glyph horiz-adv-x="1182" d="" unicode="" />
<glyph horiz-adv-x="1296" d="" unicode="" />
<glyph horiz-adv-x="1182" d="" unicode="" />
<glyph horiz-adv-x="1296" d="" unicode="" />
<glyph horiz-adv-x="1182" d="" unicode="" />
<glyph horiz-adv-x="1296" d="" unicode="" />
<glyph horiz-adv-x="1182" d="" unicode="" />
<glyph horiz-adv-x="1296" d="" unicode="" />
<glyph horiz-adv-x="1182" d="" unicode="" />
<glyph horiz-adv-x="1559" d="" unicode="" />
<glyph horiz-adv-x="1260" d="" unicode="" />
<glyph horiz-adv-x="1559" d="" unicode="" />
<glyph horiz-adv-x="1260" d="" unicode="" />
<glyph horiz-adv-x="1559" d="" unicode="" />
<glyph horiz-adv-x="1260" d="" unicode="" />
<glyph horiz-adv-x="1559" d="" unicode="" />
<glyph horiz-adv-x="1260" d="" unicode="" />
<glyph horiz-adv-x="1575" d="" unicode="" />
<glyph horiz-adv-x="1266" d="" unicode="" />
<glyph horiz-adv-x="1575" d="" unicode="" />
<glyph horiz-adv-x="1266" d="" unicode="" />
<glyph horiz-adv-x="676" d="" unicode="" />
<glyph horiz-adv-x="602" d="" unicode="" />
<glyph horiz-adv-x="676" d="" unicode="" />
<glyph horiz-adv-x="602" d="" unicode="" />
<glyph horiz-adv-x="676" d="" unicode="" />
<glyph horiz-adv-x="602" d="" unicode="" />
<glyph horiz-adv-x="676" d="" unicode="" />
<glyph horiz-adv-x="602" d="" unicode="" />
<glyph horiz-adv-x="676" d="" unicode="" />
<glyph horiz-adv-x="602" d="M 465 0 L 137 0 L 137 1092 L 465 1092 L 465 0 Z" unicode="" />
<glyph horiz-adv-x="1690" d="" unicode="" />
<glyph horiz-adv-x="1204" d="" unicode="" />
<glyph horiz-adv-x="1096" d="" unicode="" />
<glyph horiz-adv-x="602" d="" unicode="" />
<glyph horiz-adv-x="1470" d="" unicode="" />
<glyph horiz-adv-x="1198" d="" unicode="" />
<glyph horiz-adv-x="1198" d="" unicode="" />
<glyph horiz-adv-x="1200" d="" unicode="" />
<glyph horiz-adv-x="602" d="" unicode="" />
<glyph horiz-adv-x="1200" d="" unicode="" />
<glyph horiz-adv-x="602" d="" unicode="" />
<glyph horiz-adv-x="1200" d="" unicode="" />
<glyph horiz-adv-x="602" d="" unicode="" />
<glyph horiz-adv-x="1278" d="" unicode="" />
<glyph horiz-adv-x="899" d="" unicode="" />
<glyph horiz-adv-x="1200" d="" unicode="" />
<glyph horiz-adv-x="692" d="" unicode="" />
<glyph horiz-adv-x="1591" d="" unicode="" />
<glyph horiz-adv-x="1266" d="" unicode="" />
<glyph horiz-adv-x="1591" d="" unicode="" />
<glyph horiz-adv-x="1266" d="" unicode="" />
<glyph horiz-adv-x="1591" d="" unicode="" />
<glyph horiz-adv-x="1266" d="" unicode="" />
<glyph horiz-adv-x="1591" d="" unicode="" />
<glyph horiz-adv-x="1266" d="" unicode="" />
<glyph horiz-adv-x="1597" d="" unicode="" />
<glyph horiz-adv-x="1247" d="" unicode="" />
<glyph horiz-adv-x="1597" d="" unicode="" />
<glyph horiz-adv-x="1247" d="" unicode="" />
<glyph horiz-adv-x="1597" d="" unicode="" />
<glyph horiz-adv-x="1247" d="" unicode="" />
<glyph horiz-adv-x="2314" d="M 797 240 C 855 240 907 252 954 276 C 1001 300 1041 335 1074 380 C 1106 424 1131 479 1149 543 C 1167 607 1176 678 1176 758 C 1176 836 1167 907 1149 971 C 1131 1034 1106 1087 1074 1131 C 1041 1175 1001 1208 954 1232 C 907 1256 855 1268 797 1268 C 738 1268 685 1256 637 1232 C 589 1208 549 1175 517 1131 C 484 1087 459 1034 441 971 C 423 907 414 836 414 758 C 414 678 423 607 441 543 C 459 479 484 424 517 380 C 549 335 589 300 637 276 C 685 252 738 240 797 240 Z M 778 -29 C 688 -29 600 -12 516 19 C 432 51 358 100 294 165 C 230 229 178 311 140 410 C 101 509 82 625 82 758 C 82 890 102 1006 142 1105 C 182 1203 236 1285 302 1350 C 368 1415 444 1464 530 1496 C 616 1528 705 1544 797 1544 C 876 1544 951 1530 1021 1502 C 1091 1474 1154 1436 1208 1386 L 1208 1516 L 2206 1516 L 2206 1237 L 1507 1237 L 1507 911 L 1989 911 L 2038 647 L 1507 647 L 1507 270 L 2243 270 L 2243 0 L 1208 0 L 1208 131 C 1154 81 1091 41 1019 13 C 947 -14 866 -29 778 -29 Z" unicode="" />
<glyph horiz-adv-x="1952" d="M 623 -23 C 557 -23 490 -13 424 6 C 357 26 297 58 245 102 C 192 146 149 204 116 277 C 82 350 66 439 66 545 C 66 651 82 741 115 814 C 148 887 191 946 244 990 C 296 1034 356 1065 423 1085 C 489 1104 556 1114 623 1114 C 698 1114 769 1097 836 1064 C 903 1031 960 979 1008 909 C 1032 944 1059 975 1089 1001 C 1119 1027 1150 1048 1182 1065 C 1214 1081 1248 1094 1282 1102 C 1316 1110 1350 1114 1384 1114 C 1442 1114 1502 1105 1562 1088 C 1622 1071 1676 1040 1724 995 C 1772 950 1812 888 1842 809 C 1872 730 1888 629 1888 506 L 1888 457 L 1167 457 C 1174 366 1201 302 1247 264 C 1293 226 1351 207 1419 207 C 1485 207 1547 219 1605 243 C 1663 267 1711 296 1747 330 L 1870 141 C 1806 87 1735 46 1655 18 C 1575 -9 1488 -23 1395 -23 C 1317 -23 1244 -7 1175 24 C 1106 56 1048 104 1001 170 C 956 104 900 55 834 24 C 767 -7 697 -23 623 -23 Z M 1169 651 L 1593 651 C 1585 727 1563 784 1528 821 C 1492 858 1444 877 1382 877 C 1332 877 1287 859 1248 823 C 1208 787 1182 730 1169 651 Z M 623 217 C 662 217 696 224 725 240 C 753 255 777 277 795 305 C 813 333 827 368 836 408 C 845 448 850 493 850 543 C 850 588 845 630 837 670 C 829 709 816 743 798 772 C 780 801 756 824 728 841 C 699 857 664 866 623 866 C 583 866 549 858 521 843 C 492 827 468 806 450 778 C 431 750 417 716 408 676 C 399 636 395 591 395 543 C 395 497 399 455 407 415 C 415 375 428 340 446 311 C 464 282 487 259 516 242 C 545 225 581 217 623 217 Z" unicode="" />
<glyph horiz-adv-x="1444" d="" unicode="" />
<glyph horiz-adv-x="866" d="" unicode="" />
<glyph horiz-adv-x="1444" d="" unicode="" />
<glyph horiz-adv-x="866" d="" unicode="" />
<glyph horiz-adv-x="1444" d="" unicode="" />
<glyph horiz-adv-x="866" d="" unicode="" />
<glyph horiz-adv-x="1417" d="" unicode="" />
<glyph horiz-adv-x="1094" d="" unicode="" />
<glyph horiz-adv-x="1417" d="" unicode="" />
<glyph horiz-adv-x="1094" d="" unicode="" />
<glyph horiz-adv-x="1417" d="" unicode="" />
<glyph horiz-adv-x="1094" d="" unicode="" />
<glyph horiz-adv-x="1417" d="M 74 0 L 74 0 Z M 598 1615 L 334 1966 L 520 1966 L 706 1814 L 895 1966 L 1081 1966 L 817 1615 L 598 1615 Z M 735 -29 C 663 -29 596 -21 532 -7 C 468 7 409 27 354 52 C 299 77 248 106 201 139 C 154 171 112 206 74 242 L 248 465 C 275 436 307 408 345 380 C 382 352 422 328 464 307 C 506 285 549 268 594 255 C 639 242 683 236 725 236 C 765 236 801 239 835 247 C 869 254 898 265 922 279 C 946 293 964 311 978 333 C 992 355 999 380 999 410 C 999 466 972 510 920 541 C 867 571 791 601 692 629 C 624 647 557 667 491 688 C 425 709 366 736 314 769 C 262 802 219 844 187 896 C 155 947 139 1012 139 1092 C 139 1162 152 1225 179 1281 C 206 1337 244 1385 292 1424 C 340 1462 397 1492 465 1513 C 532 1533 606 1544 686 1544 C 744 1544 800 1538 855 1526 C 910 1514 962 1498 1012 1478 C 1061 1458 1108 1434 1152 1408 C 1196 1381 1236 1353 1272 1325 L 1118 1087 C 1090 1110 1060 1133 1026 1155 C 992 1177 956 1197 919 1215 C 882 1232 844 1246 806 1256 C 767 1266 730 1272 694 1272 C 620 1272 564 1257 524 1229 C 484 1201 465 1164 465 1120 C 465 1090 472 1064 486 1042 C 500 1020 520 1001 546 985 C 572 969 605 954 644 941 C 682 928 726 915 776 901 C 842 883 908 863 974 841 C 1040 819 1098 790 1150 756 C 1202 722 1244 679 1276 627 C 1308 575 1325 510 1325 432 C 1325 371 1313 313 1289 257 C 1265 201 1228 152 1180 110 C 1132 68 1070 34 996 9 C 922 -16 835 -29 735 -29 Z" unicode="" />
<glyph horiz-adv-x="1094" d="M 51 0 L 51 0 Z M 439 1214 L 175 1565 L 361 1565 L 547 1413 L 736 1565 L 922 1565 L 658 1214 L 439 1214 Z M 555 -23 C 500 -23 448 -18 400 -10 C 352 -1 307 10 265 24 C 223 38 185 55 149 74 C 113 92 80 112 51 133 L 162 326 C 188 307 217 289 249 273 C 281 256 314 241 348 229 C 382 216 416 206 452 199 C 487 191 521 188 555 188 C 605 188 647 196 680 214 C 712 232 729 259 729 295 C 729 333 713 361 681 379 C 649 397 596 412 522 426 C 470 435 419 446 368 459 C 316 471 270 490 230 514 C 190 538 157 571 132 611 C 106 651 94 704 94 768 C 94 822 104 871 126 914 C 147 957 176 993 214 1023 C 252 1052 297 1074 349 1090 C 401 1106 457 1114 518 1114 C 618 1114 706 1102 781 1078 C 855 1054 925 1023 989 985 L 889 788 C 833 822 774 848 714 866 C 653 884 597 893 547 893 C 500 893 464 884 438 867 C 412 849 399 826 399 797 C 399 764 414 739 446 723 C 477 707 526 692 594 680 C 647 670 700 659 753 647 C 806 634 853 616 895 592 C 937 568 971 536 997 497 C 1023 458 1036 408 1036 346 C 1036 280 1022 223 996 177 C 969 130 934 92 890 62 C 846 32 794 11 736 -2 C 678 -16 617 -23 555 -23 Z" unicode="" />
<glyph horiz-adv-x="1327" d="" unicode="" />
<glyph horiz-adv-x="874" d="" unicode="" />
<glyph horiz-adv-x="1327" d="" unicode="" />
<glyph horiz-adv-x="874" d="" unicode="" />
<glyph horiz-adv-x="1485" d="" unicode="" />
<glyph horiz-adv-x="1266" d="" unicode="" />
<glyph horiz-adv-x="1485" d="" unicode="" />
<glyph horiz-adv-x="1266" d="" unicode="" />
<glyph horiz-adv-x="1485" d="" unicode="" />
<glyph horiz-adv-x="1266" d="" unicode="" />
<glyph horiz-adv-x="1485" d="" unicode="" />
<glyph horiz-adv-x="1266" d="" unicode="" />
<glyph horiz-adv-x="1485" d="" unicode="" />
<glyph horiz-adv-x="1266" d="" unicode="" />
<glyph horiz-adv-x="1485" d="" unicode="" />
<glyph horiz-adv-x="1266" d="" unicode="" />
<glyph horiz-adv-x="1958" d="" unicode="" />
<glyph horiz-adv-x="1587" d="" unicode="" />
<glyph horiz-adv-x="1415" d="" unicode="" />
<glyph horiz-adv-x="1147" d="" unicode="" />
<glyph horiz-adv-x="1415" d="M 33 0 L 33 0 Z M 872 0 L 541 0 L 541 643 L 33 1491 L 348 1540 L 709 926 L 1057 1516 L 1397 1516 L 872 643 L 872 0 Z M 928 1577 C 902 1577 880 1581 860 1590 C 840 1598 823 1610 810 1625 C 797 1640 787 1658 780 1678 C 773 1698 770 1720 770 1743 C 770 1787 783 1826 810 1858 C 837 1890 876 1906 928 1906 C 980 1906 1020 1890 1048 1858 C 1076 1826 1090 1787 1090 1743 C 1090 1720 1086 1698 1079 1678 C 1072 1658 1062 1640 1048 1625 C 1034 1610 1018 1598 998 1590 C 978 1581 954 1577 928 1577 Z M 490 1577 C 464 1577 442 1581 422 1590 C 402 1598 385 1610 372 1625 C 359 1640 349 1658 342 1678 C 335 1698 332 1720 332 1743 C 332 1787 345 1826 372 1858 C 399 1890 438 1906 490 1906 C 542 1906 582 1890 610 1858 C 637 1826 651 1787 651 1743 C 651 1720 647 1698 640 1678 C 633 1658 623 1640 610 1625 C 596 1610 580 1598 560 1590 C 540 1581 516 1577 490 1577 Z" unicode="" />
<glyph horiz-adv-x="1352" d="" unicode="" />
<glyph horiz-adv-x="1085" d="" unicode="" />
<glyph horiz-adv-x="1352" d="" unicode="" />
<glyph horiz-adv-x="1085" d="" unicode="" />
<glyph horiz-adv-x="1352" d="M 61 0 L 61 0 Z M 580 1615 L 316 1966 L 502 1966 L 688 1814 L 877 1966 L 1063 1966 L 799 1615 L 580 1615 Z M 1296 0 L 61 0 L 61 229 L 852 1239 L 137 1239 L 88 1516 L 1272 1516 L 1272 1278 L 498 270 L 1247 270 L 1296 0 Z" unicode="" />
<glyph horiz-adv-x="1085" d="M 59 0 L 59 0 Z M 443 1214 L 179 1565 L 365 1565 L 551 1413 L 740 1565 L 926 1565 L 662 1214 L 443 1214 Z M 1057 0 L 59 0 L 59 170 L 588 852 L 119 852 L 78 1092 L 995 1092 L 995 918 L 465 233 L 1016 233 L 1057 0 Z" unicode="" />
<glyph horiz-adv-x="860" d="M -184 -401 L -156 -180 C -147 -182 -133 -183 -114 -185 C -95 -187 -77 -188 -61 -188 C -10 -188 29 -175 58 -151 C 87 -126 105 -85 113 -27 L 217 786 L 29 786 L 57 1016 L 246 1016 L 264 1167 C 269 1213 279 1258 294 1301 C 308 1344 331 1382 363 1415 C 394 1448 436 1474 489 1494 C 542 1514 609 1524 690 1524 C 706 1524 725 1523 746 1522 C 766 1520 786 1519 806 1518 C 825 1516 842 1515 858 1513 C 873 1511 883 1509 889 1509 L 858 1280 C 850 1282 836 1283 817 1285 C 798 1287 780 1288 764 1288 C 744 1288 724 1286 705 1284 C 685 1281 668 1275 652 1266 C 636 1257 623 1244 612 1227 C 601 1209 594 1186 592 1157 L 575 1016 L 813 1016 L 784 786 L 547 786 L 434 -92 C 429 -132 420 -171 406 -210 C 392 -249 369 -284 338 -314 C 307 -344 265 -369 213 -388 C 160 -406 93 -416 12 -416 C -4 -416 -22 -415 -43 -414 C -63 -413 -83 -412 -103 -410 C -122 -408 -139 -407 -154 -405 C -169 -403 -179 -402 -184 -401 Z" unicode="" />
<glyph horiz-adv-x="1417" d="" unicode="" />
<glyph horiz-adv-x="1094" d="" unicode="" />
<glyph horiz-adv-x="1327" d="" unicode="" />
<glyph horiz-adv-x="874" d="" unicode="" />
<glyph horiz-adv-x="1182" d="" unicode="" />
<glyph horiz-adv-x="578" d="" unicode="" />
<glyph horiz-adv-x="578" d="" unicode="" />
<glyph horiz-adv-x="1133" d="M 193 1212 L 457 1563 L 676 1563 L 940 1212 L 754 1212 L 563 1364 L 379 1212 L 193 1212 Z" unicode="" />
<glyph horiz-adv-x="1133" d="M 457 1214 L 193 1565 L 379 1565 L 565 1413 L 754 1565 L 940 1565 L 676 1214 L 457 1214 Z" unicode="" />
<glyph horiz-adv-x="1024" d="" unicode="" />
<glyph horiz-adv-x="1024" d="" unicode="" />
<glyph horiz-adv-x="1024" d="" unicode="" />
<glyph horiz-adv-x="1106" d="M 553 1190 C 521 1190 491 1195 464 1207 C 436 1218 413 1234 393 1254 C 373 1274 358 1297 347 1325 C 335 1353 330 1383 330 1415 C 330 1446 335 1475 347 1502 C 358 1529 373 1552 393 1572 C 413 1592 436 1607 464 1619 C 491 1630 521 1636 553 1636 C 585 1636 614 1630 642 1619 C 670 1607 694 1592 714 1572 C 734 1552 749 1529 761 1502 C 772 1475 778 1446 778 1415 C 778 1383 772 1353 761 1325 C 749 1297 734 1274 714 1254 C 694 1234 670 1218 642 1207 C 614 1195 585 1190 553 1190 Z M 553 1315 C 580 1315 602 1324 620 1343 C 638 1361 647 1385 647 1415 C 647 1442 638 1465 620 1483 C 602 1501 580 1511 553 1511 C 525 1511 503 1501 485 1483 C 467 1465 459 1442 459 1415 C 459 1385 467 1361 485 1343 C 503 1324 525 1315 553 1315 Z" unicode="" />
<glyph horiz-adv-x="1024" d="" unicode="" />
<glyph horiz-adv-x="1071" d="M 692 1188 C 654 1188 622 1194 595 1206 C 567 1218 542 1231 520 1245 C 498 1259 477 1273 457 1285 C 437 1297 415 1303 393 1303 C 366 1303 346 1293 332 1274 C 318 1254 311 1222 313 1178 L 135 1206 C 135 1308 157 1386 202 1439 C 246 1491 305 1518 379 1518 C 416 1518 448 1512 476 1500 C 503 1488 528 1474 550 1460 C 572 1446 594 1433 614 1421 C 634 1409 655 1403 678 1403 C 704 1403 725 1412 739 1431 C 753 1450 760 1482 758 1528 L 934 1499 C 934 1398 912 1321 868 1268 C 824 1214 765 1188 692 1188 Z" unicode="" />
<glyph horiz-adv-x="1077" d="" unicode="" />
<glyph horiz-adv-x="1458" d="" unicode="" />
<glyph horiz-adv-x="1589" d="" unicode="" />
<glyph horiz-adv-x="1276" d="M 455 -410 L 125 -410 L 125 1092 L 455 1092 L 455 397 C 455 349 465 312 485 286 C 505 260 538 248 584 248 C 628 248 669 258 708 278 C 747 298 785 325 821 358 L 821 1092 L 1151 1092 L 1151 0 L 821 0 L 821 170 C 793 136 758 102 716 69 C 674 36 623 12 563 -2 C 542 -4 522 -5 504 -5 C 486 -4 469 0 455 6 L 455 -410 Z" unicode="" />
<glyph horiz-adv-x="1405" d="" unicode="" />
<glyph horiz-adv-x="1958" d="" unicode="" />
<glyph horiz-adv-x="1587" d="" unicode="" />
<glyph horiz-adv-x="1958" d="" unicode="" />
<glyph horiz-adv-x="1587" d="" unicode="" />
<glyph horiz-adv-x="1958" d="" unicode="" />
<glyph horiz-adv-x="1587" d="" unicode="" />
<glyph horiz-adv-x="1415" d="" unicode="" />
<glyph horiz-adv-x="1147" d="" unicode="" />
<glyph horiz-adv-x="1024" d="" unicode="" />
<glyph horiz-adv-x="2048" d="" unicode="" />
<glyph horiz-adv-x="1024" d="" unicode="" />
<glyph horiz-adv-x="2048" d="" unicode="" />
<glyph horiz-adv-x="682" d="" unicode="" />
<glyph horiz-adv-x="512" d="" unicode="" />
<glyph horiz-adv-x="1331" d="" unicode="" />
<glyph horiz-adv-x="410" d="" unicode="" />
<glyph horiz-adv-x="205" d="" unicode="" />
<glyph horiz-adv-x="0" d="" unicode="" />
<glyph horiz-adv-x="731" d="M 635 532 L 96 532 L 96 754 L 635 754 L 635 532 Z" unicode="" />
<glyph horiz-adv-x="731" d="M 635 532 L 96 532 L 96 754 L 635 754 L 635 532 Z" unicode="" />
<glyph horiz-adv-x="1331" d="M 84 500 L 84 776 L 1247 776 L 1247 500 L 84 500 Z" unicode="" />
<glyph horiz-adv-x="1389" d="M 1276 500 L 113 500 L 113 776 L 1276 776 L 1276 500 Z" unicode="" />
<glyph horiz-adv-x="1931" d="M 1819 498 L 113 498 L 113 776 L 1819 776 L 1819 498 Z" unicode="" />
<glyph horiz-adv-x="2048" d="M 0 498 L 0 776 L 2048 776 L 2048 498 L 0 498 Z" unicode="" />
<glyph horiz-adv-x="578" d="M 311 1516 L 506 1516 L 451 952 L 98 952 L 311 1516 Z" unicode="" />
<glyph horiz-adv-x="578" d="M 293 952 L 98 952 L 154 1516 L 506 1516 L 293 952 Z" unicode="" />
<glyph horiz-adv-x="578" d="M 78 0 L 78 0 Z M 272 -246 L 78 -246 L 133 317 L 485 317 L 272 -246 Z" unicode="" />
<glyph horiz-adv-x="1063" d="M 311 1516 L 506 1516 L 451 952 L 98 952 L 311 1516 Z M 797 1516 L 991 1516 L 936 952 L 584 952 L 797 1516 Z" unicode="" />
<glyph horiz-adv-x="1063" d="M 778 952 L 584 952 L 639 1516 L 991 1516 L 778 952 Z M 293 952 L 98 952 L 154 1516 L 506 1516 L 293 952 Z" unicode="" />
<glyph horiz-adv-x="1063" d="M 78 0 L 78 0 Z M 758 -246 L 564 -246 L 619 318 L 971 318 L 758 -246 Z M 273 -246 L 78 -246 L 134 318 L 486 318 L 273 -246 Z" unicode="" />
<glyph horiz-adv-x="1251" d="M 797 -410 L 453 -410 L 504 754 L 61 721 L 61 1022 L 504 985 L 453 1516 L 797 1516 L 745 985 L 1188 1022 L 1188 721 L 745 754 L 797 -410 Z" unicode="" />
<glyph horiz-adv-x="1251" d="M 797 -410 L 453 -410 L 504 10 L 102 -27 L 102 260 L 504 225 L 461 553 L 504 879 L 102 846 L 102 1130 L 504 1096 L 453 1516 L 797 1516 L 745 1096 L 1147 1130 L 1147 846 L 745 879 L 788 553 L 745 225 L 1147 260 L 1147 -27 L 745 10 L 797 -410 Z" unicode="" />
<glyph horiz-adv-x="948" d="M 473 438 C 433 438 396 445 362 459 C 328 473 298 492 274 517 C 249 542 230 572 216 606 C 202 640 195 677 195 717 C 195 757 202 794 216 829 C 230 863 249 893 274 918 C 298 942 328 962 362 976 C 396 990 433 997 473 997 C 513 997 550 990 585 976 C 619 962 649 942 674 918 C 699 893 719 863 733 829 C 747 794 754 757 754 717 C 754 677 747 640 733 606 C 719 572 699 542 674 517 C 649 492 619 473 585 459 C 550 445 513 438 473 438 Z" unicode="" />
<glyph horiz-adv-x="1731" d="M 94 0 L 94 0 Z M 289 -16 C 257 -16 229 -11 205 -2 C 180 7 159 19 143 35 C 127 51 114 69 106 91 C 98 112 94 134 94 158 C 94 182 98 204 106 225 C 114 246 127 265 143 281 C 159 297 180 309 205 318 C 229 327 257 332 289 332 C 321 332 349 327 374 318 C 398 309 419 297 436 281 C 452 265 465 246 474 225 C 482 204 487 182 487 158 C 487 134 482 112 474 91 C 465 69 452 51 436 35 C 419 19 398 7 374 -2 C 349 -11 321 -16 289 -16 Z M 862 -16 C 830 -16 802 -11 778 -2 C 753 7 732 19 716 35 C 700 51 687 69 679 91 C 671 112 667 134 667 158 C 667 182 671 204 679 225 C 687 246 700 265 716 281 C 732 297 753 309 778 318 C 802 327 830 332 862 332 C 894 332 922 327 947 318 C 971 309 992 297 1009 281 C 1025 265 1038 246 1047 225 C 1055 204 1060 182 1060 158 C 1060 134 1055 112 1047 91 C 1038 69 1025 51 1009 35 C 992 19 971 7 947 -2 C 922 -11 894 -16 862 -16 Z M 1440 -16 C 1408 -16 1380 -11 1356 -2 C 1331 7 1310 19 1294 35 C 1278 51 1265 69 1257 91 C 1249 112 1245 134 1245 158 C 1245 182 1249 204 1257 225 C 1265 246 1278 265 1294 281 C 1310 297 1331 309 1356 318 C 1380 327 1408 332 1440 332 C 1472 332 1500 327 1525 318 C 1549 309 1570 297 1587 281 C 1603 265 1616 246 1625 225 C 1633 204 1638 182 1638 158 C 1638 134 1633 112 1625 91 C 1616 69 1603 51 1587 35 C 1570 19 1549 7 1525 -2 C 1500 -11 1472 -16 1440 -16 Z" unicode="" />
<glyph horiz-adv-x="3185" d="M 500 549 C 436 549 378 560 327 584 C 275 608 232 641 197 684 C 161 727 134 779 116 840 C 97 901 88 969 88 1044 C 88 1119 97 1187 117 1249 C 136 1310 163 1362 199 1405 C 234 1448 277 1481 328 1505 C 379 1528 436 1540 500 1540 C 562 1540 619 1528 670 1505 C 720 1481 763 1448 798 1406 C 832 1363 859 1311 878 1250 C 897 1189 907 1121 907 1047 C 907 972 897 904 879 843 C 860 781 833 729 799 686 C 764 642 721 609 671 585 C 620 561 563 549 500 549 Z M 823 0 L 541 0 L 1446 1516 L 1729 1516 L 823 0 Z M 500 756 C 548 756 583 781 605 833 C 626 885 637 955 637 1044 C 637 1134 626 1204 604 1254 C 582 1304 548 1329 500 1329 C 448 1329 412 1303 390 1253 C 368 1203 358 1134 358 1047 C 358 955 369 884 391 833 C 413 781 450 756 500 756 Z M 2687 -20 C 2623 -20 2565 -8 2515 15 C 2464 39 2421 72 2386 116 C 2350 159 2323 211 2305 272 C 2286 333 2277 401 2277 475 C 2277 549 2286 617 2305 679 C 2324 741 2351 793 2387 837 C 2422 880 2465 913 2516 937 C 2566 961 2623 973 2687 973 C 2750 973 2807 961 2858 937 C 2908 913 2951 880 2986 837 C 3021 793 3048 741 3067 680 C 3085 619 3095 551 3095 477 C 3095 403 3085 335 3067 274 C 3048 212 3021 160 2986 117 C 2951 73 2908 40 2858 16 C 2807 -8 2750 -20 2687 -20 Z M 1772 -20 C 1708 -20 1650 -8 1600 15 C 1549 39 1506 72 1471 116 C 1435 159 1408 211 1390 272 C 1371 333 1362 401 1362 475 C 1362 549 1371 617 1391 679 C 1410 741 1437 793 1473 837 C 1508 880 1551 913 1602 937 C 1653 961 1710 973 1774 973 C 1836 973 1893 961 1943 937 C 1993 913 2036 880 2071 837 C 2106 793 2133 741 2152 680 C 2171 619 2181 551 2181 477 C 2181 403 2171 335 2153 274 C 2134 212 2107 160 2072 117 C 2037 73 1994 40 1944 16 C 1893 -8 1836 -20 1772 -20 Z M 2687 188 C 2737 188 2772 214 2793 266 C 2813 318 2824 388 2824 477 C 2824 566 2813 635 2792 685 C 2770 735 2735 760 2687 760 C 2637 760 2601 734 2579 684 C 2557 633 2546 564 2546 477 C 2546 386 2557 315 2580 264 C 2602 213 2638 188 2687 188 Z M 1774 188 C 1822 188 1857 214 1879 266 C 1900 318 1911 388 1911 477 C 1911 566 1900 635 1878 685 C 1856 735 1820 760 1772 760 C 1722 760 1686 734 1664 684 C 1642 633 1632 564 1632 477 C 1632 386 1643 315 1665 264 C 1687 213 1724 188 1774 188 Z" unicode="" />
<glyph horiz-adv-x="541" d="M 113 965 L 150 1366 L 176 1516 L 455 1516 L 324 965 L 113 965 Z" unicode="" />
<glyph horiz-adv-x="942" d="M 514 965 L 551 1366 L 578 1516 L 856 1516 L 725 965 L 514 965 Z M 113 965 L 150 1366 L 176 1516 L 455 1516 L 324 965 L 113 965 Z" unicode="" />
<glyph horiz-adv-x="764" d="M 702 0 L 389 0 L 49 547 L 389 1092 L 702 1092 L 377 547 L 702 0 Z" unicode="" />
<glyph horiz-adv-x="764" d="M 375 0 L 61 0 L 387 547 L 61 1092 L 375 1092 L 715 547 L 375 0 Z" unicode="" />
<glyph horiz-adv-x="1114" d="M 250 0 L -35 0 L 866 1516 L 1149 1516 L 250 0 Z" unicode="" />
<glyph horiz-adv-x="1090" d="M 545 520 C 475 520 414 532 360 556 C 306 580 260 614 224 658 C 188 702 160 755 141 817 C 122 879 113 949 113 1026 C 113 1102 122 1171 141 1234 C 160 1296 188 1350 224 1394 C 260 1438 306 1473 360 1497 C 414 1521 475 1534 545 1534 C 614 1534 676 1521 730 1497 C 784 1473 829 1438 865 1394 C 901 1350 929 1296 948 1234 C 967 1171 977 1102 977 1026 C 977 949 967 879 948 817 C 929 755 901 702 865 658 C 829 614 784 580 730 556 C 676 532 614 520 545 520 Z M 545 725 C 605 725 647 751 673 804 C 698 856 711 930 711 1026 C 711 1119 698 1192 672 1244 C 646 1296 604 1323 545 1323 C 483 1323 439 1296 414 1244 C 389 1192 377 1119 377 1026 C 377 930 390 856 416 804 C 442 751 485 725 545 725 Z" unicode="" />
<glyph horiz-adv-x="1016" d="M 532 539 L 532 739 L 92 739 L 92 905 L 524 1516 L 793 1516 L 793 942 L 926 942 L 967 739 L 793 739 L 793 539 L 532 539 Z M 336 926 L 547 926 L 547 1237 L 336 926 Z" unicode="" />
<glyph horiz-adv-x="961" d="M 457 520 C 365 520 291 531 233 555 C 175 578 124 610 78 651 L 193 821 C 224 791 263 767 311 748 C 359 728 405 719 451 719 C 505 719 545 732 573 759 C 600 786 614 824 614 872 C 614 920 600 956 574 981 C 547 1005 511 1018 467 1018 C 436 1018 408 1011 383 997 C 357 983 332 960 307 930 L 131 985 L 172 1516 L 780 1516 L 807 1315 L 367 1315 L 352 1135 C 370 1151 395 1165 427 1176 C 459 1186 498 1192 545 1192 C 593 1192 637 1185 677 1173 C 717 1160 751 1140 779 1114 C 807 1087 830 1053 846 1013 C 862 972 870 924 870 868 C 870 809 859 758 839 714 C 818 670 789 633 753 605 C 717 576 673 555 623 541 C 572 527 517 520 457 520 Z" unicode="" />
<glyph horiz-adv-x="1018" d="M 537 520 C 399 520 293 561 221 644 C 149 727 113 850 113 1012 C 113 1110 125 1192 149 1260 C 173 1327 206 1381 248 1421 C 289 1461 337 1490 393 1508 C 448 1525 506 1534 567 1534 C 642 1534 707 1525 761 1507 C 815 1489 857 1468 887 1446 L 780 1264 C 749 1284 716 1300 680 1310 C 644 1320 607 1325 567 1325 C 501 1325 454 1307 424 1273 C 394 1238 377 1176 373 1087 C 406 1113 440 1133 476 1148 C 512 1163 559 1171 618 1171 C 661 1171 702 1165 741 1153 C 779 1141 813 1123 841 1098 C 869 1073 892 1041 909 1001 C 925 961 934 914 934 860 C 934 809 925 762 908 720 C 891 678 866 642 833 613 C 799 583 758 560 708 544 C 658 528 601 520 537 520 Z M 539 713 C 589 713 626 725 650 750 C 674 775 686 807 686 846 C 686 892 674 926 652 950 C 629 973 593 985 543 985 C 503 985 470 978 445 966 C 419 954 395 938 373 918 C 377 853 392 803 420 767 C 448 731 487 713 539 713 Z" unicode="" />
<glyph horiz-adv-x="866" d="M 162 539 L 518 1303 L 94 1303 L 53 1516 L 795 1516 L 795 1321 L 434 539 L 162 539 Z" unicode="" />
<glyph horiz-adv-x="997" d="M 498 520 C 364 520 262 544 192 593 C 122 641 88 708 88 793 C 88 823 93 850 104 876 C 115 902 130 925 149 947 C 167 968 189 987 215 1004 C 240 1021 267 1036 295 1049 C 244 1075 204 1106 175 1140 C 145 1174 131 1222 131 1284 C 131 1315 138 1346 153 1376 C 168 1406 191 1432 221 1456 C 251 1479 289 1498 335 1512 C 381 1526 436 1534 498 1534 C 562 1534 617 1526 664 1512 C 710 1498 748 1479 778 1456 C 807 1432 829 1406 843 1376 C 857 1346 864 1315 864 1284 C 864 1233 849 1188 819 1148 C 789 1108 750 1077 700 1055 C 729 1041 756 1026 782 1010 C 808 994 830 976 848 956 C 866 936 881 912 891 886 C 901 859 907 828 907 793 C 907 708 872 641 802 593 C 732 544 630 520 498 520 Z M 522 1122 C 556 1140 581 1160 599 1180 C 616 1200 625 1225 625 1255 C 625 1279 615 1303 596 1325 C 577 1347 546 1358 504 1358 C 461 1358 429 1348 409 1329 C 389 1309 379 1286 379 1260 C 379 1226 390 1199 412 1180 C 434 1160 471 1141 522 1122 Z M 494 688 C 548 688 588 698 614 718 C 640 738 653 767 653 803 C 653 838 638 869 608 896 C 578 922 532 947 471 971 C 428 950 395 925 371 896 C 347 867 336 836 336 803 C 336 768 348 740 374 719 C 400 698 440 688 494 688 Z" unicode="" />
<glyph horiz-adv-x="1018" d="M 475 1063 C 515 1063 547 1068 573 1080 C 598 1092 622 1108 645 1130 C 641 1193 624 1243 596 1280 C 568 1316 528 1335 477 1335 C 428 1335 392 1322 368 1296 C 344 1270 332 1238 332 1200 C 332 1155 343 1121 366 1098 C 388 1074 425 1063 475 1063 Z M 449 520 C 374 520 310 529 256 547 C 202 565 160 585 131 608 L 238 784 C 267 763 300 748 336 738 C 372 728 410 723 451 723 C 516 723 564 740 594 775 C 624 809 641 871 645 961 C 611 935 577 914 541 899 C 505 884 457 877 397 877 C 353 877 312 883 274 895 C 236 907 203 926 175 952 C 147 978 124 1011 108 1051 C 92 1091 84 1139 84 1194 C 84 1244 92 1291 109 1333 C 126 1375 151 1410 184 1440 C 217 1470 258 1493 308 1509 C 358 1525 415 1534 479 1534 C 617 1534 723 1492 796 1409 C 868 1325 905 1203 905 1042 C 905 944 891 861 865 794 C 838 726 803 672 760 632 C 717 592 668 563 614 546 C 559 528 504 520 449 520 Z" unicode="" />
<glyph horiz-adv-x="1090" d="M 113 0 L 113 0 Z M 545 -426 C 475 -426 414 -414 360 -390 C 306 -366 260 -332 224 -288 C 188 -244 160 -190 141 -128 C 122 -66 113 3 113 80 C 113 156 122 225 141 288 C 160 350 188 404 224 448 C 260 492 306 527 360 551 C 414 575 475 588 545 588 C 614 588 676 575 730 551 C 784 527 829 492 865 448 C 901 404 929 350 948 288 C 967 225 977 156 977 80 C 977 3 967 -66 948 -128 C 929 -190 901 -244 865 -288 C 829 -332 784 -366 730 -390 C 676 -414 614 -426 545 -426 Z M 545 -221 C 605 -221 647 -194 673 -142 C 698 -89 711 -15 711 80 C 711 173 698 246 672 298 C 646 350 604 377 545 377 C 483 377 439 350 414 298 C 389 246 377 173 377 80 C 377 -15 390 -89 416 -142 C 442 -194 485 -221 545 -221 Z" unicode="" />
<glyph horiz-adv-x="774" d="M 111 0 L 111 0 Z M 559 -409 L 295 -409 L 295 363 L 144 322 L 111 502 L 342 570 L 559 570 L 559 -409 Z" unicode="" />
<glyph horiz-adv-x="979" d="M 113 0 L 113 0 Z M 115 -405 L 115 -352 C 115 -316 117 -281 123 -245 C 128 -209 140 -173 160 -137 C 180 -100 209 -63 247 -25 C 285 12 336 50 401 90 C 438 112 469 131 494 147 C 519 163 539 177 554 191 C 568 204 579 218 585 232 C 591 246 594 264 594 285 C 594 312 585 333 569 348 C 552 363 528 371 498 371 C 467 371 433 359 395 336 C 357 312 322 275 291 223 L 113 352 C 161 429 217 488 280 529 C 342 569 417 590 504 590 C 618 590 704 562 761 508 C 817 454 846 381 846 291 C 846 263 842 236 836 208 C 829 180 816 153 798 126 C 780 99 755 72 723 45 C 691 17 650 -9 600 -37 C 538 -71 494 -100 468 -126 C 442 -152 426 -174 420 -194 L 836 -194 L 866 -405 L 115 -405 Z" unicode="" />
<glyph horiz-adv-x="979" d="M 84 0 L 84 0 Z M 481 -422 C 398 -422 322 -404 253 -370 C 184 -336 128 -286 84 -221 L 244 -82 C 279 -130 316 -164 354 -182 C 392 -200 427 -209 459 -209 C 513 -209 550 -198 572 -178 C 593 -158 604 -132 604 -102 C 604 -60 588 -30 558 -12 C 528 6 479 15 412 15 L 334 15 L 334 197 L 416 197 C 481 197 526 205 550 223 C 574 240 586 263 586 293 C 586 317 577 337 559 351 C 541 365 515 373 481 373 C 450 373 416 366 378 353 C 340 340 300 314 258 275 L 119 436 C 173 489 234 528 301 553 C 367 577 434 590 502 590 C 612 590 697 566 756 519 C 814 471 844 406 844 324 C 844 280 832 239 810 201 C 787 163 750 135 698 117 C 761 97 806 68 833 28 C 860 -12 874 -57 874 -108 C 874 -158 864 -203 846 -243 C 827 -282 801 -315 767 -341 C 733 -367 691 -387 643 -401 C 594 -415 540 -422 481 -422 Z" unicode="" />
<glyph horiz-adv-x="1016" d="M 92 0 L 92 0 Z M 532 -407 L 532 -207 L 92 -207 L 92 -41 L 524 570 L 793 570 L 793 -4 L 926 -4 L 967 -207 L 793 -207 L 793 -407 L 532 -407 Z M 336 -20 L 547 -20 L 547 291 L 336 -20 Z" unicode="" />
<glyph horiz-adv-x="961" d="M 78 0 L 78 0 Z M 457 -426 C 365 -426 291 -414 233 -391 C 175 -367 124 -335 78 -295 L 193 -125 C 224 -154 263 -178 311 -198 C 359 -217 405 -227 451 -227 C 505 -227 545 -213 573 -186 C 600 -159 614 -122 614 -74 C 614 -26 600 10 574 35 C 547 59 511 72 467 72 C 436 72 408 65 383 51 C 357 37 332 14 307 -16 L 131 39 L 172 570 L 780 570 L 807 369 L 367 369 L 352 189 C 370 205 395 219 427 230 C 459 240 498 246 545 246 C 593 246 637 239 677 227 C 717 214 751 194 779 168 C 807 141 830 107 846 67 C 862 26 870 -22 870 -78 C 870 -136 859 -188 839 -232 C 818 -276 789 -312 753 -341 C 717 -369 673 -391 623 -405 C 572 -419 517 -426 457 -426 Z" unicode="" />
<glyph horiz-adv-x="1018" d="M 113 0 L 113 0 Z M 537 -426 C 399 -426 293 -384 221 -301 C 149 -218 113 -96 113 66 C 113 164 125 246 149 314 C 173 381 206 435 248 475 C 289 515 337 544 393 562 C 448 579 506 588 567 588 C 642 588 707 579 761 561 C 815 543 857 522 887 500 L 780 318 C 749 338 716 354 680 364 C 644 374 607 379 567 379 C 501 379 454 361 424 327 C 394 292 377 230 373 141 C 406 167 440 187 476 202 C 512 217 559 225 618 225 C 661 225 702 219 741 207 C 779 195 813 177 841 152 C 869 127 892 95 909 55 C 925 15 934 -31 934 -86 C 934 -136 925 -183 908 -225 C 891 -267 866 -303 833 -333 C 799 -362 758 -385 708 -401 C 658 -417 601 -426 537 -426 Z M 539 -233 C 589 -233 626 -220 650 -195 C 674 -170 686 -138 686 -100 C 686 -54 674 -19 652 4 C 629 27 593 39 543 39 C 503 39 470 32 445 20 C 419 8 395 -8 373 -28 C 377 -92 392 -143 420 -179 C 448 -215 487 -233 539 -233 Z" unicode="" />
<glyph horiz-adv-x="866" d="M 53 0 L 53 0 Z M 162 -407 L 518 357 L 94 357 L 53 570 L 795 570 L 795 375 L 434 -407 L 162 -407 Z" unicode="" />
<glyph horiz-adv-x="997" d="M 88 0 L 88 0 Z M 498 -426 C 364 -426 262 -401 192 -353 C 122 -304 88 -237 88 -153 C 88 -123 93 -95 104 -69 C 115 -43 130 -20 149 1 C 167 22 189 41 215 58 C 240 75 267 90 295 103 C 244 129 204 160 175 194 C 145 228 131 276 131 338 C 131 369 138 400 153 430 C 168 460 191 486 221 510 C 251 533 289 552 335 566 C 381 580 436 588 498 588 C 562 588 617 580 664 566 C 710 552 748 533 778 510 C 807 486 829 460 843 430 C 857 400 864 369 864 338 C 864 287 849 242 819 202 C 789 162 750 131 700 109 C 729 95 756 80 782 64 C 808 48 830 30 848 10 C 866 -9 881 -33 891 -60 C 901 -86 907 -117 907 -153 C 907 -237 872 -304 802 -353 C 732 -401 630 -426 498 -426 Z M 522 176 C 556 194 581 214 599 234 C 616 254 625 279 625 309 C 625 333 615 357 596 379 C 577 401 546 412 504 412 C 461 412 429 402 409 383 C 389 363 379 340 379 314 C 379 280 390 253 412 234 C 434 214 471 195 522 176 Z M 494 -258 C 548 -258 588 -247 614 -227 C 640 -207 653 -179 653 -143 C 653 -107 638 -76 608 -50 C 578 -23 532 1 471 25 C 428 4 395 -20 371 -49 C 347 -78 336 -109 336 -143 C 336 -177 348 -205 374 -226 C 400 -247 440 -258 494 -258 Z" unicode="" />
<glyph horiz-adv-x="1018" d="M 84 0 L 84 0 Z M 475 117 C 515 117 547 122 573 134 C 598 146 622 162 645 184 C 641 247 624 297 596 334 C 568 370 528 389 477 389 C 428 389 392 376 368 350 C 344 324 332 292 332 254 C 332 209 343 175 366 152 C 388 128 425 117 475 117 Z M 449 -426 C 374 -426 310 -417 256 -399 C 202 -381 160 -360 131 -338 L 238 -162 C 267 -182 300 -198 336 -208 C 372 -218 410 -223 451 -223 C 516 -223 564 -205 594 -171 C 624 -136 641 -74 645 15 C 611 -11 577 -31 541 -46 C 505 -61 457 -69 397 -69 C 353 -69 312 -62 274 -50 C 236 -38 203 -19 175 6 C 147 32 124 65 108 105 C 92 145 84 193 84 248 C 84 298 92 345 109 387 C 126 429 151 464 184 494 C 217 524 258 547 308 563 C 358 579 415 588 479 588 C 617 588 723 546 796 463 C 868 379 905 257 905 96 C 905 -2 891 -84 865 -152 C 838 -219 803 -273 760 -313 C 717 -353 668 -382 614 -400 C 559 -417 504 -426 449 -426 Z" unicode="" />
<glyph horiz-adv-x="1509" d="M 254 760 L 254 813 L 43 813 L 43 989 L 272 989 C 288 1083 316 1165 354 1235 C 392 1305 437 1362 490 1408 C 542 1454 601 1488 667 1510 C 733 1532 802 1544 874 1544 C 951 1544 1019 1535 1079 1517 C 1138 1499 1189 1475 1231 1443 C 1273 1411 1309 1372 1338 1327 C 1367 1281 1391 1231 1409 1176 L 1137 1049 C 1125 1086 1111 1119 1097 1148 C 1083 1177 1066 1202 1046 1222 C 1026 1242 1003 1257 977 1268 C 950 1278 918 1284 881 1284 C 804 1284 742 1258 695 1208 C 647 1157 614 1084 596 989 L 922 989 L 922 813 L 575 813 L 575 762 C 575 746 575 731 575 717 C 575 702 576 688 578 674 L 922 674 L 922 496 L 598 496 C 616 411 648 345 693 297 C 738 249 802 225 885 225 C 951 225 1004 247 1046 293 C 1088 339 1123 410 1151 506 L 1436 412 C 1393 273 1326 165 1234 87 C 1142 9 1025 -29 883 -29 C 809 -29 740 -18 674 2 C 608 22 549 54 497 97 C 445 139 400 194 362 260 C 324 326 297 405 279 496 L 43 496 L 43 674 L 256 674 C 255 688 254 702 254 716 C 254 730 254 745 254 760 Z" unicode="" />
<glyph horiz-adv-x="1776" d="" unicode="" />
<glyph horiz-adv-x="1894" d="M 518 649 L 295 649 L 295 1331 L 57 1331 L 57 1516 L 756 1516 L 756 1331 L 518 1331 L 518 649 Z M 1075 649 L 877 649 L 877 1516 L 1182 1516 L 1339 940 L 1499 1516 L 1800 1516 L 1800 649 L 1583 649 L 1583 1214 L 1421 649 L 1237 649 L 1075 1210 L 1075 649 Z" unicode="" />
<glyph horiz-adv-x="1589" d="" unicode="" />
<glyph horiz-adv-x="1427" d="" unicode="" />
<glyph horiz-adv-x="2380" d="" unicode="" />
<glyph horiz-adv-x="2507" d="" unicode="" />
<glyph horiz-adv-x="2408" d="" unicode="" />
<glyph horiz-adv-x="2470" d="" unicode="" />
<glyph horiz-adv-x="2466" d="" unicode="" />
<glyph horiz-adv-x="2286" d="" unicode="" />
<glyph horiz-adv-x="1226" d="" unicode="" />
<glyph horiz-adv-x="1458" d="" unicode="" />
<glyph horiz-adv-x="1542" d="" unicode="" />
<glyph horiz-adv-x="1255" d="" unicode="" />
<glyph horiz-adv-x="1323" d="" unicode="" />
<glyph horiz-adv-x="1114" d="" unicode="" />
<glyph horiz-adv-x="592" d="" unicode="" />
<glyph horiz-adv-x="1264" d="" unicode="" />
<glyph horiz-adv-x="1634" d="" unicode="" />
<glyph horiz-adv-x="829" d="" unicode="" />
<glyph horiz-adv-x="1378" d="" unicode="" />
<glyph horiz-adv-x="1323" d="" unicode="" />
<glyph horiz-adv-x="1323" d="" unicode="" />
<glyph horiz-adv-x="1323" d="" unicode="" />
<glyph horiz-adv-x="1331" d="" unicode="" />
<glyph horiz-adv-x="1145" d="M 719 -2 L 387 -2 L -4 1092 L 336 1092 L 565 365 L 569 365 L 936 1516 L 1245 1516 L 719 -2 Z" unicode="" />
<glyph horiz-adv-x="578" d="" unicode="" />
<glyph horiz-adv-x="1556" d="M 899 1042 L 899 877 L 1063 877 L 1051 1030 L 899 1042 Z M 506 1030 L 492 877 L 657 877 L 657 1042 L 506 1030 Z M 899 635 L 899 471 L 1051 483 L 1063 635 L 899 635 Z M 504 485 L 657 471 L 657 635 L 492 635 L 504 485 Z M 950 0 L 606 0 L 657 301 L 522 289 L 526 233 L 287 233 L 291 268 L 256 266 L 256 506 L 309 502 L 322 635 L 20 584 L 20 928 L 322 877 L 309 1014 L 256 1010 L 256 1249 L 289 1247 L 287 1278 L 526 1278 L 520 1225 L 657 1212 L 606 1516 L 950 1516 L 899 1212 L 1034 1225 L 1030 1278 L 1270 1278 L 1268 1245 L 1300 1249 L 1300 1010 L 1245 1014 L 1233 877 L 1536 928 L 1536 584 L 1233 635 L 1245 502 L 1300 506 L 1300 266 L 1266 268 L 1270 233 L 1030 233 L 1034 289 L 899 301 L 950 0 Z" unicode="" />
<glyph horiz-adv-x="1501" d="M 551 0 L 223 0 L 223 852 L 41 852 L 41 1092 L 223 1092 L 223 1167 C 223 1212 228 1256 238 1300 C 248 1343 265 1381 291 1414 C 316 1447 351 1474 395 1494 C 439 1514 495 1524 563 1524 C 581 1524 599 1523 619 1522 C 639 1520 657 1519 675 1518 C 692 1516 707 1515 721 1513 C 734 1511 743 1509 748 1509 L 748 1282 C 738 1284 726 1286 710 1287 C 694 1287 680 1288 668 1288 C 627 1288 597 1276 579 1254 C 560 1232 551 1199 551 1157 L 551 1092 L 881 1092 L 881 1167 C 881 1212 885 1256 894 1300 C 903 1343 921 1381 948 1414 C 975 1447 1013 1474 1063 1494 C 1113 1514 1178 1524 1260 1524 C 1276 1524 1294 1523 1315 1522 C 1335 1520 1355 1519 1375 1518 C 1395 1516 1412 1515 1428 1513 C 1443 1511 1453 1509 1458 1509 L 1458 1280 C 1449 1282 1435 1283 1415 1285 C 1395 1287 1377 1288 1362 1288 C 1342 1288 1322 1286 1304 1284 C 1285 1281 1269 1275 1255 1266 C 1241 1257 1229 1244 1221 1227 C 1212 1209 1208 1186 1208 1157 L 1208 1092 L 1446 1092 L 1446 852 L 1208 852 L 1208 0 L 881 0 L 881 852 L 551 852 L 551 0 Z" unicode="" />
<glyph horiz-adv-x="1358" d="M 1042 1198 C 1012 1198 985 1202 962 1211 C 939 1220 920 1232 905 1247 C 889 1262 878 1280 870 1300 C 862 1320 858 1341 858 1364 C 858 1410 873 1449 905 1481 C 936 1513 982 1530 1042 1530 C 1103 1530 1150 1513 1182 1481 C 1214 1449 1231 1410 1231 1364 C 1231 1341 1226 1320 1218 1300 C 1210 1280 1198 1262 1182 1247 C 1166 1232 1147 1220 1123 1211 C 1099 1202 1072 1198 1042 1198 Z M 223 1092 L 223 1167 C 223 1212 227 1256 235 1300 C 243 1343 260 1381 285 1414 C 309 1447 344 1474 389 1494 C 433 1514 492 1524 565 1524 C 581 1524 600 1523 620 1522 C 640 1520 660 1519 678 1518 C 696 1516 712 1515 726 1513 C 740 1511 749 1509 754 1509 L 772 1274 C 762 1278 746 1281 724 1284 C 702 1286 684 1288 668 1288 C 652 1288 637 1286 623 1284 C 609 1281 596 1275 586 1266 C 575 1257 566 1244 560 1227 C 554 1209 551 1186 551 1157 L 551 1092 L 752 1092 L 752 852 L 551 852 L 551 0 L 223 0 L 223 852 L 41 852 L 41 1092 L 223 1092 Z M 1208 0 L 881 0 L 881 1092 L 1208 1092 L 1208 0 Z" unicode="" />
<glyph horiz-adv-x="1350" d="M 1208 0 L 881 0 L 881 1491 L 1208 1540 L 1208 0 Z M 223 1092 L 223 1167 C 223 1212 227 1256 235 1300 C 243 1343 260 1381 285 1414 C 309 1447 344 1474 389 1494 C 433 1514 492 1524 565 1524 C 581 1524 600 1523 620 1522 C 640 1520 660 1519 678 1518 C 696 1516 712 1515 726 1513 C 740 1511 749 1509 754 1509 L 772 1274 C 762 1278 746 1281 724 1284 C 702 1286 684 1288 668 1288 C 652 1288 637 1286 623 1284 C 609 1281 596 1275 586 1266 C 575 1257 566 1244 560 1227 C 554 1209 551 1186 551 1157 L 551 1092 L 752 1092 L 752 852 L 551 852 L 551 0 L 223 0 L 223 852 L 41 852 L 41 1092 L 223 1092 Z" unicode="" />
<glyph horiz-adv-x="2003" d="M 1698 1198 C 1668 1198 1641 1202 1618 1211 C 1594 1220 1575 1232 1560 1247 C 1544 1262 1533 1280 1525 1300 C 1517 1320 1513 1341 1513 1364 C 1513 1410 1528 1449 1560 1481 C 1592 1513 1638 1530 1698 1530 C 1759 1530 1806 1513 1838 1481 C 1870 1449 1886 1410 1886 1364 C 1886 1341 1882 1320 1874 1300 C 1866 1280 1854 1262 1838 1247 C 1822 1232 1803 1220 1779 1211 C 1755 1202 1728 1198 1698 1198 Z M 1864 0 L 1536 0 L 1536 1092 L 1864 1092 L 1864 0 Z M 1208 1092 L 1407 1092 L 1407 852 L 1208 852 L 1208 0 L 881 0 L 881 852 L 551 852 L 551 0 L 223 0 L 223 852 L 41 852 L 41 1092 L 223 1092 L 223 1167 C 223 1212 227 1256 235 1300 C 243 1343 260 1381 285 1414 C 309 1447 344 1474 389 1494 C 433 1514 492 1524 565 1524 C 581 1524 600 1523 620 1522 C 640 1520 660 1519 678 1518 C 696 1516 712 1515 726 1513 C 740 1511 749 1509 754 1509 L 772 1274 C 762 1278 746 1281 724 1284 C 702 1286 684 1288 668 1288 C 652 1288 637 1286 623 1284 C 609 1281 596 1275 586 1266 C 575 1257 566 1244 560 1227 C 554 1209 551 1186 551 1157 L 551 1092 L 881 1092 L 881 1167 C 881 1212 885 1256 893 1300 C 901 1343 918 1381 943 1414 C 967 1447 1002 1474 1047 1494 C 1091 1514 1150 1524 1223 1524 C 1239 1524 1258 1523 1278 1522 C 1298 1520 1317 1519 1335 1518 C 1353 1516 1369 1515 1383 1513 C 1397 1511 1406 1509 1411 1509 L 1430 1274 C 1419 1278 1403 1281 1382 1284 C 1360 1286 1341 1288 1325 1288 C 1309 1288 1295 1286 1281 1284 C 1267 1281 1254 1275 1243 1266 C 1232 1257 1223 1244 1217 1227 C 1211 1209 1208 1186 1208 1157 L 1208 1092 Z" unicode="" />
<glyph horiz-adv-x="2003" d="M 1866 0 L 1536 0 L 1536 1491 L 1866 1540 L 1866 0 Z M 1208 1092 L 1407 1092 L 1407 852 L 1208 852 L 1208 0 L 881 0 L 881 852 L 551 852 L 551 0 L 223 0 L 223 852 L 41 852 L 41 1092 L 223 1092 L 223 1167 C 223 1212 227 1256 235 1300 C 243 1343 260 1381 285 1414 C 309 1447 344 1474 389 1494 C 433 1514 492 1524 565 1524 C 581 1524 600 1523 620 1522 C 640 1520 660 1519 678 1518 C 696 1516 712 1515 726 1513 C 740 1511 749 1509 754 1509 L 772 1274 C 762 1278 746 1281 724 1284 C 702 1286 684 1288 668 1288 C 652 1288 637 1286 623 1284 C 609 1281 596 1275 586 1266 C 575 1257 566 1244 560 1227 C 554 1209 551 1186 551 1157 L 551 1092 L 881 1092 L 881 1167 C 881 1212 885 1256 893 1300 C 901 1343 918 1381 943 1414 C 967 1447 1002 1474 1047 1494 C 1091 1514 1150 1524 1223 1524 C 1239 1524 1258 1523 1278 1522 C 1298 1520 1317 1519 1335 1518 C 1353 1516 1369 1515 1383 1513 C 1397 1511 1406 1509 1411 1509 L 1430 1274 C 1419 1278 1403 1281 1382 1284 C 1360 1286 1341 1288 1325 1288 C 1309 1288 1295 1286 1281 1284 C 1267 1281 1254 1275 1243 1266 C 1232 1257 1223 1244 1217 1227 C 1211 1209 1208 1186 1208 1157 L 1208 1092 Z" unicode="" />
<glyph horiz-adv-x="0" d="" unicode="" />
</font>
</defs>
</svg>
