<svg version="1.1" id="Capa_1" xmlns="http://www.w3.org/2000/svg" xmlns:xlink="http://www.w3.org/1999/xlink" x="0px" y="0px"
	 viewBox="0 0 121 38" style="enable-background:new 0 0 121 38;" xml:space="preserve">
<style type="text/css">
	.st0{fill-rule:evenodd;clip-rule:evenodd;fill: #ffffff}
</style>
<g>
	<defs>
		<path id="SVGID_1_" d="M52.8,15l1.8-2.7c3.9-5.7,1.2-11.9-6.4-11.9H31.8v37.4h15.7C61.4,37.7,65.6,21.6,52.8,15 M43.3,32.7h-2.7
			V5.2h4.8c2.3,0,4.3,1.9,4.3,4.2c0,0.8-0.1,1.6-0.9,2.7l-3.1,4.7c3.3,0.8,5.4,3.3,5.4,7.9C51.2,30.3,47.8,32.7,43.3,32.7"/>
	</defs>
	<use xlink:href="#SVGID_1_"  style="overflow:visible;fill-rule:evenodd;clip-rule:evenodd;fill:#ffffff;"/>
	<clipPath id="SVGID_2_">
		<use xlink:href="#SVGID_1_"  style="overflow:visible;"/>
	</clipPath>
</g>
<g>
	<defs>
		<path id="SVGID_3_" d="M21.1,15l1.8-2.7c3.9-5.7,1.2-11.9-6.4-11.9H0.1v37.4h15.7C29.7,37.7,33.9,21.6,21.1,15 M11.6,32.7H9V5.2
			h4.8c2.3,0,4.3,1.9,4.3,4.2c0,0.8-0.2,1.6-1,2.7L14,16.8c3.3,0.8,5.4,3.3,5.4,7.9C19.4,30.3,16.1,32.7,11.6,32.7"/>
	</defs>
	<use xlink:href="#SVGID_3_"  style="overflow:visible;fill-rule:evenodd;clip-rule:evenodd;fill:#ffffff;"/>
	<clipPath id="SVGID_4_">
		<use xlink:href="#SVGID_3_"  style="overflow:visible;"/>
	</clipPath>
</g>
<g>
	<path class="st0" d="M84.8,0.3l-8.5,28.4L69.2,5.2c-1.3-4.2-2-4.9-4.6-4.9h-6.6l12.3,37.4h9L90.7,0.3H84.8z"/>
</g>
<g>
	<defs>
		<path id="SVGID_5_" d="M109.5,4.1c-1-3.1-1.6-3.8-4.5-3.8h-7.2L86.3,37.7h5.8l2.5-8h13.6l2.5,8h10.1L109.5,4.1z M96.3,24.1l5.1-17
			l5.2,17H96.3z"/>
	</defs>
	<use xlink:href="#SVGID_5_"  style="overflow:visible;fill-rule:evenodd;clip-rule:evenodd;fill:#ffffff;"/>
	<clipPath id="SVGID_6_">
		<use xlink:href="#SVGID_5_"  style="overflow:visible;"/>
	</clipPath>
</g>
</svg>