<svg width="592" height="81" viewBox="0 0 592 81" xmlns="http://www.w3.org/2000/svg"><title>bbvacompass-white</title><desc>Created with Sketch.</desc><g fill="#fff"><path d="M439.108 60.01c-5.945 0-10.084-1.658-13.746-5.531v-23.592c5.164-6.086 10.26-8.928 16.002-8.928 8.398 0 13.025 6.709 13.025 18.889 0 15.84-8.312 19.162-15.281 19.162m2.978-44.035c-6.16 0-11.892 2.469-16.724 7.18v-.805c0-3.967-.352-5.838-3.58-5.838h-3.217v63.924h6.797v-18.774c4.004 2.924 8.596 4.248 14.558 4.248 5.012 0 21.358-1.841 21.358-25.509 0-22.049-13.422-24.426-19.192-24.426"/><path d="M499.165 53.539c-1.73 1.996-3.555 3.697-5.693 4.867-2.25 1.254-4.975 2-8.606 2-1.472 0-2.847-.17-4.111-.525-.908-.252-1.707-.639-2.445-1.113-1.051-.684-1.897-1.614-2.526-2.858-.629-1.266-.978-2.834-.978-4.795 0-1.68.339-2.996.978-4.084.49-.838 1.084-1.539 1.858-2.219 1.13-.927 2.636-1.591 4.462-2.076 1.77-.465 3.823-.689 6.125-.689 4.047 0 7.618.529 10.936 1.254v10.238zm3.055-33.436c-1.508-1.486-3.469-2.566-5.768-3.218-2.223-.637-4.783-.91-7.537-.91-9.402.05-14.691 2.773-18.129 4.73 2.543 5.377 5.233 4.061 8.709 2.566 2.668-1.146 5.742-1.627 8.984-1.627 1.489.004 3.129.354 4.721.678.94.252 1.781.604 2.479 1.012 1.138.707 1.945 1.582 2.558 2.713.6 1.144.928 2.654.928 4.59v7.023c-3.555-.791-7.135-1.146-11.213-1.146-2.855 0-5.471.271-7.9.849-1.776.442-3.385 1.039-4.924 1.826-2.195 1.204-3.998 2.838-5.272 4.877-1.261 2.09-1.91 4.545-1.91 7.412 0 2.327.416 4.499 1.184 6.338 1.221 2.752 3.312 4.93 5.906 6.325 2.639 1.425 5.727 2.136 9.215 2.136h.012c4.017 0 7.205-.748 9.931-2.019 1.86-.91 3.483-2.02 4.971-3.344.031.645.082 1.168.158 1.66.072.535.207 1.016.449 1.453.163.323.373.645.659.895.429.344.923.586 1.425.703.516.139 1.102.178 1.725.178h2.383v-35.455c0-2.551-.424-4.737-1.235-6.631-.603-1.412-1.441-2.621-2.509-3.614z"/><path d="M258.983 6.168c1.518 0 2.887.09 4.141.254 2.726.348 4.88 1.043 6.662 1.935l.187.096.656.356c.319.189.633.377.922.568l.061.045.5.348.553.429c.504.416.98.83 1.439 1.215.494.41.973.779 1.451 1.07 1.737 1.059 3.485 1.065 6.166-1.962-.842-1.217-1.734-2.268-2.642-3.192-4.453-4.529-9.338-5.801-11.325-6.404l-.041-.014c-1.388-.334-2.91-.566-4.589-.723-1.358-.121-2.813-.189-4.411-.189-14.404 0-28.937 10.172-28.937 32.91l.004.18-.004.182c0 22.732 14.533 32.906 28.937 32.906 1.598 0 3.053-.069 4.411-.19 1.679-.152 3.201-.394 4.589-.726l.041-.008c1.987-.606 6.872-1.875 11.325-6.404.908-.922 1.8-1.973 2.642-3.194-2.681-3.023-4.429-3.021-6.166-1.963-.478.293-.957.661-1.451 1.073-.459.386-.935.797-1.439 1.213l-.553.429-.5.35-.061.045c-.289.193-.603.379-.922.566l-.656.358-.187.091c-1.782.897-3.936 1.594-6.662 1.944-1.254.158-2.623.248-4.141.248-13.543 0-21.957-10.174-21.957-26.559l.01-.361-.01-.36c0-16.384 8.414-26.562 21.957-26.562"/><path d="M533.937 37.107c-9.682-1.629-11.316-3.752-11.316-7.895 0-4.998 3.431-7.419 10.496-7.429 5.832-.006 7.773 1.556 9.545 2.357 1.773.805 3.256.987 5.134-1.263.247-.297.499-.631.762-1.012-.209-.231-.461-.488-.762-.772-6.068-5.265-12.132-5.119-14.769-5.119-10.447 0-16.936 5.211-16.936 13.598 0 9.896 8.375 12.502 15.672 13.672 9.922 1.592 11.672 3.898 11.672 8.162 0 6.035-3.818 8.965-11.672 8.965-3.578 0-6.369-.735-8.51-1.727v.01c-3.216-1.522-5.035-3.084-7.613-.311-.369.399-.754.885-1.16 1.471.303.328.682.717 1.16 1.141.93.82 2.231 1.787 4.03 2.742 1.033.494 2.218.965 3.583 1.359 2.323.672 5.17 1.125 8.69 1.125 11.736 0 18.199-5.375 18.199-15.135 0-10.031-7.793-12.63-16.205-13.939"/><path d="M575.269 37.107c-9.686-1.629-11.318-3.752-11.318-7.895 0-4.998 3.431-7.419 10.496-7.429 5.83-.006 7.773 1.556 9.547 2.357 1.773.805 3.254.987 5.134-1.263.246-.297.498-.631.764-1.012-.211-.231-.463-.488-.764-.772-6.07-5.265-12.134-5.119-14.771-5.119-10.447 0-16.934 5.211-16.934 13.598 0 9.896 8.373 12.502 15.67 13.672 9.926 1.592 11.672 3.898 11.672 8.162 0 6.035-3.818 8.965-11.672 8.965-3.578 0-6.369-.735-8.508-1.727v.01c-3.216-1.522-5.037-3.084-7.615-.311-.367.399-.752.885-1.156 1.471.297.328.678.717 1.156 1.141.93.82 2.233 1.787 4.028 2.742 1.035.494 2.22.965 3.587 1.359 2.325.672 5.17 1.125 8.688 1.125 11.738 0 18.201-5.375 18.201-15.135 0-10.031-7.795-12.63-16.205-13.939"/><path d="M324.157 49.332c-1.146 3.59-3.02 6.254-5.496 8.092-2.518 1.834-5.684 2.808-9.473 2.808-2.558 0-4.82-.445-6.781-1.275-2.93-1.23-5.227-3.371-6.867-6.352-1.596-3.002-2.485-6.847-2.485-11.572 0-3.099.379-5.853 1.135-8.252 1.125-3.553 3.02-6.281 5.51-8.131 2.49-1.898 5.664-2.871 9.488-2.871 2.514 0 4.785.434 6.725 1.272 2.959 1.295 5.24 3.459 6.832 6.496 1.65 2.982 2.533 6.859 2.533 11.486 0 3.133-.392 5.928-1.121 8.299m-1.674-29.461c-3.637-2.586-8.181-3.914-13.295-3.896-3.412 0-6.515.572-9.342 1.679-4.197 1.764-7.632 4.744-9.984 8.735-2.35 4.004-3.631 8.982-3.631 14.644 0 3.824.569 7.276 1.651 10.373 1.599 4.602 4.377 8.299 8.023 10.836 3.678 2.486 8.199 3.844 13.283 3.844 3.379 0 6.528-.619 9.373-1.746 4.184-1.711 7.629-4.676 9.95-8.647 2.394-3.966 3.636-8.951 3.636-14.66 0-3.785-.551-7.285-1.605-10.336-1.633-4.629-4.389-8.332-8.059-10.826"/><path d="M404.478 19.697c-1.211-1.346-2.74-2.316-4.379-2.902-1.679-.573-3.519-.821-5.429-.821-3.961 0-7.667.952-10.961 2.42-2.748 1.262-5.2 2.807-7.375 4.506-.334-.844-.754-1.621-1.237-2.301-1.217-1.632-2.844-2.859-4.687-3.601-1.803-.739-3.791-1.024-5.823-1.024-4.085 0-7.83 1.024-11.082 2.547-2.41 1.156-4.603 2.512-6.503 3.877v-.09c0-1.056-.012-1.892-.11-2.599-.041-.522-.139-1.002-.271-1.457-.121-.309-.293-.625-.557-.877-.168-.19-.365-.377-.582-.473-.361-.197-.68-.301-1.035-.34-.352-.041-.674-.045-1.01-.072h-3.205v49.197h6.77v-36.674c2.291-1.855 4.66-3.546 7.189-4.816 2.705-1.34 5.549-2.18 8.797-2.18 1.182 0 2.244.112 3.17.348.705.193 1.283.48 1.799.812.767.557 1.363 1.27 1.8 2.303.452 1.084.713 2.481.713 4.342v35.865h6.809v-36.726c2.254-1.803 4.639-3.481 7.139-4.756 2.683-1.34 5.523-2.188 8.63-2.188 1.284 0 2.409.112 3.346.348.699.193 1.305.48 1.83.812.758.553 1.321 1.252 1.756 2.303.422 1.078.662 2.463.662 4.342v35.865h6.75v-37.125c0-2.181-.338-4.049-.955-5.705-.49-1.219-1.158-2.285-1.959-3.16"/><path d="M168.035 42.063l8.951-29.869 9.067 29.869h-18.018zm15.177-41.721h-12.511l-20.028 65.446h10.2l4.301-14.092h23.791l4.322 14.092h17.738l-19.856-58.803c-1.814-5.379-2.833-6.643-7.957-6.643z"/><path d="M75.46 57.064h-4.654v-48.205h8.411c4.05 0 7.543 3.34 7.543 7.375 0 1.424-.265 2.75-1.651 4.74l-5.451 8.18c5.704 1.365 9.516 5.713 9.516 13.832 0 9.873-5.907 14.078-13.714 14.078m16.518-31.072l3.213-4.741c6.754-10.033 2.106-20.923-11.259-20.923h-28.534v65.48h27.516c24.197 0 31.443-28.18 9.064-39.816"/><path d="M20.055 57.064h-4.616v-48.205h8.37c4.057 0 7.578 3.34 7.578 7.375 0 1.424-.261 2.75-1.67 4.74l-5.483 8.18c5.723 1.365 9.531 5.713 9.531 13.832 0 9.873-5.899 14.078-13.71 14.078m16.518-31.072l3.188-4.741c6.782-10.033 2.135-20.923-11.265-20.923h-28.496000000000002v65.48h27.518c24.173 0 31.487-28.18 9.055-39.816"/><path d="M147.974.328l-14.774 49.721-12.427-41.19c-2.33-7.379-3.514-8.531-7.985-8.531h-11.554l21.417 65.459h15.727l19.953-65.459h-10.357z"/></g></svg>